<svg width="7732" height="4352" viewBox="0 0 7732 4352" fill="none" xmlns="http://www.w3.org/2000/svg">
<g filter="url(#filter0_d_11_103)">
<g clip-path="url(#clip0_11_103)">
<path d="M5251.63 2437C5169.88 2355.27 5060.89 2311.68 4935.55 2311.68C4810.2 2311.68 4902.85 2311.68 4886.5 2311.68C4799.31 2317.13 4695.76 2355.27 4592.22 2464.25L4041.8 3020.02L4297.94 3276.11L4848.35 2720.34C4859.25 2709.44 4864.7 2703.99 4875.6 2698.54C4897.4 2682.2 4919.2 2671.3 4946.45 2671.3C4973.69 2671.3 4995.49 2682.19 4995.49 2682.19C4995.49 2682.19 5099.04 2703.99 5311.57 3178.03L5475.06 2894.7C5475.06 2894.7 5491.41 2862 5502.31 2845.66C5676.7 2502.39 5654.9 2104.63 5447.82 1832.19C5333.37 1679.63 4319.73 682.526 3812.91 192.14H3295.19C3960.05 845.988 5055.44 1924.82 5158.98 2055.59C5240.73 2164.57 5273.43 2306.23 5251.63 2453.35C5251.63 2453.35 5251.63 2453.35 5246.18 2453.35L5251.63 2437Z" fill="#9FD7F8" fill-opacity="0.11"/>
<path d="M2112.45 2742.28V3259.91L3414.93 1957.67L3158.79 1701.58L2112.45 2742.28Z" fill="#9FD7F8" fill-opacity="0.11"/>
<path d="M2499.38 3978.93L4515.76 1957.45L2112.45 -440V72.1807L4003.49 1957.45L2112.45 3848.17V4338.55L2499.38 3978.93Z" fill="#9FD7F8" fill-opacity="0.11"/>
</g>
<rect x="4.5" y="0.5" width="7723" height="4343" stroke="black" shape-rendering="crispEdges"/>
</g>
<defs>
<filter id="filter0_d_11_103" x="0" y="0" width="7732" height="4352" filterUnits="userSpaceOnUse" color-interpolation-filters="sRGB">
<feFlood flood-opacity="0" result="BackgroundImageFix"/>
<feColorMatrix in="SourceAlpha" type="matrix" values="0 0 0 0 0 0 0 0 0 0 0 0 0 0 0 0 0 0 127 0" result="hardAlpha"/>
<feOffset dy="4"/>
<feGaussianBlur stdDeviation="2"/>
<feComposite in2="hardAlpha" operator="out"/>
<feColorMatrix type="matrix" values="0 0 0 0 0 0 0 0 0 0 0 0 0 0 0 0 0 0 0.25 0"/>
<feBlend mode="normal" in2="BackgroundImageFix" result="effect1_dropShadow_11_103"/>
<feBlend mode="normal" in="SourceGraphic" in2="effect1_dropShadow_11_103" result="shape"/>
</filter>
<clipPath id="clip0_11_103">
<rect x="4" width="7724" height="4344" fill="white"/>
</clipPath>
</defs>
</svg>
