<svg width="767" height="201" viewBox="0 0 767 201" fill="none" xmlns="http://www.w3.org/2000/svg">
<path d="M460.084 0.604492H459.487V200.79H460.084V0.604492Z" fill="white"/>
<path d="M736.984 147.842C731.016 150.896 724.651 154.155 719.48 159.449L718.883 159.857C718.883 159.857 717.093 160.671 716.496 161.079H716.297L715.899 160.468C719.281 157.413 722.463 153.747 724.452 149.878C727.436 144.787 728.232 138.677 729.027 132.975C729.624 128.495 730.42 124.015 732.011 119.738C730.42 121.775 728.431 124.422 728.431 124.422C728.431 124.422 725.845 128.088 726.044 128.088C722.861 133.179 720.872 138.881 719.082 144.38C716.695 152.118 713.91 160.264 707.545 166.373C709.932 165.763 718.883 163.726 718.883 163.726L728.431 161.69C740.962 157.617 754.09 145.398 757.87 131.346C756.079 134.401 753.693 137.252 750.51 139.899C746.333 143.158 741.559 145.601 737.183 147.842H736.984Z" fill="url(#paint0_radial_48_22)"/>
<path d="M758.645 84.1028L757.452 86.9539C755.662 91.0268 754.667 95.7101 753.673 100.19C753.673 100.19 752.28 106.503 752.082 106.707L751.485 107.318L750.092 108.54L750.888 104.874L751.684 97.9502C751.684 97.5429 751.684 97.1356 751.684 96.7283C751.684 89.6013 748.103 83.8992 744.722 78.197C742.534 74.5314 740.346 70.6621 738.953 66.3855C738.953 67.4038 738.953 68.422 738.953 68.422C739.948 80.4372 743.13 91.4341 746.313 101.616C747.308 104.263 747.705 107.522 747.705 110.576C747.705 113.631 747.705 114.853 747.308 116.889C748.7 114.853 754.27 107.114 754.27 107.114L760.237 98.9684C764.016 91.8414 765.806 83.4919 765.806 75.346C765.806 67.2001 765.011 66.1819 763.618 61.9053C763.618 62.1089 763.618 62.5162 763.618 62.9235C763.618 70.4585 760.635 77.1788 757.85 83.6955L758.645 84.1028Z" fill="url(#paint1_radial_48_22)"/>
<path d="M751.902 69.6508L750.51 64.7633C748.72 59.4685 744.344 55.5992 740.167 51.7299C737.183 49.0825 734.398 46.4351 732.409 43.1767C733.404 46.4351 734.995 51.9335 734.995 51.9335C736.984 56.8211 740.366 61.3013 743.548 65.5779C747.526 70.8727 751.704 76.5748 753.295 83.0915C753.295 83.0915 753.693 84.7207 753.693 84.9244C754.488 79.8332 755.682 74.9457 757.472 70.4654C759.66 65.7815 760.655 60.2831 760.655 54.7846C760.655 46.4351 758.268 37.8819 753.892 31.7725L752.698 30.1433C752.698 30.1433 752.101 29.5324 751.505 28.7178C753.295 32.5871 754.091 37.0673 754.091 41.5475C753.295 47.657 752.897 53.5627 752.897 59.2648C752.897 64.967 753.096 68.429 753.693 72.5019H752.897C752.897 72.7055 752.897 72.9092 752.897 72.9092H752.499L751.902 69.4472V69.6508Z" fill="url(#paint2_radial_48_22)"/>
<path d="M727.814 34.4163L736.765 42.3585C741.539 46.2278 746.313 50.0971 749.297 55.5956C749.098 53.5591 748.7 51.5226 748.7 49.6898C748.7 47.857 748.7 45.6169 748.899 43.3768C748.899 41.3403 749.098 39.3038 749.098 37.2673C749.098 35.2309 749.098 32.1762 748.302 29.7324C746.91 23.012 740.942 15.0698 733.582 12.2188C735.969 14.4589 737.959 17.1063 739.152 20.3646L741.539 29.5287C742.931 35.0272 744.125 40.7293 746.512 45.8205L745.915 46.2278H745.517C745.517 46.4315 744.324 43.9877 744.324 43.9877C744.324 43.9877 741.539 39.5075 741.34 39.5075C738.754 35.8418 735.174 33.398 731.593 30.9543C728.212 28.5105 724.83 25.6595 722.245 22.1975C722.245 22.1975 722.046 21.7902 721.847 21.5865C721.847 21.3829 721.449 20.9756 721.25 20.7719C722.443 26.474 724.433 30.9543 727.416 34.4163H727.814Z" fill="url(#paint3_radial_48_22)"/>
<path d="M737.362 30.1367C737.362 29.9331 737.163 29.5258 737.163 29.5258C735.572 23.2127 732.986 15.0668 726.422 8.95741C722.444 5.29176 717.67 3.45894 713.095 1.82976C713.095 1.82976 711.702 1.21882 710.31 0.811523C712.299 2.84799 715.879 6.71728 715.879 6.71728C721.25 15.6778 729.008 23.8236 737.362 30.3403V30.1367Z" fill="url(#paint4_radial_48_22)"/>
<path d="M559.136 28.0972C562.12 25.4498 565.303 22.8023 567.888 19.544L570.276 16.082C573.657 10.9908 577.436 5.89943 581.812 1.62305C573.657 4.8814 565.303 8.13975 560.529 16.4893C558.341 19.3403 557.545 22.8021 556.551 26.0607C556.551 26.0607 555.357 29.5227 554.76 31.5592C556.153 30.3373 558.937 27.8935 558.937 27.8935L559.136 28.0972Z" fill="url(#paint5_radial_48_22)"/>
<path d="M546.804 47.4436H546.605L548.197 41.9451L549.589 37.6685L551.18 30.337C552.374 24.2276 553.766 18.322 558.341 13.8418C555.158 15.2671 551.976 17.3038 549.589 20.3585C545.014 25.246 543.82 31.9664 543.82 39.094C543.82 46.2217 544.019 45.8144 544.417 49.2764C544.417 49.2764 544.417 55.5893 544.417 56.8111C546.207 53.5528 548.992 50.2944 553.169 46.4253C564.706 38.0758 570.475 29.9299 571.27 21.3767C571.27 21.5804 570.872 21.9875 570.673 22.1911C570.673 22.1911 570.674 22.395 570.475 22.5986C568.088 26.6716 564.507 29.7261 560.728 32.3735L554.562 37.2612C551.379 40.5196 548.992 43.9814 547.799 47.647C547.799 47.647 547.799 47.647 547.401 47.647C547.401 47.647 547.202 47.647 547.003 47.647L546.804 47.4436Z" fill="url(#paint6_radial_48_22)"/>
<path d="M540.439 74.3283C540.24 74.3283 540.041 74.3283 540.041 74.3283L540.837 62.7204L539.842 51.5198C539.444 48.0578 538.847 44.5958 538.847 41.1338C538.847 37.6718 539.444 35.228 540.439 32.377C535.466 39.7082 532.681 46.8359 532.681 54.3708V55.3891C532.681 56 532.681 56.611 532.681 57.0183C532.681 63.1277 534.67 68.6261 536.659 73.921C538.251 78.1976 539.842 82.4741 540.439 87.158C542.03 79.8267 546.008 73.5137 550.186 67.6079L557.147 56.4073C558.739 52.7417 559.534 49.076 560.33 45.4104C559.335 46.8359 558.341 48.4651 558.341 48.6687L556.749 50.2979C550.185 56.4073 543.422 62.7204 542.03 71.2736V72.6991C541.831 72.6991 541.234 75.3465 541.234 75.3465C541.234 75.3465 541.234 75.3465 540.837 75.3465C540.837 75.3465 540.638 75.3465 540.439 75.3465V74.3283Z" fill="url(#paint7_radial_48_22)"/>
<path d="M540.041 100.597L538.847 95.5061L534.471 83.8972C531.885 77.9914 529.1 71.882 529.1 64.958C529.1 58.034 529.1 64.958 529.1 64.7543C528.703 66.3835 528.106 68.0127 528.106 68.0127L527.708 69.6419C527.31 71.882 527.111 74.1221 527.111 76.7695C527.111 82.0643 528.106 87.9701 529.896 94.2842C531.487 99.7826 535.267 104.467 539.046 109.15C541.632 112.409 544.218 115.667 546.008 119.129C545.809 117.093 545.411 115.056 545.411 112.816C545.411 110.576 545.61 107.929 546.406 105.688L548.196 99.3754L552.174 83.8972L552.771 80.2315C553.368 76.5659 553.964 72.6966 553.964 69.0309C553.964 65.3653 553.964 68.42 553.964 68.0127C553.368 70.2528 552.771 72.6966 551.379 74.733C546.207 82.6753 541.632 91.2284 541.632 99.9863C541.632 108.743 542.03 105.485 543.024 108.336H542.627C542.627 108.743 542.428 108.743 542.229 108.743H541.831L539.643 100.801L540.041 100.597Z" fill="url(#paint8_radial_48_22)"/>
<path d="M563.731 147.233C563.333 146.215 562.737 144.993 562.737 144.993L560.35 139.291C558.957 133.385 558.361 127.072 557.963 120.759C557.366 112.817 556.173 104.874 553.786 97.543C553.786 101.209 552.99 104.467 552.393 107.929L551.001 115.668C551.001 116.889 551.001 118.111 551.001 119.13C551.001 124.017 551.995 128.497 553.984 132.367L554.979 134.403L556.173 136.847L555.377 137.254L551.2 131.756L550.006 129.923C547.42 125.443 543.641 121.573 540.061 117.908C534.69 112.409 529.32 106.503 527.529 98.9685C527.529 99.5794 527.529 100.19 527.529 100.801C527.529 106.096 528.325 110.78 529.916 114.446C534.491 127.479 547.023 135.625 558.162 142.956C558.162 142.956 562.339 145.807 564.129 146.826L563.731 147.233Z" fill="url(#paint9_radial_48_22)"/>
<path d="M570.872 157.422C566.695 153.756 561.524 151.312 556.551 148.868C548.793 144.999 540.837 140.926 535.864 132.577C538.45 142.352 545.809 152.127 555.954 158.44C561.722 162.513 568.883 163.735 575.845 164.956C575.845 164.956 584.597 166.789 586.785 167.4C580.221 161.291 577.436 153.145 574.851 145.406L572.066 137.464C569.878 132.577 566.496 127.282 561.921 121.376C563.513 125.449 564.308 129.929 564.905 134.409C565.899 140.926 566.894 147.646 570.673 152.941C572.464 155.996 575.447 158.847 578.033 161.291C578.033 161.291 578.033 161.291 578.033 161.494C578.033 161.698 578.033 161.902 578.033 161.902L571.071 157.014L570.872 157.422Z" fill="url(#paint10_radial_48_22)"/>
<path d="M608.268 175.544L613.838 174.118L616.423 173.711C616.423 173.711 617.02 173.711 617.418 173.711C612.047 172.489 605.682 170.453 600.113 165.565L595.339 160.881C589.968 155.586 584.995 150.699 579.227 146.626C580.619 149.07 583.404 153.957 583.404 153.957C586.587 160.678 589.968 167.805 597.925 170.656L600.908 171.675L604.29 172.896V173.711L599.715 173.304L597.726 172.896L583.205 171.267C573.061 170.656 562.717 169.638 554.959 162.51C559.336 169.638 566.695 175.544 574.851 178.191C585.99 182.061 597.328 179.006 608.467 175.951L608.268 175.544Z" fill="url(#paint11_radial_48_22)"/>
<path d="M620.203 200.79C625.573 193.459 632.933 186.739 642.083 180.629L642.879 180.222C642.879 180.222 647.653 178.185 648.05 178.185C658.792 183.48 667.942 192.848 674.108 200.383C674.108 200.383 678.285 196.514 678.882 196.514C670.726 188.571 661.775 182.055 652.228 177.574L650.636 176.963H652.228L657.598 176.149C661.775 175.945 664.958 178.185 668.141 180.425L670.726 182.258C682.462 191.422 695.591 194.273 706.332 190.201C711.504 188.368 715.88 185.109 719.46 181.24C711.901 185.517 701.359 186.535 692.607 183.277L682.661 179.204C672.716 173.705 659.985 172.076 649.642 174.927C648.051 176.353 646.26 175.742 644.868 175.334L642.481 174.723C629.154 171.669 617.418 176.963 606.08 182.258L602.301 183.887C593.35 187.553 582.807 186.739 574.851 182.462C578.232 185.924 582.21 188.775 587.78 191.015C597.129 194.884 609.263 193.052 618.81 186.331L624.38 182.462C629.75 178.389 635.121 174.316 642.68 176.76L643.873 177.167L642.879 177.574C633.53 182.055 624.977 188.164 617.02 195.495C616.622 195.903 616.225 196.31 615.827 196.514C616.026 196.717 620.203 200.383 620.402 200.79H620.203Z" fill="url(#paint12_radial_48_22)"/>
<path d="M690.419 172.687V171.872L693.999 170.447L698.773 168.41C705.337 165.152 707.923 159.246 710.708 153.137C711.901 150.489 713.492 147.638 715.084 145.194C709.315 149.471 704.342 154.358 698.972 159.857L693.601 165.152C689.026 169.428 683.457 171.465 677.091 173.094C677.489 173.094 677.887 173.094 677.887 173.094L688.827 175.538C699.171 177.982 709.713 180.629 720.056 176.76C727.018 174.316 735.174 168.41 739.55 160.875C731.991 168.206 721.847 169.428 711.702 170.039L701.359 171.058L696.983 171.872L690.219 172.89L690.419 172.687Z" fill="url(#paint13_radial_48_22)"/>
<path d="M743.131 120.156V119.138C743.131 115.065 742.335 111.196 741.738 107.327C740.942 103.661 740.346 99.7917 740.346 95.7187V95.3114C739.948 96.5333 739.351 97.7552 739.351 97.7552C737.163 104.272 736.567 111.807 736.169 118.934C735.572 128.099 734.776 137.466 730.201 145.409C730.002 145.816 729.803 146.427 729.604 146.834L741.937 138.281L746.313 135.43C759.64 126.062 767 113.436 767 99.9953C767 86.5548 767 98.1625 766.801 97.1443C764.812 106.105 758.248 113.029 751.485 119.749L743.727 130.135L739.55 136.244H738.953C738.953 136.041 738.754 136.041 738.754 136.041H738.357C741.539 130.95 743.131 125.859 743.528 120.36" fill="url(#paint14_radial_48_22)"/>
<path d="M663.983 37.0572L664.58 35.4279L663.586 35.0208V33.3914C663.785 33.3914 666.171 34.4096 666.171 34.4096L666.768 32.7807L661 30.5405L660.403 32.1697L662.392 32.9843C662.392 33.3916 662.392 34.0025 662.193 34.6135C661.795 34.6135 661.199 34.4096 661.199 34.4096L660.602 36.039L662.392 36.65L663.983 37.2609V37.0572ZM722.464 68.2153L710.131 72.0843L712.319 79.6195C712.717 81.2487 711.722 83.0815 710.728 84.9143L709.534 87.3579L708.938 88.58C708.938 88.58 707.147 91.4308 706.75 92.2456C703.169 90.6162 700.385 91.0237 697.6 91.8383H697.202L696.605 94.8934L694.616 96.319L693.82 95.9117H694.616L695.611 88.7836C695.611 88.7836 695.611 87.1544 696.008 86.1362H696.406C698.197 86.1362 700.186 86.3398 701.777 84.9143C701.18 85.118 705.556 84.9143 705.556 84.9143C705.954 84.7107 707.346 83.2849 707.346 83.2849L709.932 80.4341C710.33 79.6195 710.728 78.3976 710.728 77.3794C710.728 76.3611 710.131 74.3245 708.938 73.1026L708.341 72.6955C707.346 71.8809 706.153 71.0663 704.562 70.8627C704.363 70.4552 703.965 69.8444 703.965 69.8444C702.374 68.8262 701.18 69.0298 699.788 69.4371C699.788 68.0116 699.191 62.3095 699.191 62.3095C699.191 61.9022 698.992 61.6985 698.992 61.4949C698.992 61.0876 699.191 60.6801 699.788 59.8655L700.583 57.8291H702.97V49.0724C702.97 49.0724 696.008 49.0724 694.019 49.0724C694.218 48.6651 694.616 48.4615 694.616 47.8505C694.616 47.2396 694.616 47.2396 694.616 47.036C693.423 44.5922 691.632 44.7958 690.041 44.9995C690.041 44.9995 690.041 44.9995 689.842 44.9995C689.842 44.5922 690.24 41.3338 690.24 41.3338L688.848 42.3521C688.848 42.3521 681.289 47.2396 680.493 47.8505C679.897 47.4432 677.311 45.4068 677.311 45.4068C677.311 45.4068 672.935 42.1484 672.139 41.7411C672.139 40.3156 671.144 39.2974 670.15 38.0755C670.15 38.0755 670.15 37.8718 669.752 37.6682C671.343 36.8536 672.537 35.6317 673.133 34.6135C673.531 33.7989 673.929 32.577 673.929 31.5588C673.929 30.5405 673.929 29.9294 673.332 29.3185C671.542 25.4492 667.564 23.209 662.989 23.209C661 23.6163 658.812 25.2455 657.419 27.282C656.425 28.3002 656.226 29.3187 656.027 30.5405C655.43 30.5405 654.834 30.5405 654.834 30.5405C653.839 30.5405 653.441 30.5405 652.646 29.7259C652.646 29.7259 646.081 22.3947 645.485 21.5801C645.683 20.9691 646.081 20.1545 646.081 19.5436C646.081 18.5254 645.882 17.5071 645.485 16.8962L644.49 15.0634L643.098 13.6378L638.722 12.8232L639.318 14.0451C639.318 14.2488 635.34 14.4524 635.34 14.4524V25.8567H642.501C644.092 28.5041 647.474 33.7989 648.667 35.6317C642.302 36.039 637.926 36.8536 632.555 38.6864L629.97 37.2609L627.98 40.1119C625.792 40.3156 623.803 41.5373 622.013 42.5555C622.013 42.5555 620.024 42.7594 618.433 43.1667C619.626 41.3338 622.013 37.4643 622.013 37.4643C622.013 37.4643 627.98 26.8749 628.179 26.8749L630.566 26.0603L632.754 22.8019C633.351 20.7655 632.953 18.3217 631.959 17.0998V16.6925C631.76 16.6925 630.367 16.8962 630.367 16.8962C630.367 16.8962 629.174 18.3217 628.577 19.1363C628.577 18.9327 627.185 17.7108 627.185 17.7108L625.792 21.7837C625.792 21.7837 619.228 30.133 616.443 33.3914C616.443 32.9841 616.443 32.7807 616.443 32.577C616.642 31.9661 617.438 29.5223 617.438 29.5223V29.115C617.04 27.6895 615.449 25.4494 614.255 24.8384L613.261 24.4311V25.2455L612.863 26.8749C611.073 25.4494 608.686 24.4311 606.896 24.4311H605.901C605.901 24.4311 606.498 26.2639 606.697 26.8749C605.901 26.8749 603.912 26.4676 603.912 26.4676C603.912 26.4676 604.111 28.3004 604.31 28.9114C602.917 28.9114 599.337 28.3002 599.337 28.3002L599.934 29.5223C599.934 29.5223 600.331 30.7442 600.729 31.5588C599.735 31.5588 597.945 31.7624 597.945 31.7624V32.3732C597.945 32.3732 597.945 32.577 597.945 32.7807C597.945 33.3916 598.342 33.7989 598.74 34.0025C597.746 34.0025 595.16 34.6135 595.16 34.6135L595.956 35.6317C595.956 35.6317 595.956 35.8354 596.154 36.039C595.956 36.039 595.558 36.039 595.558 36.039L592.375 36.8536L593.171 37.6682L593.767 38.8901C593.37 38.8901 590.585 40.519 590.585 40.519L591.38 41.1302C590.983 41.1302 590.585 41.1302 590.585 41.1302H589.789C588.596 41.1302 587.203 41.1302 586.607 42.1484L585.811 42.5555L585.015 43.1667V44.1849C585.015 44.1849 586.607 45.8139 587.402 46.425C586.806 46.8323 586.01 47.6467 586.01 47.6467L585.612 48.2578L584.617 50.498H586.01C587.601 50.2941 589.192 49.4797 590.585 48.2578L591.182 50.9052C591.182 51.1089 594.165 51.7196 594.165 51.7196L596.353 50.2943L595.558 49.887C594.961 49.0724 594.762 48.2578 594.762 47.8505C594.762 47.4432 594.762 47.4432 594.961 47.2396L598.541 46.8323C598.541 46.8323 599.337 46.8323 600.133 46.8323C600.133 56.6074 599.934 63.9387 598.144 71.27C597.149 71.27 595.756 70.659 595.756 70.659L591.38 69.6408L587.8 68.8262C585.413 69.8444 585.214 71.27 585.015 72.4918C585.015 72.4918 585.015 72.8991 584.816 73.3064C584.418 73.3064 584.021 73.3064 584.021 73.3064L580.44 72.4918C578.65 72.0845 576.86 73.7137 576.064 75.3429C576.064 75.7502 575.865 76.1575 575.865 76.3611C575.865 77.7867 577.059 78.8049 578.252 79.6195L580.241 81.656C580.241 81.656 580.241 82.0631 580.043 82.2667C579.247 82.0631 578.053 81.4523 578.053 81.4523C576.064 80.6377 574.075 79.6193 572.285 81.2485C572.086 81.8594 572.086 82.4704 572.086 83.0815C572.086 84.9141 573.081 86.1362 574.075 87.5617C574.075 87.5617 574.274 87.7654 574.473 87.969C573.478 87.969 572.484 87.969 572.484 87.969L570.296 87.5617V87.969C570.097 87.969 562.538 95.9117 562.538 95.9117L563.135 96.5226C565.124 98.5591 567.312 97.3372 569.102 96.1153C570.097 95.5044 571.091 95.0971 572.285 94.8934C572.086 95.3007 571.688 95.708 571.688 95.708C571.489 96.1153 571.29 96.319 571.29 96.7262C571.29 97.1335 571.29 96.9299 571.29 97.1336C571.29 97.9481 572.086 98.5591 572.882 98.9664H573.28C573.28 99.17 577.059 96.9299 577.059 96.9299L580.639 94.6898C580.042 94.6898 585.214 95.5044 585.214 95.5044L600.332 96.7262C600.53 96.7262 603.315 96.319 604.31 96.319C606.697 108.334 615.449 120.146 626.389 126.255C626.19 126.866 625.792 128.088 625.792 128.088C625.792 128.495 625.792 128.902 625.792 129.31C625.792 130.939 626.588 132.161 627.98 133.179C628.179 133.179 632.754 133.586 632.754 133.586C632.754 133.586 635.539 133.79 637.329 133.994C635.937 134.605 633.351 135.216 633.351 135.216C630.964 135.623 628.577 136.234 626.389 138.067C622.809 139.899 620.223 144.991 620.223 148.453C620.223 151.915 620.223 149.471 620.223 149.471H621.018C623.008 149.471 625.593 148.045 626.986 145.805C630.765 140.51 637.13 140.103 642.7 139.899C642.7 139.899 644.689 139.696 646.678 139.492C645.286 140.51 644.092 141.732 644.092 141.732L639.716 145.398L634.544 148.045L624.002 153.951L624.599 154.562C624.798 154.969 625.395 154.969 626.19 155.173L635.34 156.191V155.784C639.318 151.304 644.888 148.453 650.457 148.045C653.839 147.231 657.022 144.583 660.204 142.14C660.204 142.14 661.796 140.918 662.591 140.307C662.79 140.714 662.989 141.121 662.989 141.121C662.989 141.121 662.989 141.732 662.989 142.14V143.361C662.989 143.769 662.79 144.38 662.79 144.991C662.79 145.602 662.989 146.62 663.785 147.434L664.182 147.842H664.381L669.155 145.805C669.155 145.805 670.747 145.194 671.741 144.787C671.741 147.434 671.94 149.675 673.133 151.507C675.123 152.322 676.714 151.1 677.907 150.082C677.907 150.082 678.305 149.675 678.703 149.471C679.3 150.082 680.692 151.507 680.692 151.507C681.488 152.322 683.278 152.729 684.472 152.526C685.466 152.322 686.063 151.507 686.262 150.693C686.46 150.082 686.66 149.675 686.66 149.064C686.66 148.045 686.262 147.231 685.665 146.416L685.068 145.194C685.068 144.787 684.869 144.176 684.869 143.769C684.869 143.158 685.267 142.75 685.466 142.343C687.057 142.954 688.251 143.565 689.245 145.194C689.245 145.602 689.245 146.823 689.245 146.823C689.245 148.249 688.45 149.471 687.455 150.896C686.461 152.322 685.267 153.951 685.267 156.191C685.267 158.431 685.267 157.82 685.267 157.82L691.234 154.358C694.218 153.34 694.815 151.507 694.815 149.674C694.815 147.842 694.815 148.453 694.815 147.842C694.815 147.842 694.815 146.823 694.815 146.212C695.611 146.212 697.003 145.805 697.003 145.805C698.196 144.787 698.594 143.769 698.594 142.75C698.594 141.732 698.594 141.325 698.196 140.714L697.799 138.881L698.395 136.234C698.992 133.383 699.39 130.532 699.39 127.884C699.39 125.237 699.191 124.422 698.594 122.589C698.594 122.997 700.583 114.444 700.583 114.24L701.976 112.814C701.976 112.814 703.965 110.371 704.363 109.556C707.346 108.945 709.534 106.298 709.932 103.65C709.932 100.799 710.927 98.7627 712.12 96.5226L713.91 92.6529L714.905 89.3944C715.701 86.136 716.297 84.7107 718.684 84.507C721.27 82.8778 721.668 80.6377 721.668 79.0086V77.9903L725.646 76.7684L723.259 68.4189L722.464 68.2153ZM697.202 96.1153C697.6 96.9299 698.196 98.1518 698.594 98.7627C698.594 98.7627 698.594 98.7627 698.395 98.9664C697.998 98.5591 696.406 97.1335 696.008 96.9299C696.605 96.5226 696.804 96.319 697.202 95.9117M694.815 99.781C694.815 99.5773 695.213 98.9664 695.809 99.17C695.809 99.17 697.401 99.3737 697.997 99.3737C697.202 100.392 696.605 101.41 696.406 102.428C695.81 102.021 695.014 101.614 694.815 101.614C694.815 101.41 694.616 101.003 694.616 100.799C694.616 100.596 694.616 100.188 694.815 99.781ZM694.218 97.7445C694.417 97.7445 694.616 98.1518 694.815 98.1518C694.616 98.1518 694.218 98.3554 694.019 98.5591V97.7445H694.218ZM695.213 73.7137C694.815 71.8809 694.616 70.0479 694.616 70.0479C695.213 69.8442 695.611 57.0145 695.611 56.8108L696.207 51.7196C696.207 52.3306 696.605 52.7381 696.605 52.9417L696.804 56.8108V57.6256H699.589L699.191 58.6438C698.594 59.6621 697.6 61.0876 698.594 62.5131C698.594 62.1058 698.992 68.0116 698.992 69.8444L696.605 70.8627C695.81 71.8809 695.611 72.6955 695.412 73.7137H695.213ZM698.793 71.4736C697.998 73.3064 697.6 74.9354 697.401 77.1755V76.7684C697.003 75.7502 696.804 74.732 696.804 73.9174C696.804 73.1026 696.804 72.6955 697.401 72.2882C697.401 72.2882 698.196 71.8809 698.992 71.6772L698.793 71.4736ZM696.406 77.583H696.804C696.804 77.3794 696.207 78.6013 696.207 78.6013V78.3976L696.406 77.583ZM697.003 84.3032C697.003 84.3032 696.605 84.0997 696.406 83.8961V83.2849V79.4158C696.804 79.4158 697.202 79.2122 697.401 78.8049C697.401 80.6377 698.196 82.4705 699.987 83.8961C698.992 84.3034 697.997 84.0997 697.003 84.0997V84.3032ZM704.761 72.0843C705.755 72.0843 706.75 72.8991 707.744 73.7137C709.733 75.5465 709.733 77.7867 708.739 79.4158L706.551 81.8596L706.153 82.2667L705.357 81.8596C703.965 81.4523 703.169 80.0268 702.97 78.3976V77.3794C702.97 75.3429 702.97 73.1026 704.562 72.0843H704.761ZM700.583 71.27V70.8627V70.4554C701.777 70.0481 702.573 70.0481 703.567 70.659C701.578 72.0845 701.578 74.7318 701.578 76.9721V77.9903C701.578 80.2304 702.97 82.0632 704.562 82.8778C703.766 82.8778 701.976 82.8778 701.777 82.8778C699.589 81.4523 699.191 79.8231 698.992 77.583C699.191 74.9356 699.589 72.8991 700.782 70.8627L700.583 71.27ZM701.777 50.498V55.9964H698.196C698.196 54.9782 698.196 53.1454 698.196 53.1454C698.196 52.1271 697.799 51.3125 697.003 50.9052C696.406 50.498 695.611 50.7016 695.014 51.1089C694.815 51.5162 694.417 54.5709 694.218 55.9964C693.82 55.9964 692.826 55.9964 692.03 55.9964C692.03 54.9782 692.03 51.5162 692.03 50.498H693.025C693.025 50.498 700.384 50.498 701.777 50.498ZM694.019 57.6256L693.621 67.4007C691.433 62.1058 688.848 57.422 685.466 53.349L687.256 51.3125C687.256 51.3125 688.052 50.0905 688.45 49.6832C688.848 49.6832 689.842 50.0907 690.24 50.0907V57.422H693.82L694.019 57.6256ZM688.251 44.3885C688.251 44.9995 688.052 46.6285 688.052 46.6285H689.046C689.046 46.4248 690.439 46.2214 690.439 46.2214C692.03 46.0177 692.627 45.8141 693.224 47.036C693.224 47.036 693.224 47.0359 693.224 47.2396C693.224 47.6469 693.025 47.8503 692.428 48.4615C692.03 48.4615 691.632 48.4615 691.632 48.4615H691.036L687.654 47.4433V47.8505C687.455 47.8505 685.665 50.0907 685.665 50.0907L684.272 51.7196C683.278 50.7014 682.482 49.4797 681.488 48.4615C683.079 47.4433 686.659 45.2031 688.251 44.1849V44.3885ZM670.349 40.7229C668.956 40.112 667.166 39.2974 665.774 38.6864C666.37 38.4828 666.967 38.0755 667.564 37.6682L668.956 39.2974C669.553 39.9083 669.951 40.3156 670.15 40.9265L670.349 40.7229ZM660.801 36.2427C660.602 36.0388 659.806 35.0208 659.806 33.5952C659.806 32.1697 659.806 32.1695 660.403 31.3549C660.403 31.1513 661.994 29.726 662.193 29.5223C664.779 30.5405 667.763 32.1697 667.763 33.5952V34.4096V35.6317C666.768 36.65 665.177 37.6682 663.586 37.8718L661 37.2609H661.199L660.801 36.65V36.2427ZM663.387 24.6348C667.166 24.6348 670.548 26.4676 672.139 29.9296C672.537 30.5405 672.537 32.7807 672.139 33.5952C671.343 34.6135 670.548 35.6315 669.553 36.2427V34.4096V33.5952C669.553 30.7442 664.978 28.9114 661.398 27.4858L660.403 27.0785C661.398 26.0603 662.591 25.2455 663.586 25.2455L663.387 24.6348ZM658.812 28.3002C658.812 28.3002 658.812 28.0968 659.011 27.8931C659.409 27.8931 660.005 28.3004 660.602 28.5041C660.005 29.115 659.21 29.7259 659.21 29.7259C658.613 30.7442 658.215 31.7624 658.215 32.577L657.817 31.3549C657.817 29.9294 657.817 29.115 658.812 28.0968V28.3002ZM641.705 24.0238H637.329V15.8779C638.125 15.8779 639.318 15.8779 640.114 15.8779C640.114 16.0816 640.114 16.4889 640.114 16.4889V17.5071C640.313 17.5071 638.722 16.2852 638.722 16.2852V17.7108C638.523 18.729 638.324 20.5618 639.915 21.9874L640.91 22.8019C640.91 22.8019 641.307 23.4129 641.506 23.8202L641.705 24.0238ZM643.297 23.209L642.302 21.7837L641.307 20.7655C640.91 20.5618 640.91 20.1545 640.91 19.7472C640.91 19.7472 641.307 19.3399 641.506 18.9327L642.103 19.5436C642.501 19.1363 642.7 18.729 642.7 18.3217C642.7 17.7108 642.302 16.8962 642.103 16.0816L641.705 15.0634C642.302 15.0634 642.899 15.0634 642.899 15.0634L643.695 15.8779C643.695 16.0816 644.49 17.5071 644.49 17.5071C644.888 18.3217 644.888 19.1363 644.888 19.7472C644.888 20.3582 644.888 20.9691 644.291 21.5801L643.893 22.1908L651.85 31.1515C653.043 32.5768 654.237 32.577 655.231 32.577H656.425L657.419 35.6317L657.817 36.4461H657.022C657.022 36.2425 652.645 35.8354 651.054 35.8354L643.297 23.6165V23.209ZM650.258 36.8536L656.624 37.4643L662.989 39.0937L670.945 42.7594L676.117 46.425L679.698 49.0724C685.466 54.9782 689.842 61.9022 692.826 70.2517L694.417 78.8049V79.8231V84.507L694.019 88.1727L693.025 95.3007V95.9117C692.826 95.9117 691.632 98.9664 691.433 99.9846C687.057 97.9481 682.482 100.596 678.106 103.243C678.106 103.243 677.311 103.65 676.515 104.261C677.112 102.428 677.708 99.5773 677.907 98.9664C678.305 98.9664 678.902 98.9664 678.902 98.9664C680.095 98.9664 681.687 98.9664 683.079 97.1336V96.7262C683.079 95.708 682.681 92.4493 682.482 91.2274C683.278 90.8199 686.858 88.9872 686.858 88.9872L683.676 81.656L680.493 83.4888C680.493 82.6742 680.891 81.656 680.891 81.656L679.499 82.0633C679.3 82.0633 657.618 88.58 648.866 83.8961L647.673 83.2849C647.076 81.6558 645.684 80.8414 644.291 80.0268C645.286 80.0268 646.678 79.6193 647.474 78.1938C647.474 77.7865 648.468 74.732 648.468 74.732C648.866 73.5101 649.463 72.0845 649.463 70.659C649.463 69.2335 648.866 67.808 647.275 66.1788C645.485 64.5496 642.7 64.7531 640.91 64.9567C638.523 65.5676 637.528 67.808 637.329 69.6408H636.931C635.937 69.6408 634.345 69.8444 633.55 71.6772C632.953 70.8627 630.566 66.5861 630.566 66.5861C629.77 65.7715 629.373 64.9569 629.373 64.346C629.373 63.1241 630.168 61.9022 631.163 60.273C631.163 60.273 632.555 57.6254 632.953 56.8108C633.351 56.8108 633.749 56.8108 633.749 56.8108C636.733 55.7926 637.13 52.5344 637.528 50.498V49.2761L636.533 48.8688L634.743 49.2761L629.572 51.1089C629.174 51.5162 623.206 61.902 623.206 61.902C623.206 62.9202 624.798 71.4736 625.196 74.3247C623.803 73.9174 616.245 72.0843 616.245 72.0843C614.255 72.0843 612.266 72.4916 611.073 74.1208C610.675 74.1208 605.503 72.8991 604.111 72.6955C606.1 63.735 610.476 57.0147 615.051 51.1089C615.25 51.1089 618.035 50.2943 618.035 50.2943L619.626 49.6832C619.626 49.6832 623.604 47.2396 624.002 47.036C624.002 47.036 624.201 47.036 624.599 47.036L624.201 47.6467L629.97 51.1089L636.335 41.1302L634.147 39.9083C639.119 38.2791 643.297 37.4645 649.662 37.2609L650.258 36.8536ZM677.51 89.3944L676.316 87.7654C676.714 87.5617 677.112 87.3579 677.112 87.3579L674.526 86.3396C673.929 86.3396 669.553 88.58 669.553 88.58C664.58 91.2274 660.403 93.6716 653.64 92.2456C649.861 91.4308 646.081 89.3944 642.302 87.3579L643.098 86.9508L646.28 84.9143H647.474C647.871 85.118 648.468 85.5253 648.468 85.5253C656.823 90.0055 674.725 85.3216 678.902 84.0997C678.902 84.507 678.504 86.1362 678.504 86.1362H679.499C680.891 86.1362 681.09 87.1544 681.687 88.7836L682.084 90.0055C682.084 90.0055 681.687 90.0053 681.687 90.2091C681.687 90.2091 680.891 90.6164 680.095 91.0237C677.907 90.4128 677.709 89.8018 677.51 89.5982V89.3944ZM678.106 91.8383C677.708 91.8383 677.509 92.2456 677.112 92.2456C676.913 91.8381 676.515 91.0235 676.117 90.4126C676.515 91.0235 677.112 91.431 677.907 91.8383M626.986 90.4126C627.781 90.0053 628.975 89.5982 628.975 89.5982C633.55 87.7654 637.727 86.3396 642.501 85.3214L640.711 86.5435L633.55 90.2091L627.98 93.0602V92.042V91.8383C627.98 91.2274 627.384 90.6162 626.986 90.4126ZM619.228 91.6347L617.438 90.0055L611.669 85.118L617.04 85.9325L616.046 86.9508V87.5617C617.438 90.2091 620.024 90.2091 622.013 90.2091L625.196 90.8201L625.792 91.8383C625.991 92.042 625.792 93.6715 625.792 94.4861C625.196 94.8934 624.599 95.3007 623.803 95.5044L619.029 91.8383L619.228 91.6347ZM622.013 95.9117C621.416 95.9117 620.819 95.9117 620.422 95.9117C619.626 95.9117 618.631 94.4861 618.234 93.4679H618.83C618.83 93.2643 622.212 95.9117 622.212 95.9117H622.013ZM603.912 85.118C603.912 85.118 604.31 84.7107 604.708 84.7107C604.906 84.7107 605.304 84.3034 605.503 84.0997L608.487 84.507L616.245 91.2274C616.245 91.2274 616.642 91.6347 617.239 92.042L604.31 85.118H603.912ZM625.593 89.1909L622.013 88.3761C620.024 88.3761 618.83 87.969 618.035 86.9508C618.234 86.7471 618.632 86.3398 618.83 86.1362C619.427 86.1362 620.024 86.1362 620.621 85.9325L622.212 85.5253L622.61 85.118C622.61 85.118 622.61 85.118 622.61 84.9143L630.765 83.4888L637.13 82.2667C637.528 82.2667 639.716 81.4523 639.716 81.4523L641.705 81.045L641.307 80.2302H641.904L642.501 80.6377C643.893 81.2487 645.087 82.0631 646.081 83.2849H645.485H644.689C638.125 84.3032 633.351 86.1362 627.98 88.1727L625.196 89.1909H625.593ZM621.018 80.6377C619.626 80.4341 616.046 80.0268 616.046 80.0268V79.8231L617.239 78.8049L619.029 77.1755C619.626 77.1755 620.621 76.5648 620.422 75.3429C620.422 75.3429 620.422 74.9356 620.422 74.5283C621.018 74.5283 621.416 74.732 621.416 74.732L626.986 76.1573L628.179 76.5648C628.179 76.5648 632.157 77.3794 632.555 77.583C633.351 77.9903 635.34 78.6013 635.34 78.6013H636.136L638.125 79.6195C635.539 79.6195 621.416 80.4341 621.416 80.4341L621.018 80.6377ZM599.735 73.7137C601.127 73.7137 603.514 74.3247 603.713 74.3247L611.669 76.1573C611.669 76.1573 614.653 77.1757 616.245 77.583C616.245 77.583 615.25 78.3976 614.852 78.8049C612.863 78.3976 600.53 76.3611 600.332 76.3611C600.332 75.9538 599.735 74.3247 599.735 74.3247V73.7137ZM613.261 74.5283C614.056 73.9174 615.25 73.7137 616.443 73.7137C616.443 73.7137 617.438 73.7135 618.433 74.1208L618.83 75.7502V76.3611H618.234L613.261 74.732V74.5283ZM629.771 67.808L632.953 73.3064L634.147 75.1391C633.55 75.5463 632.356 75.9536 632.158 76.1573L628.577 75.3429L627.782 74.9356C627.384 72.6953 625.593 62.3095 625.593 62.3095C625.593 62.3095 631.561 52.5344 631.561 52.3308L635.937 50.9052C635.937 50.9052 636.136 50.9052 636.335 50.9052C636.136 52.5344 635.539 54.7745 633.749 55.3855H632.953H632.555L632.356 55.9964L630.566 59.4584C628.975 61.9022 626.986 64.9569 629.97 67.808H629.771ZM639.119 70.659C639.119 69.0298 639.716 67.197 641.705 66.7897C644.092 66.3822 645.684 66.7897 646.678 67.6043C648.866 69.8444 648.269 71.6771 647.474 74.1208L645.286 75.1391C641.705 76.7682 638.722 77.9903 635.539 75.5465L634.942 73.5101C634.942 72.0845 635.738 72.0843 637.329 72.0843H639.318V71.27L639.119 70.659ZM646.877 75.9538L646.479 77.7867C646.081 78.194 645.485 78.3976 644.49 78.3976L643.297 78.8049V77.583C644.092 77.1757 645.087 76.7684 646.081 76.3611L647.076 75.9538H646.877ZM638.324 77.9903C639.517 77.9903 640.512 77.9903 641.705 77.9903V79.212H641.307C640.711 79.0083 639.517 78.3976 638.523 77.9903H638.324ZM635.141 76.7684C635.141 76.7684 635.141 76.9719 635.141 77.1755H634.346C634.346 76.9719 634.942 76.5648 634.942 76.5648C634.942 76.5648 634.942 76.5648 635.141 76.5648M632.555 81.4523C631.362 81.656 630.367 81.8596 630.367 81.8596L622.809 83.2849C622.809 82.8776 622.809 82.4706 622.411 82.0633L632.356 81.4523H632.555ZM681.09 85.118C681.886 84.7105 682.681 84.3034 683.278 83.8961C683.676 84.9143 684.67 87.1544 685.068 88.1727C684.67 88.1727 684.074 88.58 683.477 88.9872L683.079 88.1727C682.681 86.9506 682.085 85.7289 680.891 85.118M610.476 54.3672C610.476 54.3672 609.084 53.9598 608.288 53.7561C608.686 53.1452 609.68 51.7196 610.277 50.7014L613.858 51.1089C613.062 52.1271 612.067 53.349 611.272 54.3672H610.476ZM627.782 47.2396L630.566 47.8505C630.367 48.2578 630.168 48.4613 629.97 48.6649C629.572 48.4613 628.577 47.8505 627.582 47.2396H627.782ZM630.964 39.2974C631.76 39.7047 633.749 40.9263 634.743 41.5373C634.743 41.7409 634.147 42.5557 633.749 43.1667C633.351 42.5557 633.351 41.7411 632.555 41.1302C631.76 40.5192 630.964 40.3156 630.168 40.3156C630.367 39.9081 630.566 39.7045 630.765 39.5008M616.841 36.2427V35.6317C617.04 35.6317 627.582 22.3947 627.582 22.3947C627.582 22.3947 627.98 21.3764 628.179 20.5618L628.776 21.9874L630.168 21.3764L629.572 20.1543L631.163 18.1181C631.362 18.5254 631.561 19.34 631.561 20.3582C631.561 21.3764 631.561 21.5799 631.362 22.1908L629.97 24.4311L627.384 25.4494C626.986 25.8567 621.018 36.4461 621.018 36.4461L616.642 43.5738C615.847 43.981 614.852 43.981 614.057 43.5738H614.255C614.454 43.1665 614.852 42.1484 615.25 41.7411C615.847 41.7411 617.637 41.7411 617.637 41.7411L616.642 36.65L616.841 36.2427ZM613.659 39.7047C614.653 39.7047 615.25 38.8901 615.25 38.0755C615.25 37.2609 614.852 36.8536 614.454 36.65C614.653 36.65 615.051 36.65 615.25 36.65C615.25 37.4645 615.648 38.8901 615.847 39.7047C615.25 39.7047 614.255 39.7047 614.255 39.7047C614.255 39.7047 613.46 41.7411 613.261 41.9448L611.869 42.5555C610.078 41.7409 608.487 41.1302 606.697 41.1302C606.697 40.9265 607.293 39.2974 607.293 39.2974C608.885 37.4645 610.675 36.6498 612.664 36.4461C612.266 36.6498 612.067 37.057 611.869 37.4643C611.869 38.8899 612.465 39.5008 613.46 39.5008L613.659 39.7047ZM614.653 26.8749C615.25 27.4858 615.847 28.5039 616.046 29.115C616.046 29.115 615.648 30.3369 615.449 30.9478L614.852 30.1333L614.454 27.6895C614.454 27.2822 614.454 26.8749 614.653 26.6712V26.8749ZM612.863 28.3002V29.7259C611.471 29.7259 610.078 29.1148 608.885 27.282C608.885 26.8747 608.487 26.264 608.487 26.0603C610.078 26.264 611.869 27.0783 612.863 28.3002ZM612.863 31.3549C612.266 31.3549 611.67 31.3549 610.874 31.3549C610.874 31.3549 610.874 30.9478 610.874 30.7442C611.471 30.9478 612.266 31.1515 612.863 31.1515M607.691 28.5041C608.089 28.9114 609.283 30.133 609.283 30.3367C609.283 30.3367 609.283 30.3369 609.283 30.7442C609.283 31.1515 609.283 31.3551 609.283 31.5588C609.084 31.5588 608.885 31.5588 608.686 31.5588C608.089 30.9478 607.492 30.9478 607.095 30.9478L606.697 30.1333L606.1 29.3185C606.1 28.9112 606.1 28.5039 606.1 28.3002C606.498 28.3002 607.294 28.3004 607.89 28.5041H607.691ZM604.907 30.5405L605.304 31.1515L606.1 32.9843H605.702H604.907C604.509 32.9843 604.509 32.9843 604.111 32.7807C603.912 32.7807 603.713 32.5768 603.315 32.3732L602.52 31.7624C602.321 31.1515 602.122 30.5405 601.923 30.1333C602.719 30.1333 603.912 30.3369 604.907 30.5405ZM601.923 33.188L602.918 33.7989C603.713 34.2062 604.111 34.4098 604.31 35.0208C604.111 35.0208 602.917 35.0208 602.52 35.0208C601.923 34.6135 601.127 34.2062 600.729 34.0025C600.729 33.5952 600.332 33.3916 600.133 33.188C600.531 33.188 601.326 33.188 601.923 33.188ZM602.718 37.8718C602.718 37.8718 602.718 37.8718 602.718 38.0755H602.52C602.52 38.0755 602.719 37.8718 602.918 37.6682L602.718 37.8718ZM599.735 35.4279C600.331 35.6315 601.525 36.4463 601.724 36.65C601.326 36.65 600.729 37.0572 600.729 37.0572C600.729 37.0572 600.332 37.0572 600.133 37.0572L597.945 36.039C597.945 36.039 597.945 36.039 597.945 35.8354C598.541 35.8354 599.337 35.6315 599.934 35.4279H599.735ZM602.122 38.8901C601.525 39.9083 600.928 40.7227 600.133 41.3338L599.337 40.1119L602.321 38.8901H602.122ZM597.149 37.4643C597.547 37.4643 598.342 38.0753 599.138 38.4826C598.74 38.4826 598.144 38.8901 598.144 38.8901L595.956 38.6864C595.757 38.2791 595.359 38.0755 595.16 38.0755C595.16 38.0755 596.154 37.8718 597.149 37.6682V37.4643ZM594.563 40.519L595.558 40.1119C595.955 40.1119 597.149 40.3154 597.547 40.519C597.547 40.7227 597.945 41.13 598.144 41.5373C596.751 42.1482 594.961 41.5375 593.568 41.3338L594.762 40.7229L594.563 40.519ZM596.751 43.3703C595.955 43.7776 595.16 44.1847 594.364 44.3885V42.963C594.961 42.963 595.756 43.1667 596.751 43.1667V43.3703ZM587.999 48.6649C588.198 48.4613 588.596 48.054 588.994 47.6467C588.994 47.6467 589.391 47.6467 589.59 47.6467C589.192 48.054 588.596 48.2576 587.999 48.4615V48.6649ZM590.784 46.2214C590.784 46.2214 589.59 46.2214 588.994 46.0177C588.397 45.4068 587.601 44.5922 587.203 43.9812C587.203 43.9812 587.203 43.9812 587.402 43.9812C588.397 45.2031 589.59 46.0175 590.784 46.425V46.2214ZM589.193 43.1667C589.59 43.1667 590.187 43.1667 590.187 43.1667H591.182C591.778 43.1667 592.176 43.1667 592.574 43.1667V44.7958C592.574 44.7958 592.574 44.7958 592.375 44.7958C591.182 44.7958 590.187 43.9812 589.193 43.1667ZM600.133 45.4068H598.74L594.563 46.2214C593.966 46.8323 593.568 47.6467 593.568 48.4615C593.568 49.2761 593.966 49.8868 594.364 50.498L592.972 50.2943C592.972 49.887 592.773 48.8688 592.773 48.8688L592.375 47.6467L592.972 46.8323C594.762 46.6287 596.95 45.4068 599.138 44.1849L601.326 42.963C603.315 41.3338 604.31 39.501 605.105 37.6682L606.896 34.4096C607.89 34.4096 608.686 34.0025 609.084 33.188C609.084 33.188 613.858 32.9843 615.449 32.7807V33.5952L615.648 35.0208C615.648 35.0208 615.648 35.0206 615.648 35.2244C612.266 34.4096 608.885 35.6315 606.498 38.4826L605.702 40.7229V41.5373C604.31 41.7409 603.116 42.1484 601.724 42.963C601.127 43.574 600.53 44.3883 600.53 45.6102L600.133 45.4068ZM601.923 46.2214V45.2031C601.923 44.7958 602.122 44.3885 602.52 43.9812C606.1 41.9448 608.288 42.5557 611.869 43.9812H612.266C613.46 44.5922 615.648 45.8139 617.836 44.592L623.405 43.5738C624.798 42.7592 626.19 41.9446 627.582 41.5373H627.384C627.384 41.7409 629.572 41.1302 629.572 41.1302C630.168 41.1302 631.163 41.1302 631.959 41.9448C632.754 42.5557 633.152 43.3703 633.152 43.9812C632.754 44.7958 632.356 45.4068 631.959 46.0177L628.378 45.4068H626.588L624.599 44.9995C624.002 44.9995 619.825 47.6469 619.825 47.8505L618.234 48.4615L615.25 49.4797L610.078 48.8688H609.283C609.283 48.6651 606.697 48.0542 606.697 48.0542V49.6832C606.697 49.6832 608.487 50.0907 608.686 50.0907C607.89 51.3125 605.901 54.5709 605.901 54.5709H606.697L610.476 55.7926C607.293 60.4765 604.708 65.7713 603.315 72.0843L599.934 71.6772C601.724 63.9387 601.923 56.4037 601.923 46.0177V46.2214ZM590.983 71.6772L593.966 72.4918L593.568 72.8991L592.574 73.9174C591.778 73.9174 591.181 73.5101 590.784 72.2882V71.8809L590.983 71.6772ZM586.01 74.732L586.408 73.3064C586.408 72.2882 586.805 71.4734 587.8 71.0661C587.8 71.0661 588.397 71.0663 588.994 71.4736L589.391 72.6955C589.59 73.5101 590.386 75.5465 592.773 75.5465L594.961 73.9174L595.956 72.8991C596.552 72.8991 597.547 73.3064 598.144 73.3064V74.1208L599.735 77.3794C600.133 77.583 613.46 79.8229 614.653 80.0268C614.653 80.4341 615.051 80.8412 615.25 81.045L615.847 81.656L620.82 82.2667C621.217 82.674 621.416 83.2851 621.416 83.6924C621.416 84.0997 621.416 84.0995 621.416 84.3032C620.819 84.3032 620.223 84.507 620.223 84.507C619.626 84.7107 619.427 84.7107 619.228 84.507C619.228 84.507 607.492 82.6742 605.901 82.4705L592.176 79.6195L585.811 78.3976C586.209 77.3794 586.408 76.1575 586.209 74.732H586.01ZM594.563 82.2667C594.563 82.2667 593.569 81.656 593.171 81.656C595.956 82.2669 601.923 83.4888 603.713 83.8961C603.116 83.8961 602.718 84.5068 602.321 85.118L600.133 86.3396C600.133 86.3396 599.337 86.3396 597.945 86.3396L596.552 84.7107L594.563 82.2667ZM596.154 86.5435C593.767 86.7471 590.983 86.9506 589.59 87.1544L590.585 85.118L591.778 84.0997L592.972 83.0815L593.767 83.6924L595.16 85.5253L596.154 86.5435ZM583.623 75.1391H584.419C584.419 76.3609 584.419 77.3792 583.623 78.1938C583.424 78.1938 583.225 78.1938 583.026 78.1938C582.628 78.1938 582.429 77.5828 582.231 77.1755C582.231 77.1755 581.833 75.7502 581.634 74.732C582.429 74.732 583.424 75.1391 583.424 75.1391M579.048 78.6013C577.656 77.583 577.059 76.9719 577.457 76.1573C577.854 75.1391 579.247 74.121 579.843 74.3247C579.843 74.3247 579.844 74.3247 580.241 74.3247L581.037 77.583C581.236 78.6013 581.833 79.4158 582.827 79.8231C583.623 80.0268 584.419 79.8231 585.015 79.6195C585.015 79.8231 591.977 81.2485 591.977 81.2485C591.977 81.2485 592.574 81.2487 593.37 81.4523L590.983 82.8778L589.988 83.6924L585.413 83.2849H581.435C581.435 82.8776 581.435 82.6742 581.435 82.6742V82.2667C581.634 82.2667 581.435 81.656 581.435 81.656L578.849 78.6013H579.048ZM573.081 82.4705C573.876 82.0633 575.07 82.4703 576.86 83.2849L579.843 84.507C579.843 84.507 587.402 85.118 588.596 85.118C588.198 85.7289 587.8 86.7469 587.601 87.1544L575.666 88.1727L574.473 86.5435C573.279 84.7107 572.484 83.6922 572.882 82.2667L573.081 82.4705ZM575.468 95.5044C575.468 95.5044 573.279 96.7263 572.484 97.3372C572.484 97.3372 572.086 97.1335 572.086 96.9299C572.086 96.9299 572.882 95.5044 573.478 94.6898L576.462 95.0971C576.064 95.3007 575.666 95.5044 575.666 95.5044H575.468ZM604.907 94.4861L599.337 95.0971C599.735 95.0971 584.816 93.8752 584.816 93.8752L579.645 93.2643C579.645 93.2643 579.247 93.2642 578.849 93.6715H577.258C577.258 93.4679 574.672 93.0602 574.672 93.0602H573.478C571.29 92.4492 569.301 93.6715 567.71 94.6898C566.119 95.708 565.323 95.9117 564.527 95.708C565.721 94.4861 569.898 90.0053 570.495 89.3944C570.893 89.3944 571.688 89.5982 571.688 89.5982L575.865 90.0055H576.263H577.655L589.59 88.9872L598.144 88.1727H601.127C601.326 87.7652 602.917 86.9508 603.514 86.5435C604.111 86.9508 611.272 90.6164 614.852 92.6529C612.266 93.0602 607.293 94.0788 605.304 94.4861H604.907ZM605.105 96.1153L616.046 94.0788C616.046 94.0788 616.443 94.0788 616.642 94.0788C617.239 95.9117 618.631 97.7445 620.223 97.7445C622.013 97.7445 625.394 97.3372 627.384 95.5044C627.185 95.5044 634.147 92.042 634.147 92.042C634.147 92.042 640.114 88.9873 640.711 88.58C644.888 90.8201 649.264 93.0602 653.441 94.0788C660.801 95.5044 665.575 93.06 670.548 90.4126C670.548 90.4126 672.537 89.3945 673.73 88.7836C673.73 88.9873 675.719 92.8566 676.515 94.2825C672.935 97.9481 670.548 102.428 669.155 105.89C668.558 107.316 668.558 108.741 669.155 109.963L653.839 110.574H642.302L642.899 111.592L643.695 113.018C643.098 113.018 642.7 113.018 642.7 113.018C639.716 113.018 636.733 113.018 633.948 114.444H633.55V115.258C633.55 117.295 634.942 118.313 636.136 119.331L637.926 121.368C637.926 121.978 638.125 122.589 638.125 123.2C638.125 123.811 638.125 124.219 637.727 124.83C635.738 124.83 634.147 125.237 633.948 125.237C633.351 124.83 632.356 124.015 632.356 124.015C630.765 123.404 628.776 124.015 627.582 124.422C627.582 124.422 627.185 124.83 626.787 125.033C616.046 119.127 607.492 107.723 605.105 96.1153ZM672.736 111.185C674.128 111.185 675.918 110.778 675.918 110.778C675.918 110.778 679.101 110.371 681.289 109.963C680.493 110.574 679.499 111.389 678.305 112.203C673.133 112.203 667.763 116.073 662.392 119.942L658.414 122.793L644.689 124.015C644.689 124.015 642.103 124.219 639.517 124.626C639.517 124.015 639.716 123.608 639.716 123.2C639.716 122.386 639.716 121.571 639.318 120.757L636.931 118.109C636.136 117.498 635.539 116.684 635.141 115.869C636.136 115.462 637.329 115.054 638.523 115.054L638.921 115.665C640.114 117.702 641.109 119.331 642.302 119.942C643.495 119.942 644.689 119.942 645.684 119.738L650.855 119.331C658.613 117.906 665.177 115.869 672.935 112V111.592L672.736 111.185ZM640.313 114.647C641.109 114.647 641.705 114.647 642.501 114.647H644.291C645.286 116.073 645.485 117.091 645.087 117.906C644.291 117.906 643.297 117.906 642.501 118.109C642.103 117.906 640.91 115.462 640.313 114.647ZM646.678 117.702C646.877 116.276 646.28 115.054 645.485 113.629C645.485 112.814 645.087 112.407 644.888 112C646.877 112 653.839 112 653.839 112L669.354 111.389C661.795 114.851 655.032 116.684 646.877 117.702H646.678ZM631.959 131.754L627.782 131.346C626.986 130.735 626.588 130.124 626.588 129.106C626.588 128.088 626.588 128.495 626.588 128.292C626.588 128.292 626.986 127.07 627.185 126.459L628.179 125.848C628.975 125.44 630.367 125.237 631.561 125.44L632.953 126.459H633.55C633.55 126.662 636.533 126.459 636.533 126.459H638.523L644.49 125.644L657.022 124.422C655.629 126.662 654.038 126.662 652.049 126.459L647.275 127.273C646.479 127.273 645.684 127.477 644.888 127.884L643.495 127.477C643.297 127.477 635.738 127.477 635.738 127.477H635.34L634.942 128.088L633.152 130.328L631.959 131.346V131.754ZM634.147 131.957C634.147 131.957 635.34 130.124 636.136 129.31C636.534 129.31 640.711 129.31 642.501 129.31C641.108 130.124 639.517 131.143 638.125 132.568L634.147 132.161V131.957ZM661.597 137.863L660.801 138.474L657.817 140.918C654.834 143.361 651.85 145.805 648.866 146.62C643.098 147.027 637.528 150.082 633.55 154.562C632.953 154.562 627.582 153.951 626.588 153.747C628.975 152.322 634.147 149.471 634.147 149.471L639.716 146.62L644.092 143.158L648.866 139.085L649.662 138.678C655.828 134.605 661.994 130.532 667.962 127.477C668.36 129.513 669.354 131.346 670.747 132.772L661.597 138.067V137.863ZM676.714 125.033V124.219L677.311 124.83L678.703 124.015L683.278 121.775L688.251 119.331C688.847 119.331 689.444 119.127 690.041 118.924L688.848 120.349L679.698 125.644C679.3 126.051 678.106 130.328 678.106 130.328H678.504L678.106 130.939C678.106 130.939 677.112 131.957 675.719 133.383L672.935 132.161C671.741 130.939 669.752 128.699 669.752 126.255C669.951 124.626 670.548 122.589 671.94 121.775C671.94 121.775 672.338 121.775 672.537 121.775L673.133 122.386C674.327 123.608 675.52 125.033 677.311 125.237L676.714 125.033ZM674.327 121.571C674.924 121.571 676.714 121.164 678.106 120.96C677.907 121.571 677.51 122.386 677.51 122.793L676.714 123.2C675.918 122.997 675.122 122.182 674.327 121.368M679.499 121.775C679.499 121.368 679.698 120.96 679.896 120.757C680.095 120.757 680.294 120.757 680.294 120.757C681.09 120.757 681.886 120.553 682.681 120.349L679.698 121.775H679.499ZM685.665 123.608C685.665 123.608 685.665 123.811 685.466 124.015L680.493 128.292L679.896 128.699C680.095 127.681 680.493 126.459 680.493 126.459C680.493 126.459 683.278 125.033 685.665 123.608ZM663.387 145.805C663.387 145.602 662.989 145.398 662.989 144.991C662.989 144.583 662.989 144.176 662.989 143.769V140.918C662.989 140.918 662.392 139.899 662.193 139.288C662.193 139.288 671.144 133.994 671.94 133.79C672.338 133.79 673.332 134.401 673.929 134.808C671.94 136.845 669.553 139.288 668.359 140.51C666.569 141.325 665.177 143.158 664.58 145.602C663.984 145.805 663.586 146.009 663.188 146.212L663.387 145.805ZM667.365 144.38C667.365 144.38 667.166 144.38 666.768 144.583C667.365 143.361 668.161 142.343 669.155 141.936H669.354C669.951 142.547 670.349 142.75 670.548 143.158L667.365 144.583V144.38ZM673.929 144.787V146.009C673.929 146.009 674.327 148.656 674.327 149.674C673.73 150.082 673.332 150.082 672.935 150.082C672.338 149.064 672.338 147.027 672.139 144.991V143.565V143.361C672.139 143.361 672.139 143.361 672.139 143.158V142.343C671.741 141.529 671.144 141.121 670.548 140.714C671.741 139.492 679.101 131.957 679.101 131.957L681.886 129.31L684.074 127.477C682.084 130.532 675.918 140.51 675.123 141.732C673.73 142.547 674.128 143.972 674.327 144.787H673.929ZM675.918 148.656V146.212C675.918 146.416 675.521 144.38 675.521 144.38C675.521 143.769 675.521 143.565 675.521 143.361C676.316 143.972 676.515 145.194 676.714 147.027V147.842L675.918 148.453V148.656ZM684.472 139.085L683.875 140.51C682.482 141.732 682.283 143.361 682.88 145.398L683.676 146.823C684.273 148.045 684.67 148.656 684.074 149.674C684.074 150.285 683.676 150.489 683.278 150.693C682.482 150.896 681.289 150.693 680.891 150.082C680.891 150.082 679.101 148.453 678.504 147.842V146.823C678.106 144.991 677.708 143.361 676.316 142.343C676.913 141.325 685.864 127.273 685.864 127.273C686.461 125.033 687.654 123.608 689.046 122.182L690.837 120.349L693.621 117.295C693.621 117.295 693.621 117.702 693.621 117.906C689.444 126.051 686.659 132.568 684.272 139.085H684.472ZM690.041 152.526C690.041 152.526 688.45 153.544 687.057 154.358C687.455 153.34 687.654 152.526 688.251 151.507C689.245 150.082 690.24 148.453 690.24 146.62C690.24 146.62 690.24 146.009 690.24 145.602L692.627 146.009V147.842C692.627 148.453 692.627 148.86 692.627 149.471C692.627 150.896 692.229 151.915 690.041 152.729V152.526ZM696.207 135.419L695.611 138.27C695.611 138.474 696.008 140.51 696.008 140.51C696.008 141.325 696.207 141.936 696.207 142.343C696.207 142.75 696.207 143.361 695.611 143.769L693.025 144.176L689.444 143.565C688.45 141.936 687.057 140.918 685.466 140.307V139.696C686.66 139.492 687.057 138.678 687.455 137.863L688.251 136.845C688.45 136.641 692.229 131.957 692.229 131.957C694.019 129.921 695.809 127.884 697.003 125.644C697.003 126.051 697.003 126.662 697.003 127.07C697.003 129.717 696.406 132.568 696.008 135.216L696.207 135.419ZM696.406 122.182C696.406 122.386 696.406 122.793 696.605 122.997C695.412 125.848 693.224 128.495 691.036 130.939C691.036 130.939 687.853 135.012 687.455 135.623C689.444 130.328 691.831 125.033 695.213 118.516L694.218 118.109H695.213V117.498V116.684L697.202 115.665H697.997C697.401 118.109 696.406 122.589 696.406 122.589V122.182ZM700.385 111.185L698.594 113.018L696.804 113.833L695.611 114.647L694.417 115.258L692.627 116.073C688.649 117.906 684.471 118.516 679.896 118.924L673.929 119.942H672.935H671.343C668.757 120.96 667.962 123.608 667.763 125.44C661.597 128.495 655.033 132.772 648.667 137.048L648.071 137.456L641.705 138.27C636.136 138.678 628.975 139.085 624.798 144.991C623.803 146.416 622.61 147.231 621.416 147.638C621.814 144.787 623.803 141.121 626.588 139.696C628.776 137.863 630.765 137.456 633.152 137.048L638.125 135.623L638.523 135.216C638.722 135.216 639.318 134.605 639.318 133.994C642.302 131.346 645.684 129.513 648.071 129.31C648.269 129.31 652.446 128.699 652.446 128.699C654.833 128.699 657.618 128.902 659.408 124.219C659.011 124.626 663.387 121.571 663.387 121.571C668.558 117.906 673.73 114.036 678.902 114.036C681.687 112.407 683.278 111.185 684.272 109.76C684.869 109.556 685.665 109.149 685.665 109.149L684.869 107.723L683.278 108.538L675.719 109.556C675.719 109.556 671.741 110.167 671.542 110.167L670.945 109.556C670.747 109.149 670.548 108.741 670.548 108.13C670.548 107.52 670.548 107.112 670.747 106.705C672.537 102.225 675.719 96.1153 681.488 92.4491L682.084 97.1336C681.289 97.7445 680.493 97.7445 679.3 97.7445H676.913V98.3554L674.924 106.094L674.526 106.705L674.128 108.13L675.521 107.316H675.719L676.117 106.909L679.3 105.076C683.676 102.428 688.052 99.5773 691.831 102.021H692.229C692.229 102.225 692.229 102.225 692.229 102.225L692.627 102.632C693.025 102.632 693.82 103.039 694.019 103.039L696.406 104.465C697.401 106.705 699.39 108.945 701.976 109.556L700.385 111.389V111.185ZM707.744 103.243C707.346 105.076 705.755 107.52 703.368 107.723C700.981 107.723 698.992 105.483 698.196 103.447V103.039C698.594 101.817 699.191 100.188 700.185 99.5773L700.782 99.17L698.594 94.6898C698.594 94.2825 698.793 93.2642 698.992 92.8565C701.777 92.042 703.965 91.8383 706.949 93.2643L709.136 98.3554C708.54 99.781 708.142 101.206 708.142 102.836M717.69 82.6742C714.109 82.6742 713.513 85.7289 712.717 88.7836L711.921 91.8383L710.33 95.5044C710.33 95.708 710.131 96.1153 709.932 96.5226L708.54 93.0602L710.927 89.1909L711.722 87.969L712.916 85.5253C713.91 83.4888 715.104 81.4523 714.706 79.6195C714.905 79.0085 715.701 77.3794 715.701 77.3794C715.701 77.3794 716.099 77.3794 716.298 76.9721V77.1755L715.9 78.6013H716.695L716.894 79.6195L719.679 78.6013V79.212C719.679 80.6375 719.48 82.0633 717.889 83.0815L717.69 82.6742ZM720.276 77.1755V76.3611C720.077 76.3611 717.491 77.3794 717.491 77.3794V76.9721C717.491 76.5646 717.093 75.1391 717.093 75.1391L716.695 73.9174L713.91 75.9538C713.91 75.9538 713.712 76.3609 713.314 76.9721C712.916 75.5466 712.319 73.7137 712.12 72.8991C713.314 72.4916 720.077 70.4552 721.27 70.0479C721.668 71.0661 722.464 74.1208 722.861 75.1391C721.867 75.3427 719.878 76.1573 719.878 76.1573V76.9721H720.077L720.276 77.1755ZM615.847 196.513C616.245 196.106 616.642 195.699 617.04 195.495C616.642 195.902 616.245 196.106 615.847 196.513ZM543.045 108.334H542.647C542.647 108.538 542.846 108.334 543.045 108.334ZM578.053 161.69V161.486C578.053 161.486 578.053 161.486 578.053 161.69ZM540.857 74.5283C540.857 74.5283 540.658 74.5283 540.459 74.5283C540.459 74.5283 540.459 74.732 540.857 74.5283ZM729.625 146.823C729.823 146.416 730.022 145.805 730.221 145.398C729.824 146.009 729.625 146.416 729.227 147.027H729.426L729.625 146.823Z" fill="url(#paint15_radial_48_22)"/>
<path d="M187.972 26.2705V29.5288H170.07V27.0851L179.817 16.9027C182.204 14.2553 184.193 12.0152 184.193 8.96047C184.193 5.90576 182.005 3.25835 178.822 3.25835C175.639 3.25835 174.048 4.68388 172.656 7.33129L170.07 5.49847C171.661 2.24011 174.446 0 179.021 0C183.596 0 187.773 3.25835 187.773 8.55317C187.773 13.848 186.381 14.6626 182.8 18.3282L175.44 26.0668H188.171L187.972 26.2705Z" fill="black"/>
<path d="M206.079 13.848C209.262 14.8662 211.449 17.7173 211.449 21.5866C211.449 25.4559 207.073 29.9361 201.305 29.9361C195.537 29.9361 191.359 26.4741 191.359 21.5866C191.359 16.6991 193.746 14.8662 196.73 13.848C194.741 13.0334 192.752 10.7933 192.752 7.53494C192.752 2.85105 196.531 0 201.305 0C206.079 0 210.057 3.0547 210.057 7.53494C210.057 12.0152 208.068 13.0334 206.079 13.6443V13.848ZM207.869 21.1793C207.869 17.9209 205.283 15.4772 201.305 15.4772C197.327 15.4772 194.94 17.7173 194.94 21.1793C194.94 24.6413 197.725 26.6778 201.305 26.6778C204.885 26.6778 207.869 24.234 207.869 21.1793ZM201.504 3.25835C198.321 3.25835 196.332 5.29482 196.332 7.73859C196.332 10.1824 198.52 12.2188 201.504 12.2188C204.488 12.2188 206.875 10.5896 206.875 7.73859C206.875 4.88753 204.686 3.25835 201.504 3.25835Z" fill="black"/>
<path d="M184.591 157.212C176.237 157.212 169.076 151.917 169.076 141.735C169.076 131.552 174.645 126.054 184.591 126.054C194.536 126.054 193.343 127.887 196.725 131.959L191.553 136.44C190.16 134.607 187.575 132.978 184.591 132.978C180.215 132.978 176.435 136.236 176.435 141.735C176.435 147.233 179.618 150.288 184.591 150.288C189.564 150.288 189.961 148.862 191.553 146.826L196.725 151.306C194.139 154.564 189.961 157.008 184.591 157.008V157.212Z" fill="black"/>
<path d="M221.791 4.06649H213.039V0.604492H234.522V4.06649H225.571V29.5224H221.99V4.06649H221.791Z" fill="black"/>
<path d="M239.286 0.811523H242.866V13.6413H258.381V0.811523H261.962V29.7294H258.381V17.1033H242.866V29.7294H239.286V0.811523Z" fill="black"/>
<path d="M169.869 60.897V43.1797H176.831V60.286C176.831 63.9517 178.621 67.2101 182.003 67.2101C185.384 67.2101 187.373 64.7663 187.373 60.286V43.1797H194.335V60.897C194.335 68.8392 189.959 73.9304 182.003 73.9304C174.046 73.9304 169.869 69.2465 169.869 60.897Z" fill="black"/>
<path d="M224.377 43.1797V73.5231H217.216L206.077 55.3985V73.5231H199.115V43.1797H206.077L217.415 61.7116V43.1797H224.377Z" fill="black"/>
<path d="M229.543 43.1797H236.505V73.5231H229.543V43.1797Z" fill="black"/>
<path d="M267.332 43.1797L256.392 73.5231H250.226L239.286 43.1797H246.844L253.21 63.3408L259.575 43.1797H267.133H267.332Z" fill="black"/>
<path d="M269.914 43.1763H289.209V49.4894H276.677V55.1915H286.623V61.5045H276.677V67.003H290.004V73.3161H269.914V42.9727V43.1763Z" fill="black"/>
<path d="M309.307 73.5231L303.339 63.748H300.953V73.5231H294.189V43.1797H305.726C313.086 43.1797 316.269 47.6599 316.269 53.5657C316.269 59.4715 314.28 61.1006 310.699 62.7298L317.661 73.5231H309.506H309.307ZM300.754 57.435H303.936C306.92 57.435 308.71 56.0095 308.71 53.362C308.71 50.7146 307.119 49.2891 303.936 49.2891H300.555V57.2313L300.754 57.435Z" fill="black"/>
<path d="M318.647 69.0361L322.825 63.7413C325.013 66.185 327.797 67.4069 329.787 67.4069C331.776 67.4069 333.168 66.185 333.168 64.9632C333.168 63.7413 332.173 62.5194 328.792 61.5012C324.217 59.872 319.841 57.8355 319.841 51.7261C319.841 45.6167 324.217 42.7656 329.588 42.7656C333.367 42.7656 336.947 44.1912 339.931 46.6349L335.953 51.9297C333.367 49.8933 331.577 49.0787 329.787 49.0787C327.996 49.0787 327.201 49.8933 327.002 51.5225C327.002 52.948 327.996 53.5589 331.378 54.7808C336.549 56.8173 340.528 58.2428 340.528 64.1486C340.528 70.0543 334.56 73.9236 329.787 73.9236C325.013 73.9236 322.029 72.2945 318.846 69.0361H318.647Z" fill="black"/>
<path d="M360.427 68.0246H350.084L348.293 73.5231H340.934L351.675 43.1797H358.438L369.378 73.5231H362.018L360.228 68.0246H360.427ZM358.637 62.1189L355.454 51.9365L352.272 62.1189H358.836H358.637Z" fill="black"/>
<path d="M372.169 43.1763H379.131V67.003H391.463V73.3161H372.169V42.9727V43.1763Z" fill="black"/>
<path d="M169.869 84.7173H181.008C188.368 84.7173 191.551 89.1976 191.551 95.1035C191.551 101.009 187.174 105.082 180.411 105.082H176.632V114.857H169.869V84.5137V84.7173ZM179.616 98.9728C182.6 98.9728 184.39 97.5473 184.39 94.8999C184.39 92.2523 182.798 90.8267 179.815 90.8267H176.831V98.7692H179.815L179.616 98.9728Z" fill="black"/>
<path d="M193.939 99.9911C193.939 90.8267 200.106 84.5137 209.256 84.5137C218.406 84.5137 224.373 90.8267 224.373 99.9911C224.373 109.155 218.008 115.468 209.256 115.468C200.504 115.468 193.939 108.952 193.939 99.9911ZM217.013 99.9911C217.013 94.8999 213.632 91.0304 209.057 91.0304C204.482 91.0304 201.1 94.8999 201.1 99.9911C201.1 105.082 204.283 108.952 209.057 108.952C213.831 108.952 217.013 105.082 217.013 99.9911Z" fill="black"/>
<path d="M226.356 110.784L230.534 105.49C232.722 107.933 235.506 109.155 237.495 109.155C239.485 109.155 240.877 107.933 240.877 106.711C240.877 105.49 239.882 104.268 236.501 103.249C231.926 101.62 227.55 99.5838 227.55 93.4743C227.55 87.3647 231.926 84.5137 237.297 84.5137C241.076 84.5137 244.656 85.9392 247.64 88.383L243.662 93.678C241.076 91.6413 239.286 90.8267 237.495 90.8267C235.705 90.8267 234.91 91.6413 234.711 93.2707C234.711 94.6962 235.705 95.3072 239.087 96.5291C244.259 98.5655 248.237 99.9911 248.237 105.897C248.237 111.803 242.269 115.672 237.495 115.672C232.722 115.672 229.738 114.043 226.555 110.784H226.356Z" fill="black"/>
<path d="M257.392 91.2398H249.635V84.9268H272.112V91.2398H264.354V115.067H257.392V91.2398Z" fill="black"/>
<path d="M289.02 109.772H278.676L276.886 115.27H269.526L280.268 84.9268H287.031L297.971 115.27H290.611L288.821 109.772H289.02ZM287.031 103.662L283.848 93.4799L280.665 103.662H287.23H287.031Z" fill="black"/>
<path d="M300.561 84.9243H307.522V108.75H319.855V115.063H300.561V84.7207V84.9243Z" fill="black"/>
<path d="M197.918 141.739C197.918 132.575 204.283 126.262 213.433 126.262C222.583 126.262 228.948 132.575 228.948 141.739C228.948 150.903 222.384 157.216 213.433 157.216C204.482 157.216 197.918 150.699 197.918 141.739ZM221.589 141.739C221.589 136.648 218.207 132.778 213.433 132.778C208.659 132.778 205.278 136.648 205.278 141.739C205.278 146.83 208.659 150.699 213.433 150.699C218.207 150.699 221.589 146.83 221.589 141.739Z" fill="black"/>
<path d="M258.584 126.675V157.018H251.224L239.687 138.894V157.018H232.526V126.675H239.687L251.224 145.207V126.675H258.385H258.584Z" fill="black"/>
<path d="M262.767 141.735C262.767 132.978 268.337 126.054 278.083 126.054C287.83 126.054 287.233 127.887 290.217 131.552L285.244 135.829C283.653 134.2 281.266 132.774 278.083 132.774C274.901 132.774 270.326 136.032 270.326 141.735C270.326 147.437 273.309 150.695 278.481 150.695C283.653 150.695 281.863 150.288 283.653 149.269V145.807H277.884V139.698H290.416V153.342C287.631 155.379 283.056 157.008 278.481 157.008C269.729 157.008 262.966 151.51 262.966 141.531L262.767 141.735Z" fill="black"/>
<path d="M310.508 156.81L304.342 147.035H301.756V156.81H294.794V126.467H306.53C313.89 126.467 317.271 130.947 317.271 136.853C317.271 142.759 315.083 144.388 311.701 146.017L318.862 156.81H310.508ZM301.756 140.926H304.938C307.922 140.926 309.911 139.5 309.911 136.853C309.911 134.205 308.32 132.78 305.137 132.78H301.756V140.722V140.926Z" fill="black"/>
<path d="M321.834 126.67H341.526V132.983H328.796V138.686H338.94V144.999H328.796V150.497H342.521V156.81H321.834V126.467V126.67Z" fill="black"/>
<path d="M345.704 152.532L349.881 147.237C352.268 149.681 354.854 150.903 357.042 150.903C359.23 150.903 360.423 149.681 360.423 148.459C360.423 147.237 359.429 146.015 355.848 144.997C351.273 143.368 346.698 141.332 346.698 135.222C346.698 129.113 351.074 126.262 356.644 126.262C360.622 126.262 364.202 127.687 367.186 130.131L363.208 135.426C360.622 133.389 358.633 132.575 357.042 132.575C355.45 132.575 354.257 133.389 354.257 135.019C354.257 136.444 355.251 137.055 358.633 138.277C364.004 140.313 367.982 141.739 367.982 147.645C367.982 153.55 361.816 157.42 357.042 157.42C352.268 157.42 349.085 155.791 345.902 152.532H345.704Z" fill="black"/>
<path d="M369.386 152.532L373.563 147.237C375.95 149.681 378.536 150.903 380.724 150.903C382.912 150.903 384.106 149.681 384.106 148.459C384.106 147.237 383.111 146.015 379.531 144.997C374.956 143.368 370.381 141.332 370.381 135.222C370.381 129.113 374.757 126.262 380.326 126.262C384.305 126.262 387.885 127.687 390.869 130.131L386.89 135.426C384.305 133.389 382.316 132.575 380.724 132.575C379.133 132.575 377.939 133.389 377.939 135.019C377.939 136.444 378.934 137.055 382.316 138.277C387.686 140.313 391.664 141.739 391.664 147.645C391.664 153.55 385.498 157.42 380.724 157.42C375.95 157.42 372.768 155.791 369.585 152.532H369.386Z" fill="black"/>
<path d="M169.865 170.459H178.617C187.966 170.459 193.933 176.772 193.933 185.733C193.933 194.693 188.165 200.802 178.617 200.802H169.666V170.459H169.865ZM178.617 197.34C185.778 197.34 190.353 192.453 190.353 185.529C190.353 178.605 185.778 173.717 178.816 173.717H173.445V197.34H178.617Z" fill="black"/>
<path d="M211.044 201.006C204.281 201.006 199.706 196.322 199.706 188.38V170.459H203.286V188.176C203.286 193.675 206.27 197.544 211.044 197.544C215.818 197.544 219.001 194.082 219.001 188.176V170.459H222.581V188.38C222.581 196.119 218.205 201.006 211.044 201.006Z" fill="black"/>
<path d="M243.86 184.71C247.242 185.525 250.027 187.968 250.027 192.449C250.027 196.929 246.844 200.594 240.081 200.594H229.34V170.251H239.087C244.855 170.251 248.634 172.491 248.634 177.582C248.634 182.673 247.043 183.284 243.86 184.506V184.71ZM233.119 183.488H239.087C241.871 183.488 244.855 182.266 244.855 178.601C244.855 174.935 243.065 173.917 238.291 173.917H232.92V183.488H233.119ZM239.285 197.336C243.463 197.336 246.446 195.707 246.446 192.245C246.446 188.783 244.059 186.746 239.484 186.746H233.119V197.336H239.285Z" fill="black"/>
<path d="M272.5 193.263H259.372L256.786 200.594H253.006L264.145 170.251H267.726L279.064 200.594H275.285L272.699 193.263H272.5ZM271.505 190.005L266.135 174.935L260.764 190.005H271.704H271.505Z" fill="black"/>
<path d="M283.838 170.459H287.418V200.802H283.838V170.459Z" fill="black"/>
<path d="M321.834 197.334V200.592H303.932V198.149L313.679 187.966C316.066 185.319 318.055 183.079 318.055 180.024C318.055 176.969 315.867 174.322 312.684 174.322C309.502 174.322 307.91 175.747 306.518 178.395L303.932 176.562C305.523 173.304 308.308 171.063 312.883 171.063C317.458 171.063 321.635 174.322 321.635 179.617C321.635 184.911 320.243 185.726 316.663 189.392L309.303 197.13H322.033L321.834 197.334Z" fill="black"/>
<path d="M325.812 186.136C325.812 177.379 329.791 171.27 336.554 171.27C343.317 171.27 347.295 176.564 347.295 186.136C347.295 195.707 343.317 201.002 336.554 201.002C329.791 201.002 325.812 195.707 325.812 186.136ZM343.715 186.136C343.715 178.601 340.731 174.528 336.554 174.528C332.377 174.528 329.393 179.008 329.393 186.136C329.393 193.263 332.377 197.744 336.554 197.744C340.731 197.744 343.715 193.263 343.715 186.136Z" fill="black"/>
<path d="M368.782 197.334V200.592H350.879V198.149L360.626 187.966C363.013 185.319 365.002 183.079 365.002 180.024C365.002 176.969 362.814 174.322 359.632 174.322C356.449 174.322 354.858 175.747 353.465 178.395L350.879 176.562C352.471 173.304 355.255 171.063 359.83 171.063C364.405 171.063 368.583 174.322 368.583 179.617C368.583 184.911 367.19 185.726 363.61 189.392L356.25 197.13H368.98L368.782 197.334Z" fill="black"/>
<path d="M382.109 182.067C387.081 182.067 391.259 185.529 391.259 191.435C391.259 197.341 386.882 201.006 381.313 201.006C375.743 201.006 373.754 199.174 371.765 196.119L374.351 194.082C375.743 196.322 378.13 197.748 380.915 197.748C383.7 197.748 387.678 195.101 387.678 191.435C387.678 187.769 384.496 185.326 381.114 185.326C377.733 185.326 377.335 185.733 376.141 186.955L374.152 186.344L374.948 171.478H390.065V174.736H378.329L377.931 182.882C379.523 182.271 381.114 182.067 382.307 182.067H382.109Z" fill="black"/>
<path d="M114.579 129.516C111.596 126.462 107.617 124.832 103.042 124.832C98.4675 124.832 101.849 124.832 101.252 124.832C98.0698 125.036 94.2904 126.462 90.511 130.534L70.4209 151.306L79.7698 160.878L99.8599 140.106C100.258 139.699 100.457 139.495 100.855 139.291C101.65 138.68 102.446 138.273 103.44 138.273C104.435 138.273 105.231 138.68 105.231 138.68C105.231 138.68 109.01 139.495 116.767 157.212L122.735 146.623C122.735 146.623 123.332 145.401 123.729 144.79C130.095 131.96 129.299 117.094 121.74 106.911C117.563 101.209 80.5654 63.9425 62.0666 45.6143H43.1699C67.4372 70.0519 107.419 110.373 111.198 115.261C114.182 119.334 115.375 124.629 114.579 130.127C114.579 130.127 114.579 130.127 114.381 130.127L114.579 129.516Z" fill="url(#paint16_radial_48_22)"/>
<path d="M0 140.926V160.272L47.5401 111.601L38.1912 102.029L0 140.926Z" fill="url(#paint17_radial_48_22)"/>
<path d="M0 0.811523V14.4559H133.868V79.4193C142.222 88.1761 143.615 90.2126 144.808 91.6381C145.604 92.6564 146.399 93.8776 147.195 95.0995V0.811523H0Z" fill="url(#paint18_radial_48_22)"/>
<path d="M14.1227 187.145L87.7203 111.592L0 21.9873V41.1301L69.0226 111.592L0 182.258V200.586V200.79L147.195 200.586V187.145H14.1227Z" fill="url(#paint19_radial_48_22)"/>
<defs>
<radialGradient id="paint0_radial_48_22" cx="0" cy="0" r="1" gradientUnits="userSpaceOnUse" gradientTransform="translate(722.204 123.214) rotate(-90) scale(48.9103 53.4449)">
<stop stop-color="#0073C0"/>
<stop offset="0.3" stop-color="#005C97"/>
<stop offset="0.6" stop-color="#004774"/>
<stop offset="0.8" stop-color="#003B5E"/>
<stop offset="1" stop-color="#003757"/>
</radialGradient>
<radialGradient id="paint1_radial_48_22" cx="0" cy="0" r="1" gradientUnits="userSpaceOnUse" gradientTransform="translate(746.775 66.0028) rotate(-90) scale(57.6666 28.5181)">
<stop stop-color="#0073C0"/>
<stop offset="0.3" stop-color="#005C97"/>
<stop offset="0.6" stop-color="#004774"/>
<stop offset="0.8" stop-color="#003B5E"/>
<stop offset="1" stop-color="#003757"/>
</radialGradient>
<radialGradient id="paint2_radial_48_22" cx="0" cy="0" r="1" gradientUnits="userSpaceOnUse" gradientTransform="translate(740.637 32.9064) rotate(-90) scale(58.9487 29.9967)">
<stop stop-color="#0073C0"/>
<stop offset="0.3" stop-color="#005C97"/>
<stop offset="0.6" stop-color="#004774"/>
<stop offset="0.8" stop-color="#003B5E"/>
<stop offset="1" stop-color="#003757"/>
</radialGradient>
<radialGradient id="paint3_radial_48_22" cx="0" cy="0" r="1" gradientUnits="userSpaceOnUse" gradientTransform="translate(729.42 15.4513) rotate(-90) scale(45.493 29.7855)">
<stop stop-color="#0073C0"/>
<stop offset="0.3" stop-color="#005C97"/>
<stop offset="0.6" stop-color="#004774"/>
<stop offset="0.8" stop-color="#003B5E"/>
<stop offset="1" stop-color="#003757"/>
</radialGradient>
<radialGradient id="paint4_radial_48_22" cx="0" cy="0" r="1" gradientUnits="userSpaceOnUse" gradientTransform="translate(718.19 3.01209) rotate(-90) scale(30.9694 28.7293)">
<stop stop-color="#0073C0"/>
<stop offset="0.3" stop-color="#005C97"/>
<stop offset="0.6" stop-color="#004774"/>
<stop offset="0.8" stop-color="#003B5E"/>
<stop offset="1" stop-color="#003757"/>
</radialGradient>
<radialGradient id="paint5_radial_48_22" cx="0" cy="0" r="1" gradientUnits="userSpaceOnUse" gradientTransform="translate(562.64 3.85397) rotate(-90) scale(31.3966 28.7293)">
<stop stop-color="#0073C0"/>
<stop offset="0.3" stop-color="#005C97"/>
<stop offset="0.6" stop-color="#004774"/>
<stop offset="0.8" stop-color="#003B5E"/>
<stop offset="1" stop-color="#003757"/>
</radialGradient>
<radialGradient id="paint6_radial_48_22" cx="0" cy="0" r="1" gradientUnits="userSpaceOnUse" gradientTransform="translate(551.816 17.044) rotate(-90) scale(45.0656 29.152)">
<stop stop-color="#0073C0"/>
<stop offset="0.3" stop-color="#005C97"/>
<stop offset="0.6" stop-color="#004774"/>
<stop offset="0.8" stop-color="#003B5E"/>
<stop offset="1" stop-color="#003757"/>
</radialGradient>
<radialGradient id="paint7_radial_48_22" cx="0" cy="0" r="1" gradientUnits="userSpaceOnUse" gradientTransform="translate(540.735 36.4594) rotate(-90) scale(57.4536 29.3631)">
<stop stop-color="#0073C0"/>
<stop offset="0.3" stop-color="#005C97"/>
<stop offset="0.6" stop-color="#004774"/>
<stop offset="0.8" stop-color="#003B5E"/>
<stop offset="1" stop-color="#003757"/>
</radialGradient>
<radialGradient id="paint8_radial_48_22" cx="0" cy="0" r="1" gradientUnits="userSpaceOnUse" gradientTransform="translate(534.934 66.1399) rotate(-90) scale(60.0494 28.5181)">
<stop stop-color="#0073C0"/>
<stop offset="0.3" stop-color="#005C97"/>
<stop offset="0.6" stop-color="#004774"/>
<stop offset="0.8" stop-color="#003B5E"/>
<stop offset="1" stop-color="#003757"/>
</radialGradient>
<radialGradient id="paint9_radial_48_22" cx="0" cy="0" r="1" gradientUnits="userSpaceOnUse" gradientTransform="translate(538.191 101.246) rotate(-90) scale(52.1141 38.8692)">
<stop stop-color="#0073C0"/>
<stop offset="0.3" stop-color="#005C97"/>
<stop offset="0.6" stop-color="#004774"/>
<stop offset="0.8" stop-color="#003B5E"/>
<stop offset="1" stop-color="#003757"/>
</radialGradient>
<radialGradient id="paint10_radial_48_22" cx="0" cy="0" r="1" gradientUnits="userSpaceOnUse" gradientTransform="translate(550.697 124.806) rotate(-90) scale(48.2696 54.0787)">
<stop stop-color="#0073C0"/>
<stop offset="0.3" stop-color="#005C97"/>
<stop offset="0.6" stop-color="#004774"/>
<stop offset="0.8" stop-color="#003B5E"/>
<stop offset="1" stop-color="#003757"/>
</radialGradient>
<radialGradient id="paint11_radial_48_22" cx="0" cy="0" r="1" gradientUnits="userSpaceOnUse" gradientTransform="translate(573.154 149.114) rotate(-90) scale(35.0118 66.3311)">
<stop stop-color="#0073C0"/>
<stop offset="0.3" stop-color="#005C97"/>
<stop offset="0.6" stop-color="#004774"/>
<stop offset="0.8" stop-color="#003B5E"/>
<stop offset="1" stop-color="#003757"/>
</radialGradient>
<radialGradient id="paint12_radial_48_22" cx="0" cy="0" r="1" gradientUnits="userSpaceOnUse" gradientTransform="translate(616.975 175.576) rotate(-90) scale(28.5734 153.575)">
<stop stop-color="#0073C0"/>
<stop offset="0.3" stop-color="#005C97"/>
<stop offset="0.6" stop-color="#004774"/>
<stop offset="0.8" stop-color="#003B5E"/>
<stop offset="1" stop-color="#003757"/>
</radialGradient>
<radialGradient id="paint13_radial_48_22" cx="0" cy="0" r="1" gradientUnits="userSpaceOnUse" gradientTransform="translate(695.285 147.693) rotate(-90) scale(35.1599 66.3311)">
<stop stop-color="#0073C0"/>
<stop offset="0.3" stop-color="#005C97"/>
<stop offset="0.6" stop-color="#004774"/>
<stop offset="0.8" stop-color="#003B5E"/>
<stop offset="1" stop-color="#003757"/>
</radialGradient>
<radialGradient id="paint14_radial_48_22" cx="0" cy="0" r="1" gradientUnits="userSpaceOnUse" gradientTransform="translate(740.498 97.433) rotate(-90) scale(55.9832 39.7142)">
<stop stop-color="#0073C0"/>
<stop offset="0.3" stop-color="#005C97"/>
<stop offset="0.6" stop-color="#004774"/>
<stop offset="0.8" stop-color="#003B5E"/>
<stop offset="1" stop-color="#003757"/>
</radialGradient>
<radialGradient id="paint15_radial_48_22" cx="0" cy="0" r="1" gradientUnits="userSpaceOnUse" gradientTransform="translate(598.228 26.5123) rotate(-90) scale(192.652 210.611)">
<stop stop-color="#0073C0"/>
<stop offset="0.3" stop-color="#005C97"/>
<stop offset="0.6" stop-color="#004774"/>
<stop offset="0.8" stop-color="#003B5E"/>
<stop offset="1" stop-color="#003757"/>
</radialGradient>
<radialGradient id="paint16_radial_48_22" cx="0" cy="0" r="1" gradientUnits="userSpaceOnUse" gradientTransform="translate(67.8833 54.204) rotate(-90) scale(120.887 90.0987)">
<stop stop-color="#0073C0"/>
<stop offset="0.3" stop-color="#005C97"/>
<stop offset="0.6" stop-color="#004774"/>
<stop offset="0.8" stop-color="#003B5E"/>
<stop offset="1" stop-color="#003757"/>
</radialGradient>
<radialGradient id="paint17_radial_48_22" cx="0" cy="0" r="1" gradientUnits="userSpaceOnUse" gradientTransform="translate(13.8484 106.37) rotate(-90) scale(61.0845 50.4877)">
<stop stop-color="#0073C0"/>
<stop offset="0.3" stop-color="#005C97"/>
<stop offset="0.6" stop-color="#004774"/>
<stop offset="0.8" stop-color="#003B5E"/>
<stop offset="1" stop-color="#003757"/>
</radialGradient>
<radialGradient id="paint18_radial_48_22" cx="0" cy="0" r="1" gradientUnits="userSpaceOnUse" gradientTransform="translate(42.8777 7.83812) rotate(-90) scale(98.8879 156.322)">
<stop stop-color="#0073C0"/>
<stop offset="0.3" stop-color="#005C97"/>
<stop offset="0.6" stop-color="#004774"/>
<stop offset="0.8" stop-color="#003B5E"/>
<stop offset="1" stop-color="#003757"/>
</radialGradient>
<radialGradient id="paint19_radial_48_22" cx="0" cy="0" r="1" gradientUnits="userSpaceOnUse" gradientTransform="translate(42.8777 35.3121) rotate(-90) scale(187.526 156.322)">
<stop stop-color="#0073C0"/>
<stop offset="0.3" stop-color="#005C97"/>
<stop offset="0.6" stop-color="#004774"/>
<stop offset="0.8" stop-color="#003B5E"/>
<stop offset="1" stop-color="#003757"/>
</radialGradient>
</defs>
</svg>
