<svg width="7724" height="4344" viewBox="0 0 7724 4344" fill="none" xmlns="http://www.w3.org/2000/svg">
<g clip-path="url(#clip0_11_103)">
<path d="M1386.5 3883.19H1385.29V4278.58H1386.5V3883.19Z" fill="white"/>
<path d="M1946.52 4174C1934.45 4180.04 1921.58 4186.47 1911.12 4196.93L1909.91 4197.73C1909.91 4197.73 1906.29 4199.34 1905.08 4200.15H1904.68L1903.88 4198.94C1910.71 4192.91 1917.15 4185.67 1921.17 4178.02C1927.21 4167.97 1928.82 4155.9 1930.43 4144.64C1931.63 4135.79 1933.24 4126.94 1936.46 4118.5C1933.24 4122.52 1929.22 4127.75 1929.22 4127.75C1929.22 4127.75 1923.99 4134.99 1924.39 4134.99C1917.96 4145.04 1913.93 4156.3 1910.31 4167.16C1905.48 4182.45 1899.85 4198.54 1886.98 4210.6C1891.81 4209.4 1909.91 4205.38 1909.91 4205.38L1929.22 4201.35C1954.56 4193.31 1981.12 4169.18 1988.76 4141.42C1985.14 4147.46 1980.31 4153.09 1973.87 4158.32C1965.43 4164.75 1955.77 4169.58 1946.92 4174H1946.52Z" fill="url(#paint0_radial_11_103)"/>
<path d="M1990.33 4048.11L1987.91 4053.74C1984.29 4061.79 1982.28 4071.04 1980.27 4079.89C1980.27 4079.89 1977.46 4092.35 1977.05 4092.76L1975.85 4093.96L1973.03 4096.38L1974.64 4089.14L1976.25 4075.46C1976.25 4074.66 1976.25 4073.85 1976.25 4073.05C1976.25 4058.97 1969.01 4047.71 1962.17 4036.45C1957.74 4029.21 1953.32 4021.57 1950.5 4013.12C1950.5 4015.13 1950.5 4017.14 1950.5 4017.14C1952.51 4040.87 1958.95 4062.59 1965.39 4082.7C1967.4 4087.93 1968.2 4094.37 1968.2 4100.4C1968.2 4106.43 1968.2 4108.85 1967.4 4112.87C1970.21 4108.85 1981.48 4093.56 1981.48 4093.56L1993.55 4077.47C2001.19 4063.4 2004.81 4046.91 2004.81 4030.82C2004.81 4014.73 2003.2 4012.72 2000.39 4004.27C2000.39 4004.67 2000.39 4005.48 2000.39 4006.28C2000.39 4021.16 1994.35 4034.44 1988.72 4047.31L1990.33 4048.11Z" fill="url(#paint1_radial_11_103)"/>
<path d="M1976.69 4019.57L1973.87 4009.91C1970.25 3999.46 1961.4 3991.81 1952.96 3984.17C1946.92 3978.94 1941.29 3973.71 1937.27 3967.28C1939.28 3973.71 1942.5 3984.57 1942.5 3984.57C1946.52 3994.23 1953.36 4003.08 1959.79 4011.52C1967.84 4021.98 1976.29 4033.24 1979.51 4046.11C1979.51 4046.11 1980.31 4049.33 1980.31 4049.73C1981.92 4039.68 1984.33 4030.02 1987.95 4021.18C1992.38 4011.92 1994.39 4001.06 1994.39 3990.2C1994.39 3973.71 1989.56 3956.82 1980.71 3944.75L1978.3 3941.54C1978.3 3941.54 1977.09 3940.33 1975.89 3938.72C1979.51 3946.36 1981.12 3955.21 1981.12 3964.06C1979.51 3976.13 1978.7 3987.79 1978.7 3999.05C1978.7 4010.32 1979.1 4017.15 1980.31 4025.2H1978.7C1978.7 4025.6 1978.7 4026 1978.7 4026H1977.9L1976.69 4019.16V4019.57Z" fill="url(#paint2_radial_11_103)"/>
<path d="M1927.97 3949.98L1946.08 3965.66C1955.73 3973.3 1965.39 3980.95 1971.42 3991.81C1971.02 3987.78 1970.21 3983.76 1970.21 3980.14C1970.21 3976.52 1970.21 3972.1 1970.62 3967.67C1970.62 3963.65 1971.02 3959.63 1971.02 3955.61C1971.02 3951.58 1971.02 3945.55 1969.41 3940.72C1966.59 3927.45 1954.52 3911.76 1939.64 3906.13C1944.47 3910.56 1948.49 3915.79 1950.9 3922.22L1955.73 3940.32C1958.55 3951.18 1960.96 3962.44 1965.79 3972.5L1964.58 3973.3H1963.78C1963.78 3973.71 1961.36 3968.88 1961.36 3968.88C1961.36 3968.88 1955.73 3960.03 1955.33 3960.03C1950.1 3952.79 1942.86 3947.96 1935.62 3943.14C1928.78 3938.31 1921.94 3932.68 1916.71 3925.84C1916.71 3925.84 1916.31 3925.04 1915.9 3924.64C1915.9 3924.23 1915.1 3923.43 1914.7 3923.03C1917.11 3934.29 1921.13 3943.14 1927.17 3949.98H1927.97Z" fill="url(#paint3_radial_11_103)"/>
<path d="M1947.28 3941.52C1947.28 3941.12 1946.88 3940.32 1946.88 3940.32C1943.66 3927.85 1938.43 3911.76 1925.16 3899.69C1917.11 3892.45 1907.46 3888.83 1898.2 3885.61C1898.2 3885.61 1895.39 3884.41 1892.57 3883.6C1896.59 3887.62 1903.84 3895.27 1903.84 3895.27C1914.7 3912.96 1930.39 3929.05 1947.28 3941.92V3941.52Z" fill="url(#paint4_radial_11_103)"/>
<path d="M1586.83 3937.49C1592.86 3932.27 1599.3 3927.04 1604.53 3920.6L1609.36 3913.76C1616.2 3903.71 1623.84 3893.65 1632.69 3885.21C1616.2 3891.64 1599.3 3898.08 1589.65 3914.57C1585.22 3920.2 1583.61 3927.04 1581.6 3933.47C1581.6 3933.47 1579.19 3940.31 1577.98 3944.33C1580.8 3941.92 1586.43 3937.09 1586.43 3937.09L1586.83 3937.49Z" fill="url(#paint5_radial_11_103)"/>
<path d="M1561.89 3975.71H1561.49L1564.7 3964.85L1567.52 3956.4L1570.74 3941.92C1573.15 3929.85 1575.97 3918.19 1585.22 3909.34C1578.78 3912.15 1572.35 3916.18 1567.52 3922.21C1558.27 3931.86 1555.85 3945.14 1555.85 3959.21C1555.85 3973.29 1556.26 3972.49 1557.06 3979.33C1557.06 3979.33 1557.06 3991.79 1557.06 3994.21C1560.68 3987.77 1566.31 3981.34 1574.76 3973.69C1598.09 3957.2 1609.76 3941.11 1611.37 3924.22C1611.37 3924.62 1610.56 3925.43 1610.16 3925.83C1610.16 3925.83 1610.16 3926.23 1609.76 3926.63C1604.93 3934.68 1597.69 3940.71 1590.05 3945.94L1577.58 3955.59C1571.14 3962.03 1566.31 3968.87 1563.9 3976.11C1563.9 3976.11 1563.9 3976.11 1563.09 3976.11C1563.09 3976.11 1562.69 3976.11 1562.29 3976.11L1561.89 3975.71Z" fill="url(#paint6_radial_11_103)"/>
<path d="M1549.01 4028.81C1548.61 4028.81 1548.21 4028.81 1548.21 4028.81L1549.82 4005.88L1547.81 3983.76C1547 3976.92 1545.8 3970.08 1545.8 3963.24C1545.8 3956.41 1547 3951.58 1549.01 3945.95C1538.96 3960.43 1533.32 3974.51 1533.32 3989.39V3991.4C1533.32 3992.61 1533.32 3993.81 1533.32 3994.62C1533.32 4006.68 1537.35 4017.54 1541.37 4028C1544.59 4036.45 1547.81 4044.89 1549.01 4054.15C1552.23 4039.67 1560.28 4027.2 1568.73 4015.53L1582.81 3993.41C1586.03 3986.17 1587.63 3978.93 1589.24 3971.69C1587.23 3974.51 1585.22 3977.72 1585.22 3978.13L1582 3981.34C1568.73 3993.41 1555.05 4005.88 1552.23 4022.77V4025.59C1551.83 4025.59 1550.62 4030.82 1550.62 4030.82C1550.62 4030.82 1550.62 4030.82 1549.82 4030.82C1549.82 4030.82 1549.42 4030.82 1549.01 4030.82V4028.81Z" fill="url(#paint7_radial_11_103)"/>
<path d="M1548.21 4080.69L1545.8 4070.63L1536.95 4047.71C1531.72 4036.04 1526.08 4023.97 1526.08 4010.3C1526.08 3996.62 1526.08 4010.3 1526.08 4009.9C1525.28 4013.11 1524.07 4016.33 1524.07 4016.33L1523.27 4019.55C1522.46 4023.97 1522.06 4028.4 1522.06 4033.63C1522.06 4044.09 1524.07 4055.75 1527.69 4068.22C1530.91 4079.08 1538.55 4088.33 1546.2 4097.58C1551.43 4104.02 1556.66 4110.45 1560.28 4117.29C1559.88 4113.27 1559.07 4109.25 1559.07 4104.82C1559.07 4100.4 1559.47 4095.17 1561.08 4090.75L1564.7 4078.28L1572.75 4047.71L1573.96 4040.47C1575.16 4033.23 1576.37 4025.58 1576.37 4018.34C1576.37 4011.1 1576.37 4017.14 1576.37 4016.33C1575.16 4020.76 1573.96 4025.58 1571.14 4029.61C1560.68 4045.29 1551.43 4062.19 1551.43 4079.48C1551.43 4096.78 1552.23 4090.34 1554.24 4095.97H1553.44C1553.44 4096.78 1553.04 4096.78 1552.64 4096.78H1551.83L1547.41 4081.09L1548.21 4080.69Z" fill="url(#paint8_radial_11_103)"/>
<path d="M1596.12 4172.8C1595.32 4170.79 1594.11 4168.38 1594.11 4168.38L1589.28 4157.11C1586.47 4145.45 1585.26 4132.98 1584.46 4120.51C1583.25 4104.82 1580.84 4089.14 1576.01 4074.66C1576.01 4081.9 1574.4 4088.33 1573.19 4095.17L1570.38 4110.46C1570.38 4112.87 1570.38 4115.28 1570.38 4117.29C1570.38 4126.95 1572.39 4135.79 1576.41 4143.44L1578.42 4147.46L1580.84 4152.29L1579.23 4153.09L1570.78 4142.23L1568.36 4138.61C1563.13 4129.76 1555.49 4122.12 1548.25 4114.88C1537.39 4104.02 1526.53 4092.35 1522.91 4077.47C1522.91 4078.68 1522.91 4079.89 1522.91 4081.09C1522.91 4091.55 1524.51 4100.8 1527.73 4108.04C1536.99 4133.78 1562.33 4149.87 1584.86 4164.35C1584.86 4164.35 1593.31 4169.98 1596.93 4171.99L1596.12 4172.8Z" fill="url(#paint9_radial_11_103)"/>
<path d="M1610.56 4192.92C1602.12 4185.68 1591.66 4180.86 1581.6 4176.03C1565.91 4168.39 1549.82 4160.34 1539.76 4143.85C1544.99 4163.16 1559.88 4182.46 1580.39 4194.93C1592.06 4202.98 1606.54 4205.39 1620.62 4207.8C1620.62 4207.8 1638.32 4211.42 1642.75 4212.63C1629.47 4200.56 1623.84 4184.48 1618.61 4169.19L1612.98 4153.5C1608.55 4143.85 1601.71 4133.39 1592.46 4121.73C1595.68 4129.77 1597.29 4138.62 1598.5 4147.47C1600.51 4160.34 1602.52 4173.62 1610.16 4184.07C1613.78 4190.11 1619.82 4195.74 1625.05 4200.56C1625.05 4200.56 1625.05 4200.56 1625.05 4200.97C1625.05 4201.37 1625.05 4201.77 1625.05 4201.77L1610.97 4192.12L1610.56 4192.92Z" fill="url(#paint10_radial_11_103)"/>
<path d="M1686.2 4228.72L1697.46 4225.9L1702.69 4225.1C1702.69 4225.1 1703.9 4225.1 1704.7 4225.1C1693.84 4222.68 1680.97 4218.66 1669.7 4209.01L1660.05 4199.76C1649.19 4189.3 1639.13 4179.64 1627.46 4171.6C1630.28 4176.43 1635.91 4186.08 1635.91 4186.08C1642.35 4199.35 1649.19 4213.43 1665.28 4219.06L1671.31 4221.07L1678.15 4223.49V4225.1L1668.9 4224.29L1664.87 4223.49L1635.51 4220.27C1614.99 4219.06 1594.07 4217.05 1578.38 4202.97C1587.23 4217.05 1602.12 4228.72 1618.61 4233.94C1641.14 4241.59 1664.07 4235.55 1686.6 4229.52L1686.2 4228.72Z" fill="url(#paint11_radial_11_103)"/>
<path d="M1710.33 4278.58C1721.2 4264.1 1736.08 4250.83 1754.59 4238.76L1756.19 4237.96C1756.19 4237.96 1765.85 4233.93 1766.65 4233.93C1788.38 4244.39 1806.88 4262.89 1819.35 4277.78C1819.35 4277.78 1827.8 4270.13 1829.01 4270.13C1812.52 4254.45 1794.41 4241.58 1775.1 4232.73L1771.88 4231.52H1775.1L1785.96 4229.91C1794.41 4229.51 1800.85 4233.93 1807.29 4238.36L1812.52 4241.98C1836.25 4260.08 1862.8 4265.71 1884.53 4257.66C1894.99 4254.04 1903.84 4247.61 1911.08 4239.97C1895.79 4248.41 1874.47 4250.42 1856.77 4243.99L1836.65 4235.94C1816.54 4225.08 1790.79 4221.87 1769.87 4227.5C1766.65 4230.31 1763.03 4229.11 1760.22 4228.3L1755.39 4227.1C1728.44 4221.06 1704.7 4231.52 1681.77 4241.98L1674.13 4245.2C1656.02 4252.44 1634.7 4250.83 1618.61 4242.38C1625.45 4249.22 1633.5 4254.85 1644.76 4259.27C1663.67 4266.92 1688.21 4263.3 1707.52 4250.02L1718.78 4242.38C1729.64 4234.34 1740.51 4226.29 1755.79 4231.12L1758.21 4231.92L1756.19 4232.73C1737.29 4241.58 1719.99 4253.64 1703.9 4268.12C1703.09 4268.93 1702.29 4269.73 1701.48 4270.13C1701.89 4270.54 1710.33 4277.78 1710.74 4278.58H1710.33Z" fill="url(#paint12_radial_11_103)"/>
<path d="M1852.34 4223.07V4221.46L1859.58 4218.65L1869.24 4214.63C1882.51 4208.19 1887.74 4196.53 1893.38 4184.46C1895.79 4179.23 1899.01 4173.6 1902.23 4168.77C1890.56 4177.22 1880.5 4186.87 1869.64 4197.73L1858.78 4208.19C1849.53 4216.64 1838.26 4220.66 1825.39 4223.88C1826.19 4223.88 1827 4223.88 1827 4223.88L1849.12 4228.7C1870.04 4233.53 1891.36 4238.76 1912.28 4231.12C1926.36 4226.29 1942.86 4214.63 1951.71 4199.74C1936.42 4214.22 1915.9 4216.64 1895.39 4217.84L1874.47 4219.85L1865.62 4221.46L1851.94 4223.47L1852.34 4223.07Z" fill="url(#paint13_radial_11_103)"/>
<path d="M1958.95 4119.32V4117.31C1958.95 4109.26 1957.34 4101.62 1956.13 4093.98C1954.52 4086.74 1953.32 4079.1 1953.32 4071.05V4070.25C1952.51 4072.66 1951.31 4075.08 1951.31 4075.08C1946.88 4087.95 1945.67 4102.83 1944.87 4116.91C1943.66 4135.01 1942.05 4153.51 1932.8 4169.2C1932.4 4170 1932 4171.21 1931.59 4172.01L1956.54 4155.12L1965.39 4149.49C1992.34 4130.98 2007.22 4106.05 2007.22 4079.5C2007.22 4052.95 2007.22 4075.88 2006.82 4073.87C2002.8 4091.57 1989.52 4105.24 1975.85 4118.52L1960.16 4139.03L1951.71 4151.1H1950.5C1950.5 4150.69 1950.1 4150.69 1950.1 4150.69H1949.29C1955.73 4140.64 1958.95 4130.58 1959.75 4119.72" fill="url(#paint14_radial_11_103)"/>
<path d="M1798.88 3955.19L1800.08 3951.97L1798.07 3951.17V3947.95C1798.48 3947.95 1803.3 3949.96 1803.3 3949.96L1804.51 3946.74L1792.84 3942.32L1791.64 3945.54L1795.66 3947.15C1795.66 3947.95 1795.66 3949.16 1795.26 3950.36C1794.45 3950.36 1793.25 3949.96 1793.25 3949.96L1792.04 3953.18L1795.66 3954.39L1798.88 3955.59V3955.19ZM1917.15 4016.73L1892.21 4024.37L1896.63 4039.26C1897.44 4042.47 1895.43 4046.09 1893.42 4049.71L1891 4054.54L1889.8 4056.95C1889.8 4056.95 1886.17 4062.58 1885.37 4064.19C1878.13 4060.98 1872.5 4061.78 1866.86 4063.39H1866.06L1864.85 4069.42L1860.83 4072.24L1859.22 4071.43H1860.83L1862.84 4057.36C1862.84 4057.36 1862.84 4054.14 1863.65 4052.13H1864.45C1868.07 4052.13 1872.09 4052.53 1875.31 4049.71C1874.11 4050.12 1882.96 4049.71 1882.96 4049.71C1883.76 4049.31 1886.58 4046.5 1886.58 4046.5L1891.81 4040.86C1892.61 4039.26 1893.42 4036.84 1893.42 4034.83C1893.42 4032.82 1892.21 4028.8 1889.8 4026.38L1888.59 4025.58C1886.58 4023.97 1884.16 4022.36 1880.95 4021.96C1880.54 4021.16 1879.74 4019.95 1879.74 4019.95C1876.52 4017.94 1874.11 4018.34 1871.29 4019.14C1871.29 4016.33 1870.08 4005.07 1870.08 4005.07C1870.08 4004.26 1869.68 4003.86 1869.68 4003.46C1869.68 4002.65 1870.08 4001.85 1871.29 4000.24L1872.9 3996.22H1877.73V3978.92C1877.73 3978.92 1863.65 3978.92 1859.62 3978.92C1860.03 3978.12 1860.83 3977.72 1860.83 3976.51C1860.83 3975.3 1860.83 3975.3 1860.83 3974.9C1858.42 3970.07 1854.8 3970.48 1851.58 3970.88C1851.58 3970.88 1851.58 3970.88 1851.18 3970.88C1851.18 3970.07 1851.98 3963.64 1851.98 3963.64L1849.16 3965.65C1849.16 3965.65 1833.88 3975.3 1832.27 3976.51C1831.06 3975.7 1825.83 3971.68 1825.83 3971.68C1825.83 3971.68 1816.98 3965.25 1815.37 3964.44C1815.37 3961.63 1813.36 3959.62 1811.35 3957.2C1811.35 3957.2 1811.35 3956.8 1810.54 3956.4C1813.76 3954.79 1816.18 3952.38 1817.38 3950.36C1818.19 3948.76 1818.99 3946.34 1818.99 3944.33C1818.99 3942.32 1818.99 3941.11 1817.79 3939.91C1814.16 3932.26 1806.12 3927.84 1796.87 3927.84C1792.84 3928.64 1788.42 3931.86 1785.6 3935.88C1783.59 3937.9 1783.19 3939.91 1782.79 3942.32C1781.58 3942.32 1780.37 3942.32 1780.37 3942.32C1778.36 3942.32 1777.56 3942.32 1775.95 3940.71C1775.95 3940.71 1762.67 3926.23 1761.46 3924.62C1761.87 3923.42 1762.67 3921.81 1762.67 3920.6C1762.67 3918.59 1762.27 3916.58 1761.46 3915.37L1759.45 3911.75L1756.64 3908.94L1747.79 3907.33L1748.99 3909.74C1748.99 3910.14 1740.95 3910.54 1740.95 3910.54V3933.07H1755.43C1758.65 3938.3 1765.49 3948.76 1767.9 3952.38C1755.03 3953.18 1746.18 3954.79 1735.32 3958.41L1730.09 3955.59L1726.06 3961.22C1721.64 3961.63 1717.61 3964.04 1713.99 3966.05C1713.99 3966.05 1709.97 3966.45 1706.75 3967.26C1709.17 3963.64 1713.99 3956 1713.99 3956C1713.99 3956 1726.06 3935.08 1726.47 3935.08L1731.29 3933.47L1735.72 3927.04C1736.92 3923.01 1736.12 3918.19 1734.11 3915.77V3914.97C1733.71 3914.97 1730.89 3915.37 1730.89 3915.37C1730.89 3915.37 1728.48 3918.19 1727.27 3919.8C1727.27 3919.39 1724.45 3916.98 1724.45 3916.98L1721.64 3925.02C1721.64 3925.02 1708.36 3941.52 1702.73 3947.95C1702.73 3947.15 1702.73 3946.74 1702.73 3946.34C1703.13 3945.14 1704.74 3940.31 1704.74 3940.31V3939.5C1703.94 3936.69 1700.72 3932.26 1698.3 3931.06L1696.29 3930.25V3931.86L1695.49 3935.08C1691.87 3932.26 1687.04 3930.25 1683.42 3930.25H1681.41C1681.41 3930.25 1682.62 3933.87 1683.02 3935.08C1681.41 3935.08 1677.39 3934.28 1677.39 3934.28C1677.39 3934.28 1677.79 3937.9 1678.19 3939.1C1675.37 3939.1 1668.13 3937.9 1668.13 3937.9L1669.34 3940.31C1669.34 3940.31 1670.14 3942.72 1670.95 3944.33C1668.94 3944.33 1665.32 3944.73 1665.32 3944.73V3945.94C1665.32 3945.94 1665.32 3946.34 1665.32 3946.74C1665.32 3947.95 1666.12 3948.76 1666.93 3949.16C1664.91 3949.16 1659.68 3950.36 1659.68 3950.36L1661.29 3952.38C1661.29 3952.38 1661.29 3952.78 1661.7 3953.18C1661.29 3953.18 1660.49 3953.18 1660.49 3953.18L1654.05 3954.79L1655.66 3956.4L1656.87 3958.81C1656.06 3958.81 1650.43 3962.03 1650.43 3962.03L1652.04 3963.24C1651.24 3963.24 1650.43 3963.24 1650.43 3963.24H1648.82C1646.41 3963.24 1643.59 3963.24 1642.39 3965.25L1640.78 3966.05L1639.17 3967.26V3969.27C1639.17 3969.27 1642.39 3972.49 1644 3973.69C1642.79 3974.5 1641.18 3976.11 1641.18 3976.11L1640.37 3977.31L1638.36 3981.74H1641.18C1644.4 3981.34 1647.62 3979.73 1650.43 3977.31L1651.64 3982.54C1651.64 3982.94 1657.67 3984.15 1657.67 3984.15L1662.1 3981.34L1660.49 3980.53C1659.28 3978.92 1658.88 3977.31 1658.88 3976.51C1658.88 3975.7 1658.88 3975.7 1659.28 3975.3L1666.52 3974.5C1666.52 3974.5 1668.13 3974.5 1669.74 3974.5C1669.74 3993.8 1669.34 4008.28 1665.72 4022.76C1663.71 4022.76 1660.89 4021.56 1660.89 4021.56L1652.04 4019.55L1644.8 4017.94C1639.97 4019.95 1639.57 4022.76 1639.17 4025.18C1639.17 4025.18 1639.17 4025.98 1638.77 4026.79C1637.96 4026.79 1637.16 4026.79 1637.16 4026.79L1629.92 4025.18C1626.29 4024.37 1622.67 4027.59 1621.06 4030.81C1621.06 4031.61 1620.66 4032.42 1620.66 4032.82C1620.66 4035.64 1623.08 4037.65 1625.49 4039.26L1629.51 4043.28C1629.51 4043.28 1629.51 4044.08 1629.11 4044.48C1627.5 4044.08 1625.09 4042.88 1625.09 4042.88C1621.06 4041.27 1617.04 4039.26 1613.42 4042.47C1613.02 4043.68 1613.02 4044.89 1613.02 4046.09C1613.02 4049.71 1615.03 4052.13 1617.04 4054.94C1617.04 4054.94 1617.44 4055.34 1617.85 4055.75C1615.83 4055.75 1613.82 4055.75 1613.82 4055.75L1609.4 4054.94V4055.75C1609 4055.75 1593.71 4071.43 1593.71 4071.43L1594.92 4072.64C1598.94 4076.66 1603.36 4074.25 1606.98 4071.84C1609 4070.63 1611.01 4069.83 1613.42 4069.42C1613.02 4070.23 1612.21 4071.03 1612.21 4071.03C1611.81 4071.84 1611.41 4072.24 1611.41 4073.04C1611.41 4073.85 1611.41 4073.45 1611.41 4073.85C1611.41 4075.46 1613.02 4076.66 1614.63 4077.47H1615.43C1615.43 4077.87 1623.08 4073.45 1623.08 4073.45L1630.32 4069.02C1629.11 4069.02 1639.57 4070.63 1639.57 4070.63L1670.14 4073.04C1670.55 4073.04 1676.18 4072.24 1678.19 4072.24C1683.02 4095.97 1700.72 4119.3 1722.84 4131.37C1722.44 4132.57 1721.64 4134.99 1721.64 4134.99C1721.64 4135.79 1721.64 4136.59 1721.64 4137.4C1721.64 4140.62 1723.25 4143.03 1726.06 4145.04C1726.47 4145.04 1735.72 4145.85 1735.72 4145.85C1735.72 4145.85 1741.35 4146.25 1744.97 4146.65C1742.15 4147.86 1736.92 4149.06 1736.92 4149.06C1732.1 4149.87 1727.27 4151.07 1722.84 4154.69C1715.6 4158.31 1710.37 4168.37 1710.37 4175.21C1710.37 4182.05 1710.37 4177.22 1710.37 4177.22H1711.98C1716.01 4177.22 1721.24 4174.4 1724.05 4169.98C1731.69 4159.52 1744.57 4158.72 1755.83 4158.31C1755.83 4158.31 1759.86 4157.91 1763.88 4157.51C1761.06 4159.52 1758.65 4161.93 1758.65 4161.93L1749.8 4169.17L1739.34 4174.4L1718.02 4186.07L1719.22 4187.27C1719.63 4188.08 1720.83 4188.08 1722.44 4188.48L1740.95 4190.49V4189.69C1748.99 4180.84 1760.26 4175.21 1771.52 4174.4C1778.36 4172.79 1784.8 4167.57 1791.23 4162.74C1791.23 4162.74 1794.45 4160.33 1796.06 4159.12C1796.46 4159.92 1796.87 4160.73 1796.87 4160.73C1796.87 4160.73 1796.87 4161.93 1796.87 4162.74V4165.15C1796.87 4165.96 1796.46 4167.16 1796.46 4168.37C1796.46 4169.58 1796.87 4171.59 1798.48 4173.2L1799.28 4174H1799.68L1809.34 4169.98C1809.34 4169.98 1812.56 4168.77 1814.57 4167.97C1814.57 4173.2 1814.97 4177.62 1817.38 4181.24C1821.41 4182.85 1824.62 4180.44 1827.04 4178.43C1827.04 4178.43 1827.84 4177.62 1828.65 4177.22C1829.85 4178.43 1832.67 4181.24 1832.67 4181.24C1834.28 4182.85 1837.9 4183.65 1840.31 4183.25C1842.33 4182.85 1843.53 4181.24 1843.93 4179.63C1844.34 4178.43 1844.74 4177.62 1844.74 4176.41C1844.74 4174.4 1843.93 4172.79 1842.73 4171.19L1841.52 4168.77C1841.52 4167.97 1841.12 4166.76 1841.12 4165.96C1841.12 4164.75 1841.92 4163.95 1842.33 4163.14C1845.54 4164.35 1847.96 4165.55 1849.97 4168.77C1849.97 4169.58 1849.97 4171.99 1849.97 4171.99C1849.97 4174.81 1848.36 4177.22 1846.35 4180.03C1844.34 4182.85 1841.92 4186.07 1841.92 4190.49C1841.92 4194.92 1841.92 4193.71 1841.92 4193.71L1853.99 4186.87C1860.03 4184.86 1861.23 4181.24 1861.23 4177.62C1861.23 4174 1861.23 4175.21 1861.23 4174C1861.23 4174 1861.23 4171.99 1861.23 4170.78C1862.84 4170.78 1865.66 4169.98 1865.66 4169.98C1868.07 4167.97 1868.88 4165.96 1868.88 4163.95C1868.88 4161.93 1868.88 4161.13 1868.07 4159.92L1867.27 4156.3L1868.47 4151.07C1869.68 4145.44 1870.49 4139.81 1870.49 4134.58C1870.49 4129.35 1870.08 4127.75 1868.88 4124.13C1868.88 4124.93 1872.9 4108.04 1872.9 4107.63L1875.72 4104.82C1875.72 4104.82 1879.74 4099.99 1880.54 4098.38C1886.58 4097.18 1891 4091.95 1891.81 4086.72C1891.81 4081.09 1893.82 4077.07 1896.23 4072.64L1899.85 4065L1901.86 4058.56C1903.47 4052.13 1904.68 4049.31 1909.51 4048.91C1914.74 4045.69 1915.54 4041.27 1915.54 4038.05V4036.04L1923.59 4033.62L1918.76 4017.13L1917.15 4016.73ZM1866.06 4071.84C1866.86 4073.45 1868.07 4075.86 1868.88 4077.07C1868.88 4077.07 1868.88 4077.07 1868.47 4077.47C1867.67 4076.66 1864.45 4073.85 1863.65 4073.45C1864.85 4072.64 1865.26 4072.24 1866.06 4071.43M1861.23 4079.08C1861.23 4078.67 1862.04 4077.47 1863.24 4077.87C1863.24 4077.87 1866.46 4078.27 1867.67 4078.27C1866.06 4080.28 1864.85 4082.29 1864.45 4084.31C1863.24 4083.5 1861.64 4082.7 1861.23 4082.7C1861.23 4082.29 1860.83 4081.49 1860.83 4081.09C1860.83 4080.69 1860.83 4079.88 1861.23 4079.08ZM1860.03 4075.05C1860.43 4075.05 1860.83 4075.86 1861.23 4075.86C1860.83 4075.86 1860.03 4076.26 1859.62 4076.66V4075.05H1860.03ZM1862.04 4027.59C1861.23 4023.97 1860.83 4020.35 1860.83 4020.35C1862.04 4019.95 1862.84 3994.61 1862.84 3994.21L1864.05 3984.15C1864.05 3985.36 1864.85 3986.16 1864.85 3986.56L1865.26 3994.21V3995.82H1870.89L1870.08 3997.83C1868.88 3999.84 1866.86 4002.65 1868.88 4005.47C1868.88 4004.66 1869.68 4016.33 1869.68 4019.95L1864.85 4021.96C1863.24 4023.97 1862.84 4025.58 1862.44 4027.59H1862.04ZM1869.28 4023.17C1867.67 4026.79 1866.87 4030 1866.46 4034.43V4033.62C1865.66 4031.61 1865.26 4029.6 1865.26 4027.99C1865.26 4026.38 1865.26 4025.58 1866.46 4024.78C1866.46 4024.78 1868.07 4023.97 1869.68 4023.57L1869.28 4023.17ZM1864.45 4035.23H1865.26C1865.26 4034.83 1864.05 4037.24 1864.05 4037.24V4036.84L1864.45 4035.23ZM1865.66 4048.51C1865.66 4048.51 1864.85 4048.1 1864.45 4047.7V4046.5V4038.85C1865.26 4038.85 1866.06 4038.45 1866.46 4037.65C1866.46 4041.27 1868.07 4044.89 1871.69 4047.7C1869.68 4048.51 1867.67 4048.1 1865.66 4048.1V4048.51ZM1881.35 4024.37C1883.36 4024.37 1885.37 4025.98 1887.38 4027.59C1891.4 4031.21 1891.4 4035.64 1889.39 4038.85L1884.97 4043.68L1884.16 4044.48L1882.55 4043.68C1879.74 4042.88 1878.13 4040.06 1877.73 4036.84V4034.83C1877.73 4030.81 1877.73 4026.38 1880.95 4024.37H1881.35ZM1872.9 4022.76V4021.96V4021.16C1875.31 4020.35 1876.92 4020.35 1878.93 4021.56C1874.91 4024.37 1874.91 4029.6 1874.91 4034.03V4036.04C1874.91 4040.46 1877.73 4044.08 1880.95 4045.69C1879.34 4045.69 1875.72 4045.69 1875.31 4045.69C1870.89 4042.88 1870.08 4039.66 1869.68 4035.23C1870.08 4030 1870.89 4025.98 1873.3 4021.96L1872.9 4022.76ZM1875.31 3981.74V3992.6H1868.07C1868.07 3990.59 1868.07 3986.97 1868.07 3986.97C1868.07 3984.96 1867.27 3983.35 1865.66 3982.54C1864.45 3981.74 1862.84 3982.14 1861.64 3982.94C1861.23 3983.75 1860.43 3989.78 1860.03 3992.6C1859.22 3992.6 1857.21 3992.6 1855.6 3992.6C1855.6 3990.59 1855.6 3983.75 1855.6 3981.74H1857.61C1857.61 3981.74 1872.5 3981.74 1875.31 3981.74ZM1859.62 3995.82L1858.82 4015.12C1854.39 4004.66 1849.16 3995.41 1842.33 3987.37L1845.95 3983.35C1845.95 3983.35 1847.56 3980.93 1848.36 3980.13C1849.16 3980.13 1851.18 3980.93 1851.98 3980.93V3995.41H1859.22L1859.62 3995.82ZM1847.96 3969.67C1847.96 3970.88 1847.55 3974.1 1847.55 3974.1H1849.57C1849.57 3973.69 1852.38 3973.29 1852.38 3973.29C1855.6 3972.89 1856.81 3972.49 1858.01 3974.9C1858.01 3974.9 1858.01 3974.9 1858.01 3975.3C1858.01 3976.11 1857.61 3976.51 1856.41 3977.72C1855.6 3977.72 1854.8 3977.72 1854.8 3977.72H1853.59L1846.75 3975.7V3976.51C1846.35 3976.51 1842.73 3980.93 1842.73 3980.93L1839.91 3984.15C1837.9 3982.14 1836.29 3979.73 1834.28 3977.72C1837.5 3975.7 1844.74 3971.28 1847.96 3969.27V3969.67ZM1811.75 3962.43C1808.93 3961.22 1805.31 3959.62 1802.5 3958.41C1803.71 3958.01 1804.91 3957.2 1806.12 3956.4L1808.93 3959.62C1810.14 3960.82 1810.95 3961.63 1811.35 3962.83L1811.75 3962.43ZM1792.44 3953.58C1792.04 3953.18 1790.43 3951.17 1790.43 3948.35C1790.43 3945.54 1790.43 3945.54 1791.64 3943.93C1791.64 3943.53 1794.85 3940.71 1795.26 3940.31C1800.49 3942.32 1806.52 3945.54 1806.52 3948.35V3949.96V3952.38C1804.51 3954.39 1801.29 3956.4 1798.07 3956.8L1792.84 3955.59H1793.25L1792.44 3954.39V3953.58ZM1797.67 3930.66C1805.31 3930.66 1812.15 3934.28 1815.37 3941.11C1816.18 3942.32 1816.18 3946.74 1815.37 3948.35C1813.76 3950.36 1812.15 3952.38 1810.14 3953.58V3949.96V3948.35C1810.14 3942.72 1800.89 3939.1 1793.65 3936.29L1791.64 3935.48C1793.65 3933.47 1796.06 3931.86 1798.07 3931.86L1797.67 3930.66ZM1788.42 3937.9C1788.42 3937.9 1788.42 3937.49 1788.82 3937.09C1789.62 3937.09 1790.83 3937.9 1792.04 3938.3C1790.83 3939.5 1789.22 3940.71 1789.22 3940.71C1788.02 3942.72 1787.21 3944.73 1787.21 3946.34L1786.41 3943.93C1786.41 3941.11 1786.41 3939.5 1788.42 3937.49V3937.9ZM1753.82 3929.45H1744.97V3913.36C1746.58 3913.36 1748.99 3913.36 1750.6 3913.36C1750.6 3913.76 1750.6 3914.57 1750.6 3914.57V3916.58C1751 3916.58 1747.79 3914.16 1747.79 3914.16V3916.98C1747.38 3918.99 1746.98 3922.61 1750.2 3925.43L1752.21 3927.04C1752.21 3927.04 1753.02 3928.24 1753.42 3929.05L1753.82 3929.45ZM1757.04 3927.84L1755.03 3925.02L1753.02 3923.01C1752.21 3922.61 1752.21 3921.81 1752.21 3921C1752.21 3921 1753.02 3920.2 1753.42 3919.39L1754.63 3920.6C1755.43 3919.8 1755.83 3918.99 1755.83 3918.19C1755.83 3916.98 1755.03 3915.37 1754.63 3913.76L1753.82 3911.75C1755.03 3911.75 1756.23 3911.75 1756.23 3911.75L1757.84 3913.36C1757.84 3913.76 1759.45 3916.58 1759.45 3916.58C1760.26 3918.19 1760.26 3919.8 1760.26 3921C1760.26 3922.21 1760.26 3923.42 1759.05 3924.62L1758.25 3925.83L1774.34 3943.53C1776.75 3946.34 1779.17 3946.34 1781.18 3946.34H1783.59L1785.6 3952.38L1786.41 3953.98H1784.8C1784.8 3953.58 1775.95 3952.78 1772.73 3952.78L1757.04 3928.64V3927.84ZM1771.12 3954.79L1783.99 3956L1796.87 3959.21L1812.96 3966.45L1823.42 3973.69L1830.66 3978.92C1842.33 3990.59 1851.18 4004.26 1857.21 4020.75L1860.43 4037.65V4039.66V4048.91L1859.62 4056.15L1857.61 4070.23V4071.43C1857.21 4071.43 1854.8 4077.47 1854.39 4079.48C1845.54 4075.46 1836.29 4080.69 1827.44 4085.91C1827.44 4085.91 1825.83 4086.72 1824.22 4087.93C1825.43 4084.31 1826.64 4078.67 1827.04 4077.47C1827.84 4077.47 1829.05 4077.47 1829.05 4077.47C1831.46 4077.47 1834.68 4077.47 1837.5 4073.85V4073.04C1837.5 4071.03 1836.69 4064.6 1836.29 4062.18C1837.9 4061.38 1845.14 4057.76 1845.14 4057.76L1838.7 4043.28L1832.27 4046.9C1832.27 4045.29 1833.07 4043.28 1833.07 4043.28L1830.26 4044.08C1829.85 4044.08 1786 4056.95 1768.3 4047.7L1765.89 4046.5C1764.68 4043.28 1761.87 4041.67 1759.05 4040.06C1761.06 4040.06 1763.88 4039.26 1765.49 4036.44C1765.49 4035.64 1767.5 4029.6 1767.5 4029.6C1768.3 4027.19 1769.51 4024.37 1769.51 4021.56C1769.51 4018.74 1768.3 4015.93 1765.09 4012.71C1761.46 4009.49 1755.83 4009.89 1752.21 4010.3C1747.38 4011.5 1745.37 4015.93 1744.97 4019.55H1744.17C1742.15 4019.55 1738.94 4019.95 1737.33 4023.57C1736.12 4021.96 1731.29 4013.51 1731.29 4013.51C1729.68 4011.9 1728.88 4010.3 1728.88 4009.09C1728.88 4006.68 1730.49 4004.26 1732.5 4001.04C1732.5 4001.04 1735.32 3995.82 1736.12 3994.21C1736.92 3994.21 1737.73 3994.21 1737.73 3994.21C1743.76 3992.2 1744.57 3985.76 1745.37 3981.74V3979.32L1743.36 3978.52L1739.74 3979.32L1729.28 3982.94C1728.48 3983.75 1716.41 4004.26 1716.41 4004.26C1716.41 4006.27 1719.63 4023.17 1720.43 4028.8C1717.61 4027.99 1702.33 4024.37 1702.33 4024.37C1698.3 4024.37 1694.28 4025.18 1691.87 4028.4C1691.06 4028.4 1680.6 4025.98 1677.79 4025.58C1681.81 4007.88 1690.66 3994.61 1699.91 3982.94C1700.32 3982.94 1705.95 3981.34 1705.95 3981.34L1709.17 3980.13C1709.17 3980.13 1717.21 3975.3 1718.02 3974.9C1718.02 3974.9 1718.42 3974.9 1719.22 3974.9L1718.42 3976.11L1730.09 3982.94L1742.96 3963.24L1738.53 3960.82C1748.59 3957.6 1757.04 3956 1769.91 3955.59L1771.12 3954.79ZM1826.23 4058.56L1823.82 4055.34C1824.62 4054.94 1825.43 4054.54 1825.43 4054.54L1820.2 4052.53C1818.99 4052.53 1810.14 4056.95 1810.14 4056.95C1800.08 4062.18 1791.64 4067.01 1777.96 4064.19C1770.32 4062.58 1762.67 4058.56 1755.03 4054.54L1756.64 4053.74L1763.07 4049.71H1765.49C1766.29 4050.12 1767.5 4050.92 1767.5 4050.92C1784.39 4059.77 1820.6 4050.52 1829.05 4048.1C1829.05 4048.91 1828.25 4052.13 1828.25 4052.13H1830.26C1833.07 4052.13 1833.47 4054.14 1834.68 4057.36L1835.49 4059.77C1835.49 4059.77 1834.68 4059.77 1834.68 4060.17C1834.68 4060.17 1833.07 4060.98 1831.46 4061.78C1827.04 4060.57 1826.64 4059.37 1826.23 4058.96V4058.56ZM1827.44 4063.39C1826.64 4063.39 1826.23 4064.19 1825.43 4064.19C1825.03 4063.39 1824.22 4061.78 1823.42 4060.57C1824.22 4061.78 1825.43 4062.58 1827.04 4063.39M1724.05 4060.57C1725.66 4059.77 1728.07 4058.96 1728.07 4058.96C1737.33 4055.34 1745.77 4052.53 1755.43 4050.52L1751.81 4052.93L1737.33 4060.17L1726.06 4065.8V4063.79V4063.39C1726.06 4062.18 1724.86 4060.98 1724.05 4060.57ZM1708.36 4062.99L1704.74 4059.77L1693.07 4050.12L1703.94 4051.72L1701.93 4053.74V4054.94C1704.74 4060.17 1709.97 4060.17 1713.99 4060.17L1720.43 4061.38L1721.64 4063.39C1722.04 4063.79 1721.64 4067.01 1721.64 4068.62C1720.43 4069.42 1719.22 4070.23 1717.61 4070.63L1707.96 4063.39L1708.36 4062.99ZM1713.99 4071.43C1712.79 4071.43 1711.58 4071.43 1710.78 4071.43C1709.17 4071.43 1707.16 4068.62 1706.35 4066.61H1707.56C1707.56 4066.21 1714.4 4071.43 1714.4 4071.43H1713.99ZM1677.39 4050.12C1677.39 4050.12 1678.19 4049.31 1678.99 4049.31C1679.4 4049.31 1680.2 4048.51 1680.6 4048.1L1686.64 4048.91L1702.33 4062.18C1702.33 4062.18 1703.13 4062.99 1704.34 4063.79L1678.19 4050.12H1677.39ZM1721.24 4058.16L1713.99 4056.55C1709.97 4056.55 1707.56 4055.75 1705.95 4053.74C1706.35 4053.33 1707.16 4052.53 1707.56 4052.13C1708.76 4052.13 1709.97 4052.13 1711.18 4051.72L1714.4 4050.92L1715.2 4050.12C1715.2 4050.12 1715.2 4050.12 1715.2 4049.71L1731.7 4046.9L1744.57 4044.48C1745.37 4044.48 1749.8 4042.88 1749.8 4042.88L1753.82 4042.07L1753.02 4040.46H1754.22L1755.43 4041.27C1758.25 4042.47 1760.66 4044.08 1762.67 4046.5H1761.46H1759.86C1746.58 4048.51 1736.92 4052.13 1726.06 4056.15L1720.43 4058.16H1721.24ZM1711.98 4041.27C1709.17 4040.86 1701.93 4040.06 1701.93 4040.06V4039.66L1704.34 4037.65L1707.96 4034.43C1709.17 4034.43 1711.18 4033.22 1710.78 4030.81C1710.78 4030.81 1710.78 4030 1710.78 4029.2C1711.98 4029.2 1712.79 4029.6 1712.79 4029.6L1724.05 4032.42L1726.47 4033.22C1726.47 4033.22 1734.51 4034.83 1735.32 4035.23C1736.92 4036.04 1740.95 4037.24 1740.95 4037.24H1742.56L1746.58 4039.26C1741.35 4039.26 1712.79 4040.86 1712.79 4040.86L1711.98 4041.27ZM1668.94 4027.59C1671.75 4027.59 1676.58 4028.8 1676.98 4028.8L1693.07 4032.42C1693.07 4032.42 1699.11 4034.43 1702.33 4035.23C1702.33 4035.23 1700.32 4036.84 1699.51 4037.65C1695.49 4036.84 1670.55 4032.82 1670.14 4032.82C1670.14 4032.02 1668.94 4028.8 1668.94 4028.8V4027.59ZM1696.29 4029.2C1697.9 4027.99 1700.32 4027.59 1702.73 4027.59C1702.73 4027.59 1704.74 4027.59 1706.75 4028.4L1707.56 4031.61V4032.82H1706.35L1696.29 4029.6V4029.2ZM1729.68 4015.93L1736.12 4026.79L1738.53 4030.41C1737.33 4031.21 1734.91 4032.02 1734.51 4032.42L1727.27 4030.81L1725.66 4030C1724.86 4025.58 1721.24 4005.07 1721.24 4005.07C1721.24 4005.07 1733.3 3985.76 1733.3 3985.36L1742.15 3982.54C1742.15 3982.54 1742.56 3982.54 1742.96 3982.54C1742.56 3985.76 1741.35 3990.18 1737.73 3991.39H1736.12H1735.32L1734.91 3992.6L1731.29 3999.44C1728.07 4004.26 1724.05 4010.3 1730.09 4015.93H1729.68ZM1748.59 4021.56C1748.59 4018.34 1749.8 4014.72 1753.82 4013.92C1758.65 4013.11 1761.87 4013.92 1763.88 4015.52C1768.3 4019.95 1767.1 4023.57 1765.49 4028.4L1761.06 4030.41C1753.82 4033.62 1747.79 4036.04 1741.35 4031.21L1740.14 4027.19C1740.14 4024.37 1741.75 4024.37 1744.97 4024.37H1748.99V4022.76L1748.59 4021.56ZM1764.28 4032.02L1763.48 4035.64C1762.67 4036.44 1761.46 4036.84 1759.45 4036.84L1757.04 4037.65V4035.23C1758.65 4034.43 1760.66 4033.62 1762.67 4032.82L1764.68 4032.02H1764.28ZM1746.98 4036.04C1749.4 4036.04 1751.41 4036.04 1753.82 4036.04V4038.45H1753.02C1751.81 4038.05 1749.4 4036.84 1747.38 4036.04H1746.98ZM1740.55 4033.62C1740.55 4033.62 1740.55 4034.03 1740.55 4034.43H1738.94C1738.94 4034.03 1740.14 4033.22 1740.14 4033.22C1740.14 4033.22 1740.14 4033.22 1740.55 4033.22M1735.32 4042.88C1732.9 4043.28 1730.89 4043.68 1730.89 4043.68L1715.6 4046.5C1715.6 4045.69 1715.6 4044.89 1714.8 4044.08L1734.91 4042.88H1735.32ZM1833.47 4050.12C1835.08 4049.31 1836.69 4048.51 1837.9 4047.7C1838.7 4049.71 1840.72 4054.14 1841.52 4056.15C1840.72 4056.15 1839.51 4056.95 1838.3 4057.76L1837.5 4056.15C1836.69 4053.74 1835.49 4051.32 1833.07 4050.12M1690.66 3989.38C1690.66 3989.38 1687.85 3988.58 1686.24 3988.17C1687.04 3986.97 1689.05 3984.15 1690.26 3982.14L1697.5 3982.94C1695.89 3984.96 1693.88 3987.37 1692.27 3989.38H1690.66ZM1725.66 3975.3L1731.29 3976.51C1730.89 3977.31 1730.49 3977.72 1730.09 3978.12C1729.28 3977.72 1727.27 3976.51 1725.26 3975.3H1725.66ZM1732.1 3959.62C1733.71 3960.42 1737.73 3962.83 1739.74 3964.04C1739.74 3964.44 1738.53 3966.05 1737.73 3967.26C1736.92 3966.05 1736.92 3964.44 1735.32 3963.24C1733.71 3962.03 1732.1 3961.63 1730.49 3961.63C1730.89 3960.82 1731.29 3960.42 1731.7 3960.02M1703.53 3953.58V3952.38C1703.94 3952.38 1725.26 3926.23 1725.26 3926.23C1725.26 3926.23 1726.06 3924.22 1726.47 3922.61L1727.67 3925.43L1730.49 3924.22L1729.28 3921.81L1732.5 3917.78C1732.9 3918.59 1733.3 3920.2 1733.3 3922.21C1733.3 3924.22 1733.3 3924.62 1732.9 3925.83L1730.09 3930.25L1724.86 3932.26C1724.05 3933.07 1711.98 3953.98 1711.98 3953.98L1703.13 3968.06C1701.52 3968.87 1699.51 3968.87 1697.9 3968.06H1698.3C1698.71 3967.26 1699.51 3965.25 1700.32 3964.44C1701.52 3964.44 1705.14 3964.44 1705.14 3964.44L1703.13 3954.39L1703.53 3953.58ZM1697.1 3960.42C1699.11 3960.42 1700.32 3958.81 1700.32 3957.2C1700.32 3955.59 1699.51 3954.79 1698.71 3954.39C1699.11 3954.39 1699.91 3954.39 1700.32 3954.39C1700.32 3956 1701.12 3958.81 1701.52 3960.42C1700.32 3960.42 1698.3 3960.42 1698.3 3960.42C1698.3 3960.42 1696.7 3964.44 1696.29 3964.84L1693.48 3966.05C1689.86 3964.44 1686.64 3963.24 1683.02 3963.24C1683.02 3962.83 1684.22 3959.62 1684.22 3959.62C1687.44 3956 1691.06 3954.39 1695.09 3953.98C1694.28 3954.39 1693.88 3955.19 1693.48 3956C1693.48 3958.81 1694.68 3960.02 1696.7 3960.02L1697.1 3960.42ZM1699.11 3935.08C1700.32 3936.29 1701.52 3938.3 1701.93 3939.5C1701.93 3939.5 1701.12 3941.92 1700.72 3943.12L1699.51 3941.52L1698.71 3936.69C1698.71 3935.88 1698.71 3935.08 1699.11 3934.68V3935.08ZM1695.49 3937.9V3940.71C1692.67 3940.71 1689.86 3939.5 1687.44 3935.88C1687.44 3935.08 1686.64 3933.87 1686.64 3933.47C1689.86 3933.87 1693.48 3935.48 1695.49 3937.9ZM1695.49 3943.93C1694.28 3943.93 1693.08 3943.93 1691.47 3943.93C1691.47 3943.93 1691.47 3943.12 1691.47 3942.72C1692.67 3943.12 1694.28 3943.53 1695.49 3943.53M1685.03 3938.3C1685.83 3939.1 1688.25 3941.52 1688.25 3941.92C1688.25 3941.92 1688.25 3941.92 1688.25 3942.72C1688.25 3943.53 1688.25 3943.93 1688.25 3944.33C1687.85 3944.33 1687.44 3944.33 1687.04 3944.33C1685.83 3943.12 1684.63 3943.12 1683.82 3943.12L1683.02 3941.52L1681.81 3939.91C1681.81 3939.1 1681.81 3938.3 1681.81 3937.9C1682.62 3937.9 1684.22 3937.9 1685.43 3938.3H1685.03ZM1679.4 3942.32L1680.2 3943.53L1681.81 3947.15H1681.01H1679.4C1678.59 3947.15 1678.59 3947.15 1677.79 3946.74C1677.39 3946.74 1676.98 3946.34 1676.18 3945.94L1674.57 3944.73C1674.17 3943.53 1673.77 3942.32 1673.36 3941.52C1674.97 3941.52 1677.39 3941.92 1679.4 3942.32ZM1673.36 3947.55L1675.37 3948.76C1676.98 3949.56 1677.79 3949.96 1678.19 3951.17C1677.79 3951.17 1675.37 3951.17 1674.57 3951.17C1673.36 3950.36 1671.75 3949.56 1670.95 3949.16C1670.95 3948.35 1670.14 3947.95 1669.74 3947.55C1670.55 3947.55 1672.16 3947.55 1673.36 3947.55ZM1674.97 3956.8C1674.97 3956.8 1674.97 3956.8 1674.97 3957.2H1674.57C1674.57 3957.2 1674.97 3956.8 1675.37 3956.4L1674.97 3956.8ZM1668.94 3951.97C1670.14 3952.38 1672.56 3953.98 1672.96 3954.39C1672.16 3954.39 1670.95 3955.19 1670.95 3955.19C1670.95 3955.19 1670.14 3955.19 1669.74 3955.19L1665.32 3953.18C1665.32 3953.18 1665.32 3953.18 1665.32 3952.78C1666.52 3952.78 1668.13 3952.38 1669.34 3951.97H1668.94ZM1673.76 3958.81C1672.56 3960.82 1671.35 3962.43 1669.74 3963.64L1668.13 3961.22L1674.17 3958.81H1673.76ZM1663.71 3956C1664.51 3956 1666.12 3957.2 1667.73 3958.01C1666.93 3958.01 1665.72 3958.81 1665.72 3958.81L1661.29 3958.41C1660.89 3957.6 1660.09 3957.2 1659.68 3957.2C1659.68 3957.2 1661.7 3956.8 1663.71 3956.4V3956ZM1658.48 3962.03L1660.49 3961.22C1661.29 3961.22 1663.71 3961.63 1664.51 3962.03C1664.51 3962.43 1665.32 3963.24 1665.72 3964.04C1662.9 3965.25 1659.28 3964.04 1656.47 3963.64L1658.88 3962.43L1658.48 3962.03ZM1662.9 3967.66C1661.29 3968.46 1659.68 3969.27 1658.08 3969.67V3966.86C1659.28 3966.86 1660.89 3967.26 1662.9 3967.26V3967.66ZM1645.2 3978.12C1645.6 3977.72 1646.41 3976.91 1647.21 3976.11C1647.21 3976.11 1648.02 3976.11 1648.42 3976.11C1647.62 3976.91 1646.41 3977.31 1645.2 3977.72V3978.12ZM1650.83 3973.29C1650.83 3973.29 1648.42 3973.29 1647.21 3972.89C1646.01 3971.68 1644.4 3970.07 1643.59 3968.87C1643.59 3968.87 1643.59 3968.87 1644 3968.87C1646.01 3971.28 1648.42 3972.89 1650.83 3973.69V3973.29ZM1647.62 3967.26C1648.42 3967.26 1649.63 3967.26 1649.63 3967.26H1651.64C1652.85 3967.26 1653.65 3967.26 1654.45 3967.26V3970.48C1654.45 3970.48 1654.45 3970.48 1654.05 3970.48C1651.64 3970.48 1649.63 3968.87 1647.62 3967.26ZM1669.74 3971.68H1666.93L1658.48 3973.29C1657.27 3974.5 1656.47 3976.11 1656.47 3977.72C1656.47 3979.32 1657.27 3980.53 1658.08 3981.74L1655.26 3981.34C1655.26 3980.53 1654.86 3978.52 1654.86 3978.52L1654.05 3976.11L1655.26 3974.5C1658.88 3974.1 1663.31 3971.68 1667.73 3969.27L1672.16 3966.86C1676.18 3963.64 1678.19 3960.02 1679.8 3956.4L1683.42 3949.96C1685.43 3949.96 1687.04 3949.16 1687.85 3947.55C1687.85 3947.55 1697.5 3947.15 1700.72 3946.74V3948.35L1701.12 3951.17C1701.12 3951.17 1701.12 3951.17 1701.12 3951.57C1694.28 3949.96 1687.44 3952.38 1682.62 3958.01L1681.01 3962.43V3964.04C1678.19 3964.44 1675.78 3965.25 1672.96 3966.86C1671.75 3968.06 1670.55 3969.67 1670.55 3972.08L1669.74 3971.68ZM1673.36 3973.29V3971.28C1673.36 3970.48 1673.76 3969.67 1674.57 3968.87C1681.81 3964.84 1686.24 3966.05 1693.48 3968.87H1694.28C1696.7 3970.07 1701.12 3972.49 1705.55 3970.07L1716.81 3968.06C1719.63 3966.45 1722.44 3964.84 1725.26 3964.04H1724.86C1724.86 3964.44 1729.28 3963.24 1729.28 3963.24C1730.49 3963.24 1732.5 3963.24 1734.11 3964.84C1735.72 3966.05 1736.52 3967.66 1736.52 3968.87C1735.72 3970.48 1734.91 3971.68 1734.11 3972.89L1726.87 3971.68H1723.25L1719.22 3970.88C1718.02 3970.88 1709.57 3976.11 1709.57 3976.51L1706.35 3977.72L1700.32 3979.73L1689.86 3978.52H1688.25C1688.25 3978.12 1683.02 3976.91 1683.02 3976.91V3980.13C1683.02 3980.13 1686.64 3980.93 1687.04 3980.93C1685.43 3983.35 1681.41 3989.78 1681.41 3989.78H1683.02L1690.66 3992.2C1684.22 4001.45 1678.99 4011.9 1676.18 4024.37L1669.34 4023.57C1672.96 4008.28 1673.36 3993.4 1673.36 3972.89V3973.29ZM1651.24 4023.57L1657.27 4025.18L1656.47 4025.98L1654.45 4027.99C1652.85 4027.99 1651.64 4027.19 1650.83 4024.78V4023.97L1651.24 4023.57ZM1641.18 4029.6L1641.98 4026.79C1641.98 4024.78 1642.79 4023.17 1644.8 4022.36C1644.8 4022.36 1646.01 4022.36 1647.21 4023.17L1648.02 4025.58C1648.42 4027.19 1650.03 4031.21 1654.86 4031.21L1659.28 4027.99L1661.29 4025.98C1662.5 4025.98 1664.51 4026.79 1665.72 4026.79V4028.4L1668.94 4034.83C1669.74 4035.23 1696.7 4039.66 1699.11 4040.06C1699.11 4040.86 1699.91 4041.67 1700.32 4042.07L1701.52 4043.28L1711.58 4044.48C1712.39 4045.29 1712.79 4046.5 1712.79 4047.3C1712.79 4048.1 1712.79 4048.1 1712.79 4048.51C1711.58 4048.51 1710.37 4048.91 1710.37 4048.91C1709.17 4049.31 1708.76 4049.31 1708.36 4048.91C1708.36 4048.91 1684.63 4045.29 1681.41 4044.89L1653.65 4039.26L1640.78 4036.84C1641.58 4034.83 1641.98 4032.42 1641.58 4029.6H1641.18ZM1658.48 4044.48C1658.48 4044.48 1656.47 4043.28 1655.66 4043.28C1661.29 4044.48 1673.36 4046.9 1676.98 4047.7C1675.78 4047.7 1674.97 4048.91 1674.17 4050.12L1669.74 4052.53C1669.74 4052.53 1668.13 4052.53 1665.32 4052.53L1662.5 4049.31L1658.48 4044.48ZM1661.7 4052.93C1656.87 4053.33 1651.24 4053.74 1648.42 4054.14L1650.43 4050.12L1652.85 4048.1L1655.26 4046.09L1656.87 4047.3L1659.68 4050.92L1661.7 4052.93ZM1636.35 4030.41H1637.96C1637.96 4032.82 1637.96 4034.83 1636.35 4036.44C1635.95 4036.44 1635.55 4036.44 1635.15 4036.44C1634.34 4036.44 1633.94 4035.23 1633.54 4034.43C1633.54 4034.43 1632.73 4031.61 1632.33 4029.6C1633.94 4029.6 1635.95 4030.41 1635.95 4030.41M1627.1 4037.24C1624.28 4035.23 1623.08 4034.03 1623.88 4032.42C1624.69 4030.41 1627.5 4028.4 1628.71 4028.8C1628.71 4028.8 1628.71 4028.8 1629.51 4028.8L1631.12 4035.23C1631.52 4037.24 1632.73 4038.85 1634.74 4039.66C1636.35 4040.06 1637.96 4039.66 1639.17 4039.26C1639.17 4039.66 1653.25 4042.47 1653.25 4042.47C1653.25 4042.47 1654.45 4042.47 1656.06 4042.88L1651.24 4045.69L1649.23 4047.3L1639.97 4046.5H1631.93C1631.93 4045.69 1631.93 4045.29 1631.93 4045.29V4044.48C1632.33 4044.48 1631.93 4043.28 1631.93 4043.28L1626.7 4037.24H1627.1ZM1615.03 4044.89C1616.64 4044.08 1619.05 4044.89 1622.67 4046.5L1628.71 4048.91C1628.71 4048.91 1644 4050.12 1646.41 4050.12C1645.6 4051.32 1644.8 4053.33 1644.4 4054.14L1620.26 4056.15L1617.85 4052.93C1615.43 4049.31 1613.82 4047.3 1614.63 4044.48L1615.03 4044.89ZM1619.86 4070.63C1619.86 4070.63 1615.43 4073.04 1613.82 4074.25C1613.82 4074.25 1613.02 4073.85 1613.02 4073.45C1613.02 4073.45 1614.63 4070.63 1615.83 4069.02L1621.87 4069.83C1621.06 4070.23 1620.26 4070.63 1620.26 4070.63H1619.86ZM1679.4 4068.62L1668.13 4069.83C1668.94 4069.83 1638.77 4067.41 1638.77 4067.41L1628.31 4066.21C1628.31 4066.21 1627.5 4066.21 1626.7 4067.01H1623.48C1623.48 4066.61 1618.25 4065.8 1618.25 4065.8H1615.83C1611.41 4064.6 1607.39 4067.01 1604.17 4069.02C1600.95 4071.03 1599.34 4071.43 1597.73 4071.03C1600.15 4068.62 1608.59 4059.77 1609.8 4058.56C1610.61 4058.56 1612.21 4058.96 1612.21 4058.96L1620.66 4059.77H1621.47H1624.28L1648.42 4057.76L1665.72 4056.15H1671.75C1672.16 4055.34 1675.37 4053.74 1676.58 4052.93C1677.79 4053.74 1692.27 4060.98 1699.51 4065C1694.28 4065.8 1684.22 4067.81 1680.2 4068.62H1679.4ZM1679.8 4071.84L1701.93 4067.81C1701.93 4067.81 1702.73 4067.81 1703.13 4067.81C1704.34 4071.43 1707.16 4075.05 1710.37 4075.05C1713.99 4075.05 1720.83 4074.25 1724.86 4070.63C1724.45 4070.63 1738.53 4063.79 1738.53 4063.79C1738.53 4063.79 1750.6 4057.76 1751.81 4056.95C1760.26 4061.38 1769.11 4065.8 1777.56 4067.81C1792.44 4070.63 1802.1 4065.8 1812.15 4060.57C1812.15 4060.57 1816.18 4058.56 1818.59 4057.36C1818.59 4057.76 1822.61 4065.4 1824.22 4068.22C1816.98 4075.46 1812.15 4084.31 1809.34 4091.14C1808.13 4093.96 1808.13 4096.77 1809.34 4099.19L1778.36 4100.39H1755.03L1756.23 4102.41L1757.84 4105.22C1756.64 4105.22 1755.83 4105.22 1755.83 4105.22C1749.8 4105.22 1743.76 4105.22 1738.13 4108.04H1737.33V4109.65C1737.33 4113.67 1740.14 4115.68 1742.56 4117.69L1746.18 4121.71C1746.18 4122.92 1746.58 4124.13 1746.58 4125.33C1746.58 4126.54 1746.58 4127.34 1745.78 4128.55C1741.75 4128.55 1738.53 4129.35 1738.13 4129.35C1736.92 4128.55 1734.91 4126.94 1734.91 4126.94C1731.69 4125.73 1727.67 4126.94 1725.26 4127.75C1725.26 4127.75 1724.45 4128.55 1723.65 4128.95C1701.93 4117.29 1684.63 4094.76 1679.8 4071.84ZM1816.58 4101.6C1819.39 4101.6 1823.02 4100.8 1823.02 4100.8C1823.02 4100.8 1829.45 4099.99 1833.88 4099.19C1832.27 4100.39 1830.26 4102 1827.84 4103.61C1817.38 4103.61 1806.52 4111.25 1795.66 4118.9L1787.61 4124.53L1759.86 4126.94C1759.86 4126.94 1754.63 4127.34 1749.4 4128.15C1749.4 4126.94 1749.8 4126.14 1749.8 4125.33C1749.8 4123.72 1749.8 4122.11 1748.99 4120.51L1744.17 4115.28C1742.56 4114.07 1741.35 4112.46 1740.55 4110.85C1742.56 4110.05 1744.97 4109.24 1747.38 4109.24L1748.19 4110.45C1750.6 4114.47 1752.61 4117.69 1755.03 4118.9C1757.44 4118.9 1759.86 4118.9 1761.87 4118.49L1772.33 4117.69C1788.02 4114.87 1801.29 4110.85 1816.98 4103.21V4102.41L1816.58 4101.6ZM1751 4108.44C1752.61 4108.44 1753.82 4108.44 1755.43 4108.44H1759.05C1761.06 4111.25 1761.46 4113.27 1760.66 4114.87C1759.05 4114.87 1757.04 4114.87 1755.43 4115.28C1754.63 4114.87 1752.21 4110.05 1751 4108.44ZM1763.88 4114.47C1764.28 4111.66 1763.07 4109.24 1761.46 4106.43C1761.46 4104.82 1760.66 4104.01 1760.26 4103.21C1764.28 4103.21 1778.36 4103.21 1778.36 4103.21L1809.74 4102C1794.45 4108.84 1780.77 4112.46 1764.28 4114.47H1763.88ZM1734.11 4142.23L1725.66 4141.42C1724.05 4140.21 1723.25 4139.01 1723.25 4137C1723.25 4134.99 1723.25 4135.79 1723.25 4135.39C1723.25 4135.39 1724.05 4132.97 1724.45 4131.77L1726.47 4130.56C1728.07 4129.76 1730.89 4129.35 1733.3 4129.76L1736.12 4131.77H1737.33C1737.33 4132.17 1743.36 4131.77 1743.36 4131.77H1747.38L1759.45 4130.16L1784.8 4127.75C1781.98 4132.17 1778.76 4132.17 1774.74 4131.77L1765.09 4133.38C1763.48 4133.38 1761.87 4133.78 1760.26 4134.58L1757.44 4133.78C1757.04 4133.78 1741.75 4133.78 1741.75 4133.78H1740.95L1740.14 4134.99L1736.52 4139.41L1734.11 4141.42V4142.23ZM1738.53 4142.63C1738.53 4142.63 1740.95 4139.01 1742.56 4137.4C1743.36 4137.4 1751.81 4137.4 1755.43 4137.4C1752.61 4139.01 1749.4 4141.02 1746.58 4143.83L1738.53 4143.03V4142.63ZM1794.05 4154.29L1792.44 4155.5L1786.41 4160.33C1780.37 4165.15 1774.34 4169.98 1768.3 4171.59C1756.64 4172.39 1745.37 4178.43 1737.33 4187.27C1736.12 4187.27 1725.26 4186.07 1723.25 4185.67C1728.07 4182.85 1738.53 4177.22 1738.53 4177.22L1749.8 4171.59L1758.65 4164.75L1768.3 4156.71L1769.91 4155.9C1782.38 4147.86 1794.85 4139.81 1806.92 4133.78C1807.73 4137.8 1809.74 4141.42 1812.56 4144.24L1794.05 4154.69V4154.29ZM1824.62 4128.95V4127.34L1825.83 4128.55L1828.65 4126.94L1837.9 4122.52L1847.96 4117.69C1849.16 4117.69 1850.37 4117.29 1851.58 4116.89L1849.16 4119.7L1830.66 4130.16C1829.85 4130.96 1827.44 4139.41 1827.44 4139.41H1828.25L1827.44 4140.62C1827.44 4140.62 1825.43 4142.63 1822.61 4145.44L1816.98 4143.03C1814.57 4140.62 1810.54 4136.19 1810.54 4131.37C1810.95 4128.15 1812.15 4124.13 1814.97 4122.52C1814.97 4122.52 1815.77 4122.52 1816.18 4122.52L1817.38 4123.72C1819.8 4126.14 1822.21 4128.95 1825.83 4129.35L1824.62 4128.95ZM1819.8 4122.11C1821 4122.11 1824.62 4121.31 1827.44 4120.91C1827.04 4122.11 1826.23 4123.72 1826.23 4124.53L1824.62 4125.33C1823.02 4124.93 1821.41 4123.32 1819.8 4121.71M1830.26 4122.52C1830.26 4121.71 1830.66 4120.91 1831.06 4120.51C1831.46 4120.51 1831.87 4120.51 1831.87 4120.51C1833.47 4120.51 1835.08 4120.1 1836.69 4119.7L1830.66 4122.52H1830.26ZM1842.73 4126.14C1842.73 4126.14 1842.73 4126.54 1842.33 4126.94L1832.27 4135.39L1831.06 4136.19C1831.46 4134.18 1832.27 4131.77 1832.27 4131.77C1832.27 4131.77 1837.9 4128.95 1842.73 4126.14ZM1797.67 4169.98C1797.67 4169.58 1796.87 4169.17 1796.87 4168.37C1796.87 4167.57 1796.87 4166.76 1796.87 4165.96V4160.33C1796.87 4160.33 1795.66 4158.31 1795.26 4157.11C1795.26 4157.11 1813.36 4146.65 1814.97 4146.25C1815.77 4146.25 1817.79 4147.45 1818.99 4148.26C1814.97 4152.28 1810.14 4157.11 1807.73 4159.52C1804.11 4161.13 1801.29 4164.75 1800.08 4169.58C1798.88 4169.98 1798.07 4170.38 1797.27 4170.78L1797.67 4169.98ZM1805.72 4167.16C1805.72 4167.16 1805.31 4167.16 1804.51 4167.57C1805.72 4165.15 1807.33 4163.14 1809.34 4162.34H1809.74C1810.95 4163.54 1811.75 4163.95 1812.15 4164.75L1805.72 4167.57V4167.16ZM1818.99 4167.97V4170.38C1818.99 4170.38 1819.8 4175.61 1819.8 4177.62C1818.59 4178.43 1817.79 4178.43 1816.98 4178.43C1815.77 4176.41 1815.77 4172.39 1815.37 4168.37V4165.55V4165.15C1815.37 4165.15 1815.37 4165.15 1815.37 4164.75V4163.14C1814.57 4161.53 1813.36 4160.73 1812.15 4159.92C1814.57 4157.51 1829.45 4142.63 1829.45 4142.63L1835.08 4137.4L1839.51 4133.78C1835.49 4139.81 1823.02 4159.52 1821.41 4161.93C1818.59 4163.54 1819.39 4166.36 1819.8 4167.97H1818.99ZM1823.02 4175.61V4170.78C1823.02 4171.19 1822.21 4167.16 1822.21 4167.16C1822.21 4165.96 1822.21 4165.55 1822.21 4165.15C1823.82 4166.36 1824.22 4168.77 1824.62 4172.39V4174L1823.02 4175.21V4175.61ZM1840.31 4156.71L1839.11 4159.52C1836.29 4161.93 1835.89 4165.15 1837.1 4169.17L1838.7 4171.99C1839.91 4174.4 1840.72 4175.61 1839.51 4177.62C1839.51 4178.83 1838.7 4179.23 1837.9 4179.63C1836.29 4180.03 1833.88 4179.63 1833.07 4178.43C1833.07 4178.43 1829.45 4175.21 1828.25 4174V4171.99C1827.44 4168.37 1826.64 4165.15 1823.82 4163.14C1825.03 4161.13 1843.13 4133.38 1843.13 4133.38C1844.34 4128.95 1846.75 4126.14 1849.57 4123.32L1853.19 4119.7L1858.82 4113.67C1858.82 4113.67 1858.82 4114.47 1858.82 4114.87C1850.37 4130.96 1844.74 4143.83 1839.91 4156.71H1840.31ZM1851.58 4183.25C1851.58 4183.25 1848.36 4185.26 1845.54 4186.87C1846.35 4184.86 1846.75 4183.25 1847.96 4181.24C1849.97 4178.43 1851.98 4175.21 1851.98 4171.59C1851.98 4171.59 1851.98 4170.38 1851.98 4169.58L1856.81 4170.38V4174C1856.81 4175.21 1856.81 4176.01 1856.81 4177.22C1856.81 4180.03 1856 4182.05 1851.58 4183.65V4183.25ZM1864.05 4149.47L1862.84 4155.1C1862.84 4155.5 1863.65 4159.52 1863.65 4159.52C1863.65 4161.13 1864.05 4162.34 1864.05 4163.14C1864.05 4163.95 1864.05 4165.15 1862.84 4165.96L1857.61 4166.76L1850.37 4165.55C1848.36 4162.34 1845.54 4160.33 1842.33 4159.12V4157.91C1844.74 4157.51 1845.54 4155.9 1846.35 4154.29L1847.96 4152.28C1848.36 4151.88 1856 4142.63 1856 4142.63C1859.62 4138.61 1863.24 4134.58 1865.66 4130.16C1865.66 4130.96 1865.66 4132.17 1865.66 4132.97C1865.66 4138.2 1864.45 4143.83 1863.65 4149.06L1864.05 4149.47ZM1864.45 4123.32C1864.45 4123.72 1864.45 4124.53 1864.85 4124.93C1862.44 4130.56 1858.01 4135.79 1853.59 4140.62C1853.59 4140.62 1847.15 4148.66 1846.35 4149.87C1850.37 4139.41 1855.2 4128.95 1862.04 4116.08L1860.03 4115.28H1862.04V4114.07V4112.46L1866.06 4110.45H1867.67C1866.46 4115.28 1864.45 4124.13 1864.45 4124.13V4123.32ZM1872.5 4101.6L1868.88 4105.22L1865.26 4106.83L1862.84 4108.44L1860.43 4109.65L1856.81 4111.25C1848.76 4114.87 1840.31 4116.08 1831.06 4116.89L1818.99 4118.9H1816.98H1813.76C1808.53 4120.91 1806.92 4126.14 1806.52 4129.76C1794.05 4135.79 1780.77 4144.24 1767.9 4152.68L1766.69 4153.49L1753.82 4155.1C1742.56 4155.9 1728.07 4156.71 1719.63 4168.37C1717.61 4171.19 1715.2 4172.79 1712.79 4173.6C1713.59 4167.97 1717.61 4160.73 1723.25 4157.91C1727.67 4154.29 1731.69 4153.49 1736.52 4152.68L1746.58 4149.87L1747.38 4149.06C1747.79 4149.06 1748.99 4147.86 1748.99 4146.65C1755.03 4141.42 1761.87 4137.8 1766.69 4137.4C1767.1 4137.4 1775.54 4136.19 1775.54 4136.19C1780.37 4136.19 1786 4136.59 1789.62 4127.34C1788.82 4128.15 1797.67 4122.11 1797.67 4122.11C1808.13 4114.87 1818.59 4107.23 1829.05 4107.23C1834.68 4104.01 1837.9 4101.6 1839.91 4098.79C1841.12 4098.38 1842.73 4097.58 1842.73 4097.58L1841.12 4094.76L1837.9 4096.37L1822.61 4098.38C1822.61 4098.38 1814.57 4099.59 1814.16 4099.59L1812.96 4098.38C1812.56 4097.58 1812.15 4096.77 1812.15 4095.57C1812.15 4094.36 1812.15 4093.56 1812.56 4092.75C1816.18 4083.9 1822.61 4071.84 1834.28 4064.6L1835.49 4073.85C1833.88 4075.05 1832.27 4075.05 1829.85 4075.05H1825.03V4076.26L1821 4091.55L1820.2 4092.75L1819.39 4095.57L1822.21 4093.96H1822.61L1823.42 4093.15L1829.85 4089.53C1838.7 4084.31 1847.55 4078.67 1855.2 4083.5H1856C1856 4083.9 1856 4083.9 1856 4083.9L1856.81 4084.71C1857.61 4084.71 1859.22 4085.51 1859.62 4085.51L1864.45 4088.33C1866.46 4092.75 1870.49 4097.18 1875.72 4098.38L1872.5 4102V4101.6ZM1887.38 4085.91C1886.58 4089.53 1883.36 4094.36 1878.53 4094.76C1873.7 4094.76 1869.68 4090.34 1868.07 4086.32V4085.51C1868.88 4083.1 1870.08 4079.88 1872.09 4078.67L1873.3 4077.87L1868.88 4069.02C1868.88 4068.22 1869.28 4066.21 1869.68 4065.4C1875.31 4063.79 1879.74 4063.39 1885.77 4066.21L1890.2 4076.26C1888.99 4079.08 1888.19 4081.89 1888.19 4085.11M1907.5 4045.29C1900.26 4045.29 1899.05 4051.32 1897.44 4057.36L1895.83 4063.39L1892.61 4070.63C1892.61 4071.03 1892.21 4071.84 1891.81 4072.64L1888.99 4065.8L1893.82 4058.16L1895.43 4055.75L1897.84 4050.92C1899.85 4046.9 1902.27 4042.88 1901.46 4039.26C1901.86 4038.05 1903.47 4034.83 1903.47 4034.83C1903.47 4034.83 1904.28 4034.83 1904.68 4034.03V4034.43L1903.88 4037.24H1905.48L1905.89 4039.26L1911.52 4037.24V4038.45C1911.52 4041.27 1911.12 4044.08 1907.9 4046.09L1907.5 4045.29ZM1912.73 4034.43V4032.82C1912.32 4032.82 1907.09 4034.83 1907.09 4034.83V4034.03C1907.09 4033.22 1906.29 4030.41 1906.29 4030.41L1905.48 4027.99L1899.85 4032.02C1899.85 4032.02 1899.45 4032.82 1898.65 4034.03C1897.84 4031.21 1896.63 4027.59 1896.23 4025.98C1898.65 4025.18 1912.32 4021.16 1914.74 4020.35C1915.54 4022.36 1917.15 4028.4 1917.96 4030.41C1915.94 4030.81 1911.92 4032.42 1911.92 4032.42V4034.03H1912.32L1912.73 4034.43ZM1701.52 4270.13C1702.33 4269.33 1703.13 4268.52 1703.94 4268.12C1703.13 4268.93 1702.33 4269.33 1701.52 4270.13ZM1554.28 4095.97H1553.48C1553.48 4096.37 1553.88 4095.97 1554.28 4095.97ZM1625.09 4201.35V4200.95C1625.09 4200.95 1625.09 4200.95 1625.09 4201.35ZM1549.86 4029.2C1549.86 4029.2 1549.46 4029.2 1549.05 4029.2C1549.05 4029.2 1549.05 4029.6 1549.86 4029.2ZM1931.63 4171.99C1932.04 4171.19 1932.44 4169.98 1932.84 4169.17C1932.04 4170.38 1931.63 4171.19 1930.83 4172.39H1931.23L1931.63 4171.99Z" fill="url(#paint15_radial_11_103)"/>
<path d="M836.165 3933.89V3940.32H799.959V3935.5L819.672 3915.38C824.499 3910.16 828.522 3905.73 828.522 3899.7C828.522 3893.66 824.097 3888.44 817.66 3888.44C811.223 3888.44 808.005 3891.25 805.189 3896.48L799.959 3892.86C803.178 3886.42 808.81 3882 818.062 3882C827.315 3882 835.763 3888.44 835.763 3898.89C835.763 3909.35 832.947 3910.96 825.706 3918.2L810.821 3933.48H836.568L836.165 3933.89Z" fill="black"/>
<path d="M872.786 3909.35C879.223 3911.36 883.648 3916.99 883.648 3924.64C883.648 3932.28 874.798 3941.13 863.131 3941.13C851.465 3941.13 843.017 3934.29 843.017 3924.64C843.017 3914.98 847.844 3911.36 853.879 3909.35C849.856 3907.74 845.833 3903.32 845.833 3896.88C845.833 3887.63 853.476 3882 863.131 3882C872.786 3882 880.832 3888.03 880.832 3896.88C880.832 3905.73 876.809 3907.74 872.786 3908.95V3909.35ZM876.407 3923.83C876.407 3917.4 871.177 3912.57 863.131 3912.57C855.085 3912.57 850.258 3916.99 850.258 3923.83C850.258 3930.67 855.89 3934.69 863.131 3934.69C870.372 3934.69 876.407 3929.86 876.407 3923.83ZM863.533 3888.44C857.097 3888.44 853.074 3892.46 853.074 3897.28C853.074 3902.11 857.499 3906.13 863.533 3906.13C869.568 3906.13 874.395 3902.92 874.395 3897.28C874.395 3891.65 869.97 3888.44 863.533 3888.44Z" fill="black"/>
<path d="M829.326 4192.51C812.43 4192.51 797.948 4182.05 797.948 4161.94C797.948 4141.83 809.212 4130.97 829.326 4130.97C849.441 4130.97 847.027 4134.59 853.866 4142.63L843.407 4151.48C840.591 4147.86 835.361 4144.64 829.326 4144.64C820.476 4144.64 812.833 4151.08 812.833 4161.94C812.833 4172.8 819.269 4178.83 829.326 4178.83C839.384 4178.83 840.188 4176.02 843.407 4172L853.866 4180.84C848.637 4187.28 840.188 4192.11 829.326 4192.11V4192.51Z" fill="black"/>
<path d="M904.563 3890.03H886.862V3883.19H930.31V3890.03H912.206V3940.31H904.965V3890.03H904.563Z" fill="black"/>
<path d="M939.945 3883.6H947.186V3908.94H978.565V3883.6H985.806V3940.72H978.565V3915.78H947.186V3940.72H939.945V3883.6Z" fill="black"/>
<path d="M799.553 4002.28V3967.28H813.633V4001.07C813.633 4008.31 817.254 4014.75 824.093 4014.75C830.932 4014.75 834.955 4009.92 834.955 4001.07V3967.28H849.035V4002.28C849.035 4017.96 840.185 4028.02 824.093 4028.02C808.001 4028.02 799.553 4018.77 799.553 4002.28Z" fill="black"/>
<path d="M909.793 3967.28V4027.21H895.31L872.782 3991.42V4027.21H858.702V3967.28H872.782L895.713 4003.89V3967.28H909.793Z" fill="black"/>
<path d="M920.241 3967.28H934.321V4027.21H920.241V3967.28Z" fill="black"/>
<path d="M996.668 3967.28L974.542 4027.21H962.071L939.945 3967.28H955.232L968.105 4007.1L980.979 3967.28H996.266H996.668Z" fill="black"/>
<path d="M1001.89 3967.28H1040.91V3979.75H1015.57V3991.01H1035.68V4003.48H1015.57V4014.34H1042.52V4026.81H1001.89V3966.88V3967.28Z" fill="black"/>
<path d="M1081.56 4027.21L1069.49 4007.91H1064.66V4027.21H1050.99V3967.28H1074.32C1089.2 3967.28 1095.64 3976.13 1095.64 3987.8C1095.64 3999.46 1091.62 4002.68 1084.38 4005.9L1098.46 4027.21H1081.96H1081.56ZM1064.26 3995.44H1070.7C1076.73 3995.44 1080.35 3992.62 1080.35 3987.39C1080.35 3982.17 1077.13 3979.35 1070.7 3979.35H1063.86V3995.04L1064.26 3995.44Z" fill="black"/>
<path d="M1100.45 4018.35L1108.9 4007.9C1113.32 4012.72 1118.96 4015.14 1122.98 4015.14C1127 4015.14 1129.82 4012.72 1129.82 4010.31C1129.82 4007.9 1127.81 4005.48 1120.97 4003.47C1111.71 4000.25 1102.86 3996.23 1102.86 3984.16C1102.86 3972.1 1111.72 3966.47 1122.58 3966.47C1130.22 3966.47 1137.46 3969.28 1143.5 3974.11L1135.45 3984.57C1130.22 3980.54 1126.6 3978.94 1122.98 3978.94C1119.36 3978.94 1117.75 3980.54 1117.35 3983.76C1117.35 3986.58 1119.36 3987.78 1126.2 3990.2C1136.66 3994.22 1144.7 3997.04 1144.7 4008.7C1144.7 4020.36 1132.63 4028.01 1122.98 4028.01C1113.32 4028.01 1107.29 4024.79 1100.85 4018.35H1100.45Z" fill="black"/>
<path d="M1184.95 4016.35H1164.03L1160.41 4027.21H1145.52L1167.25 3967.28H1180.93L1203.05 4027.21H1188.17L1184.55 4016.35H1184.95ZM1181.33 4004.69L1174.89 3984.58L1168.45 4004.69H1181.73H1181.33Z" fill="black"/>
<path d="M1208.7 3967.28H1222.78V4014.34H1247.72V4026.81H1208.7V3966.88V3967.28Z" fill="black"/>
<path d="M799.553 4049.32H822.082C836.966 4049.32 843.403 4058.17 843.403 4069.84C843.403 4081.5 834.553 4089.55 820.875 4089.55H813.231V4108.85H799.553V4048.92V4049.32ZM819.266 4077.48C825.3 4077.48 828.92 4074.66 828.92 4069.44C828.92 4064.21 825.702 4061.39 819.668 4061.39H813.633V4077.08H819.668L819.266 4077.48Z" fill="black"/>
<path d="M848.234 4079.49C848.234 4061.39 860.705 4048.92 879.211 4048.92C897.716 4048.92 909.785 4061.39 909.785 4079.49C909.785 4097.59 896.912 4110.06 879.211 4110.06C861.51 4110.06 848.234 4097.19 848.234 4079.49ZM894.9 4079.49C894.9 4069.44 888.061 4061.79 878.808 4061.79C869.556 4061.79 862.717 4069.44 862.717 4079.49C862.717 4089.55 869.153 4097.19 878.808 4097.19C888.463 4097.19 894.9 4089.55 894.9 4079.49Z" fill="black"/>
<path d="M913.796 4100.81L922.244 4090.35C926.669 4095.18 932.301 4097.59 936.324 4097.59C940.347 4097.59 943.163 4095.18 943.163 4092.76C943.163 4090.35 941.152 4087.94 934.313 4085.93C925.06 4082.71 916.21 4078.69 916.21 4066.62C916.21 4054.55 925.06 4048.92 935.922 4048.92C943.565 4048.92 950.807 4051.74 956.841 4056.56L948.795 4067.02C943.566 4063 939.945 4061.39 936.324 4061.39C932.704 4061.39 931.094 4063 930.692 4066.22C930.692 4069.03 932.704 4070.24 939.543 4072.65C950.002 4076.68 958.048 4079.49 958.048 4091.16C958.048 4102.82 945.979 4110.46 936.324 4110.46C926.669 4110.46 920.635 4107.24 914.198 4100.81H913.796Z" fill="black"/>
<path d="M976.565 4062.21H960.876V4049.74H1006.33V4062.21H990.646V4109.27H976.565V4062.21Z" fill="black"/>
<path d="M1040.53 4098.81H1019.61L1015.99 4109.67H1001.1L1022.83 4049.74H1036.51L1058.63 4109.67H1043.75L1040.13 4098.81H1040.53ZM1036.51 4086.74L1030.07 4066.63L1023.63 4086.74H1036.91H1036.51Z" fill="black"/>
<path d="M1063.87 4049.73H1077.95V4096.79H1102.89V4109.26H1063.87V4049.33V4049.73Z" fill="black"/>
<path d="M856.28 4161.95C856.28 4143.85 869.154 4131.38 887.659 4131.38C906.164 4131.38 919.038 4143.85 919.038 4161.95C919.038 4180.05 905.762 4192.52 887.659 4192.52C869.556 4192.52 856.28 4179.64 856.28 4161.95ZM904.153 4161.95C904.153 4151.89 897.314 4144.25 887.659 4144.25C878.004 4144.25 871.165 4151.89 871.165 4161.95C871.165 4172 878.004 4179.64 887.659 4179.64C897.314 4179.64 904.153 4172 904.153 4161.95Z" fill="black"/>
<path d="M978.976 4132.19V4192.13H964.091L940.758 4156.33V4192.13H926.275V4132.19H940.758L964.091 4168.8V4132.19H978.573H978.976Z" fill="black"/>
<path d="M987.435 4161.94C987.435 4144.64 998.699 4130.97 1018.41 4130.97C1038.12 4130.97 1036.92 4134.59 1042.95 4141.83L1032.89 4150.28C1029.68 4147.06 1024.85 4144.24 1018.41 4144.24C1011.97 4144.24 1002.72 4150.68 1002.72 4161.94C1002.72 4173.2 1008.76 4179.64 1019.22 4179.64C1029.68 4179.64 1026.06 4178.83 1029.68 4176.82V4169.98H1018.01V4157.92H1043.35V4184.87C1037.72 4188.89 1028.47 4192.11 1019.22 4192.11C1001.52 4192.11 987.837 4181.25 987.837 4161.54L987.435 4161.94Z" fill="black"/>
<path d="M1083.99 4191.72L1071.52 4172.41H1066.29V4191.72H1052.21V4131.78H1075.94C1090.83 4131.78 1097.67 4140.63 1097.67 4152.3C1097.67 4163.96 1093.24 4167.18 1086.4 4170.4L1100.89 4191.72H1083.99ZM1066.29 4160.34H1072.73C1078.76 4160.34 1082.78 4157.53 1082.78 4152.3C1082.78 4147.07 1079.56 4144.25 1073.13 4144.25H1066.29V4159.94V4160.34Z" fill="black"/>
<path d="M1106.9 4132.19H1146.72V4144.66H1120.98V4155.92H1141.49V4168.39H1120.98V4179.25H1148.73V4191.72H1106.9V4131.78V4132.19Z" fill="black"/>
<path d="M1155.17 4183.26L1163.62 4172.81C1168.45 4177.63 1173.68 4180.05 1178.1 4180.05C1182.53 4180.05 1184.94 4177.63 1184.94 4175.22C1184.94 4172.81 1182.93 4170.39 1175.69 4168.38C1166.43 4165.16 1157.18 4161.14 1157.18 4149.08C1157.18 4137.01 1166.03 4131.38 1177.3 4131.38C1185.34 4131.38 1192.58 4134.19 1198.62 4139.02L1190.57 4149.48C1185.34 4145.46 1181.32 4143.85 1178.1 4143.85C1174.88 4143.85 1172.47 4145.46 1172.47 4148.67C1172.47 4151.49 1174.48 4152.7 1181.32 4155.11C1192.18 4159.13 1200.23 4161.95 1200.23 4173.61C1200.23 4185.28 1187.76 4192.92 1178.1 4192.92C1168.45 4192.92 1162.01 4189.7 1155.57 4183.26H1155.17Z" fill="black"/>
<path d="M1203.07 4183.26L1211.52 4172.81C1216.34 4177.63 1221.57 4180.05 1226 4180.05C1230.42 4180.05 1232.84 4177.63 1232.84 4175.22C1232.84 4172.81 1230.83 4170.39 1223.58 4168.38C1214.33 4165.16 1205.08 4161.14 1205.08 4149.08C1205.08 4137.01 1213.93 4131.38 1225.19 4131.38C1233.24 4131.38 1240.48 4134.19 1246.52 4139.02L1238.47 4149.48C1233.24 4145.46 1229.22 4143.85 1226 4143.85C1222.78 4143.85 1220.37 4145.46 1220.37 4148.67C1220.37 4151.49 1222.38 4152.7 1229.22 4155.11C1240.08 4159.13 1248.12 4161.95 1248.12 4173.61C1248.12 4185.28 1235.65 4192.92 1226 4192.92C1216.34 4192.92 1209.91 4189.7 1203.47 4183.26H1203.07Z" fill="black"/>
<path d="M799.545 4218.67H817.246C836.153 4218.67 848.222 4231.14 848.222 4248.84C848.222 4266.54 836.556 4278.6 817.246 4278.6H799.143V4218.67H799.545ZM817.246 4271.77C831.728 4271.77 840.981 4262.11 840.981 4248.44C840.981 4234.76 831.728 4225.11 817.648 4225.11H806.786V4271.77H817.246Z" fill="black"/>
<path d="M882.828 4279.01C869.15 4279.01 859.897 4269.76 859.897 4254.07V4218.67H867.138V4253.67C867.138 4264.53 873.173 4272.17 882.828 4272.17C892.483 4272.17 898.919 4265.33 898.919 4253.67V4218.67H906.161V4254.07C906.161 4269.35 897.31 4279.01 882.828 4279.01Z" fill="black"/>
<path d="M949.197 4246.82C956.036 4248.43 961.669 4253.26 961.669 4262.1C961.669 4270.95 955.232 4278.19 941.554 4278.19H919.83V4218.26H939.542C951.209 4218.26 958.852 4222.69 958.852 4232.74C958.852 4242.8 955.634 4244 949.197 4246.42V4246.82ZM927.474 4244.41H939.542C945.175 4244.41 951.209 4241.99 951.209 4234.75C951.209 4227.51 947.588 4225.5 937.933 4225.5H927.071V4244.41H927.474ZM939.945 4271.76C948.393 4271.76 954.427 4268.54 954.427 4261.7C954.427 4254.86 949.6 4250.84 940.347 4250.84H927.474V4271.76H939.945Z" fill="black"/>
<path d="M1007.12 4263.71H980.568L975.338 4278.19H967.695L990.223 4218.26H997.464L1020.39 4278.19H1012.75L1007.52 4263.71H1007.12ZM1005.11 4257.28L994.246 4227.51L983.384 4257.28H1005.51H1005.11Z" fill="black"/>
<path d="M1030.05 4218.67H1037.29V4278.6H1030.05V4218.67Z" fill="black"/>
<path d="M1106.9 4271.75V4278.19H1070.69V4273.36L1090.4 4253.25C1095.23 4248.02 1099.25 4243.6 1099.25 4237.56C1099.25 4231.53 1094.83 4226.3 1088.39 4226.3C1081.95 4226.3 1078.74 4229.12 1075.92 4234.35L1070.69 4230.73C1073.91 4224.29 1079.54 4219.87 1088.79 4219.87C1098.05 4219.87 1106.49 4226.3 1106.49 4236.76C1106.49 4247.22 1103.68 4248.83 1096.44 4256.07L1081.55 4271.35H1107.3L1106.9 4271.75Z" fill="black"/>
<path d="M1114.94 4249.64C1114.94 4232.34 1122.99 4220.27 1136.67 4220.27C1150.34 4220.27 1158.39 4230.73 1158.39 4249.64C1158.39 4268.54 1150.34 4279 1136.67 4279C1122.99 4279 1114.94 4268.54 1114.94 4249.64ZM1151.15 4249.64C1151.15 4234.75 1145.11 4226.71 1136.67 4226.71C1128.22 4226.71 1122.18 4235.56 1122.18 4249.64C1122.18 4263.71 1128.22 4272.56 1136.67 4272.56C1145.11 4272.56 1151.15 4263.71 1151.15 4249.64Z" fill="black"/>
<path d="M1201.84 4271.75V4278.19H1165.64V4273.36L1185.35 4253.25C1190.18 4248.02 1194.2 4243.6 1194.2 4237.56C1194.2 4231.53 1189.78 4226.3 1183.34 4226.3C1176.9 4226.3 1173.68 4229.12 1170.87 4234.35L1165.64 4230.73C1168.86 4224.29 1174.49 4219.87 1183.74 4219.87C1192.99 4219.87 1201.44 4226.3 1201.44 4236.76C1201.44 4247.22 1198.63 4248.83 1191.39 4256.07L1176.5 4271.35H1202.25L1201.84 4271.75Z" fill="black"/>
<path d="M1228.8 4241.6C1238.86 4241.6 1247.3 4248.44 1247.3 4260.1C1247.3 4271.77 1238.45 4279.01 1227.19 4279.01C1215.92 4279.01 1211.9 4275.39 1207.88 4269.35L1213.11 4265.33C1215.92 4269.75 1220.75 4272.57 1226.38 4272.57C1232.02 4272.57 1240.06 4267.34 1240.06 4260.1C1240.06 4252.86 1233.63 4248.03 1226.79 4248.03C1219.95 4248.03 1219.14 4248.84 1216.73 4251.25L1212.71 4250.05L1214.32 4220.68H1244.89V4227.12H1221.15L1220.35 4243.21C1223.57 4242 1226.79 4241.6 1229.2 4241.6H1228.8Z" fill="black"/>
<path d="M687.732 4137.81C681.698 4131.77 673.652 4128.56 664.399 4128.56C655.146 4128.56 661.985 4128.56 660.779 4128.56C654.342 4128.96 646.698 4131.77 639.055 4139.82L598.423 4180.84L617.331 4199.75L657.962 4158.72C658.767 4157.92 659.169 4157.52 659.974 4157.11C661.583 4155.91 663.192 4155.1 665.204 4155.1C667.215 4155.1 668.824 4155.91 668.824 4155.91C668.824 4155.91 676.468 4157.52 692.157 4192.51L704.226 4171.59C704.226 4171.59 705.433 4169.18 706.237 4167.97C719.111 4142.63 717.502 4113.27 702.215 4093.16C693.766 4081.9 618.94 4008.29 581.527 3972.09H543.309C592.389 4020.36 673.25 4100 680.893 4109.65C686.928 4117.7 689.341 4128.15 687.732 4139.01C687.732 4139.01 687.732 4139.01 687.33 4139.01L687.732 4137.81Z" fill="url(#paint16_radial_11_103)"/>
<path d="M456 4160.34V4198.55L552.148 4102.42L533.24 4083.52L456 4160.34Z" fill="url(#paint17_radial_11_103)"/>
<path d="M456 3883.6V3910.55H726.742V4038.86C743.638 4056.16 746.455 4060.18 748.868 4062.99C750.477 4065 752.087 4067.42 753.696 4069.83V3883.6H456Z" fill="url(#paint18_radial_11_103)"/>
<path d="M484.563 4251.63L633.411 4102.41L456 3925.43V3963.24L595.595 4102.41L456 4241.98V4278.18V4278.58L753.696 4278.18V4251.63H484.563Z" fill="url(#paint19_radial_11_103)"/>
<path d="M5247.63 2437C5165.88 2355.27 5056.89 2311.68 4931.55 2311.68C4806.2 2311.68 4898.85 2311.68 4882.5 2311.68C4795.31 2317.13 4691.76 2355.27 4588.22 2464.25L4037.8 3020.02L4293.94 3276.11L4844.35 2720.34C4855.25 2709.44 4860.7 2703.99 4871.6 2698.54C4893.4 2682.2 4915.2 2671.3 4942.45 2671.3C4969.69 2671.3 4991.49 2682.19 4991.49 2682.19C4991.49 2682.19 5095.04 2703.99 5307.57 3178.03L5471.06 2894.7C5471.06 2894.7 5487.41 2862 5498.31 2845.66C5672.7 2502.39 5650.9 2104.63 5443.82 1832.19C5329.37 1679.63 4315.73 682.526 3808.91 192.14H3291.19C3956.05 845.988 5051.44 1924.82 5154.98 2055.59C5236.73 2164.57 5269.43 2306.23 5247.63 2453.35C5247.63 2453.35 5247.63 2453.35 5242.18 2453.35L5247.63 2437Z" fill="#9FD7F8" fill-opacity="0.11"/>
<path d="M2108.45 2742.28V3259.91L3410.93 1957.67L3154.79 1701.58L2108.45 2742.28Z" fill="#9FD7F8" fill-opacity="0.11"/>
<path d="M2495.38 3978.93L4511.76 1957.45L2108.45 -440V72.1807L3999.49 1957.45L2108.45 3848.17V4338.55L2495.38 3978.93Z" fill="#9FD7F8" fill-opacity="0.11"/>
<mask id="mask0_11_103" style="mask-type:luminance" maskUnits="userSpaceOnUse" x="258" y="1570" width="6829" height="3037">
<path d="M7086.76 1570H258V4607H7086.76V1570Z" fill="white"/>
</mask>
<g mask="url(#mask0_11_103)">
</g>
</g>
<defs>
<radialGradient id="paint0_radial_11_103" cx="0" cy="0" r="1" gradientUnits="userSpaceOnUse" gradientTransform="translate(1916.63 4125.36) rotate(-90) scale(96.6025 108.09)">
<stop stop-color="#0073C0"/>
<stop offset="0.3" stop-color="#005C97"/>
<stop offset="0.6" stop-color="#004774"/>
<stop offset="0.8" stop-color="#003B5E"/>
<stop offset="1" stop-color="#003757"/>
</radialGradient>
<radialGradient id="paint1_radial_11_103" cx="0" cy="0" r="1" gradientUnits="userSpaceOnUse" gradientTransform="translate(1966.32 4012.36) rotate(-90) scale(113.897 57.6767)">
<stop stop-color="#0073C0"/>
<stop offset="0.3" stop-color="#005C97"/>
<stop offset="0.6" stop-color="#004774"/>
<stop offset="0.8" stop-color="#003B5E"/>
<stop offset="1" stop-color="#003757"/>
</radialGradient>
<radialGradient id="paint2_radial_11_103" cx="0" cy="0" r="1" gradientUnits="userSpaceOnUse" gradientTransform="translate(1953.91 3946.99) rotate(-90) scale(116.429 60.6671)">
<stop stop-color="#0073C0"/>
<stop offset="0.3" stop-color="#005C97"/>
<stop offset="0.6" stop-color="#004774"/>
<stop offset="0.8" stop-color="#003B5E"/>
<stop offset="1" stop-color="#003757"/>
</radialGradient>
<radialGradient id="paint3_radial_11_103" cx="0" cy="0" r="1" gradientUnits="userSpaceOnUse" gradientTransform="translate(1931.22 3912.52) rotate(-90) scale(89.853 60.24)">
<stop stop-color="#0073C0"/>
<stop offset="0.3" stop-color="#005C97"/>
<stop offset="0.6" stop-color="#004774"/>
<stop offset="0.8" stop-color="#003B5E"/>
<stop offset="1" stop-color="#003757"/>
</radialGradient>
<radialGradient id="paint4_radial_11_103" cx="0" cy="0" r="1" gradientUnits="userSpaceOnUse" gradientTransform="translate(1908.51 3887.95) rotate(-90) scale(61.1675 58.1038)">
<stop stop-color="#0073C0"/>
<stop offset="0.3" stop-color="#005C97"/>
<stop offset="0.6" stop-color="#004774"/>
<stop offset="0.8" stop-color="#003B5E"/>
<stop offset="1" stop-color="#003757"/>
</radialGradient>
<radialGradient id="paint5_radial_11_103" cx="0" cy="0" r="1" gradientUnits="userSpaceOnUse" gradientTransform="translate(1593.92 3889.61) rotate(-90) scale(62.0112 58.1038)">
<stop stop-color="#0073C0"/>
<stop offset="0.3" stop-color="#005C97"/>
<stop offset="0.6" stop-color="#004774"/>
<stop offset="0.8" stop-color="#003B5E"/>
<stop offset="1" stop-color="#003757"/>
</radialGradient>
<radialGradient id="paint6_radial_11_103" cx="0" cy="0" r="1" gradientUnits="userSpaceOnUse" gradientTransform="translate(1572.03 3915.66) rotate(-90) scale(89.0089 58.9586)">
<stop stop-color="#0073C0"/>
<stop offset="0.3" stop-color="#005C97"/>
<stop offset="0.6" stop-color="#004774"/>
<stop offset="0.8" stop-color="#003B5E"/>
<stop offset="1" stop-color="#003757"/>
</radialGradient>
<radialGradient id="paint7_radial_11_103" cx="0" cy="0" r="1" gradientUnits="userSpaceOnUse" gradientTransform="translate(1549.61 3954.01) rotate(-90) scale(113.476 59.3857)">
<stop stop-color="#0073C0"/>
<stop offset="0.3" stop-color="#005C97"/>
<stop offset="0.6" stop-color="#004774"/>
<stop offset="0.8" stop-color="#003B5E"/>
<stop offset="1" stop-color="#003757"/>
</radialGradient>
<radialGradient id="paint8_radial_11_103" cx="0" cy="0" r="1" gradientUnits="userSpaceOnUse" gradientTransform="translate(1537.88 4012.63) rotate(-90) scale(118.603 57.6767)">
<stop stop-color="#0073C0"/>
<stop offset="0.3" stop-color="#005C97"/>
<stop offset="0.6" stop-color="#004774"/>
<stop offset="0.8" stop-color="#003B5E"/>
<stop offset="1" stop-color="#003757"/>
</radialGradient>
<radialGradient id="paint9_radial_11_103" cx="0" cy="0" r="1" gradientUnits="userSpaceOnUse" gradientTransform="translate(1544.47 4081.97) rotate(-90) scale(102.93 78.6113)">
<stop stop-color="#0073C0"/>
<stop offset="0.3" stop-color="#005C97"/>
<stop offset="0.6" stop-color="#004774"/>
<stop offset="0.8" stop-color="#003B5E"/>
<stop offset="1" stop-color="#003757"/>
</radialGradient>
<radialGradient id="paint10_radial_11_103" cx="0" cy="0" r="1" gradientUnits="userSpaceOnUse" gradientTransform="translate(1569.76 4128.5) rotate(-90) scale(95.337 109.372)">
<stop stop-color="#0073C0"/>
<stop offset="0.3" stop-color="#005C97"/>
<stop offset="0.6" stop-color="#004774"/>
<stop offset="0.8" stop-color="#003B5E"/>
<stop offset="1" stop-color="#003757"/>
</radialGradient>
<radialGradient id="paint11_radial_11_103" cx="0" cy="0" r="1" gradientUnits="userSpaceOnUse" gradientTransform="translate(1615.18 4176.51) rotate(-90) scale(69.1515 134.152)">
<stop stop-color="#0073C0"/>
<stop offset="0.3" stop-color="#005C97"/>
<stop offset="0.6" stop-color="#004774"/>
<stop offset="0.8" stop-color="#003B5E"/>
<stop offset="1" stop-color="#003757"/>
</radialGradient>
<radialGradient id="paint12_radial_11_103" cx="0" cy="0" r="1" gradientUnits="userSpaceOnUse" gradientTransform="translate(1703.81 4228.78) rotate(-90) scale(56.4351 310.6)">
<stop stop-color="#0073C0"/>
<stop offset="0.3" stop-color="#005C97"/>
<stop offset="0.6" stop-color="#004774"/>
<stop offset="0.8" stop-color="#003B5E"/>
<stop offset="1" stop-color="#003757"/>
</radialGradient>
<radialGradient id="paint13_radial_11_103" cx="0" cy="0" r="1" gradientUnits="userSpaceOnUse" gradientTransform="translate(1862.19 4173.71) rotate(-90) scale(69.4442 134.152)">
<stop stop-color="#0073C0"/>
<stop offset="0.3" stop-color="#005C97"/>
<stop offset="0.6" stop-color="#004774"/>
<stop offset="0.8" stop-color="#003B5E"/>
<stop offset="1" stop-color="#003757"/>
</radialGradient>
<radialGradient id="paint14_radial_11_103" cx="0" cy="0" r="1" gradientUnits="userSpaceOnUse" gradientTransform="translate(1953.62 4074.44) rotate(-90) scale(110.572 80.3203)">
<stop stop-color="#0073C0"/>
<stop offset="0.3" stop-color="#005C97"/>
<stop offset="0.6" stop-color="#004774"/>
<stop offset="0.8" stop-color="#003B5E"/>
<stop offset="1" stop-color="#003757"/>
</radialGradient>
<radialGradient id="paint15_radial_11_103" cx="0" cy="0" r="1" gradientUnits="userSpaceOnUse" gradientTransform="translate(1665.89 3934.36) rotate(-90) scale(380.505 425.953)">
<stop stop-color="#0073C0"/>
<stop offset="0.3" stop-color="#005C97"/>
<stop offset="0.6" stop-color="#004774"/>
<stop offset="0.8" stop-color="#003B5E"/>
<stop offset="1" stop-color="#003757"/>
</radialGradient>
<radialGradient id="paint16_radial_11_103" cx="0" cy="0" r="1" gradientUnits="userSpaceOnUse" gradientTransform="translate(593.291 3989.06) rotate(-90) scale(238.763 182.221)">
<stop stop-color="#0073C0"/>
<stop offset="0.3" stop-color="#005C97"/>
<stop offset="0.6" stop-color="#004774"/>
<stop offset="0.8" stop-color="#003B5E"/>
<stop offset="1" stop-color="#003757"/>
</radialGradient>
<radialGradient id="paint17_radial_11_103" cx="0" cy="0" r="1" gradientUnits="userSpaceOnUse" gradientTransform="translate(484.008 4092.09) rotate(-90) scale(120.648 102.109)">
<stop stop-color="#0073C0"/>
<stop offset="0.3" stop-color="#005C97"/>
<stop offset="0.6" stop-color="#004774"/>
<stop offset="0.8" stop-color="#003B5E"/>
<stop offset="1" stop-color="#003757"/>
</radialGradient>
<radialGradient id="paint18_radial_11_103" cx="0" cy="0" r="1" gradientUnits="userSpaceOnUse" gradientTransform="translate(542.718 3897.48) rotate(-90) scale(195.313 316.154)">
<stop stop-color="#0073C0"/>
<stop offset="0.3" stop-color="#005C97"/>
<stop offset="0.6" stop-color="#004774"/>
<stop offset="0.8" stop-color="#003B5E"/>
<stop offset="1" stop-color="#003757"/>
</radialGradient>
<radialGradient id="paint19_radial_11_103" cx="0" cy="0" r="1" gradientUnits="userSpaceOnUse" gradientTransform="translate(542.718 3951.75) rotate(-90) scale(370.381 316.154)">
<stop stop-color="#0073C0"/>
<stop offset="0.3" stop-color="#005C97"/>
<stop offset="0.6" stop-color="#004774"/>
<stop offset="0.8" stop-color="#003B5E"/>
<stop offset="1" stop-color="#003757"/>
</radialGradient>
<clipPath id="clip0_11_103">
<rect width="7724" height="4344" fill="white"/>
</clipPath>
</defs>
</svg>
