<svg width="793" height="156" viewBox="0 0 793 156" fill="none" xmlns="http://www.w3.org/2000/svg">
<path d="M114.302 20.7031H16.6021V118.403H114.302V20.7031Z" fill="white"/>
<path d="M65.452 86.65C55.752 86.65 47.3519 80.35 47.3519 68.55C47.3519 56.75 53.852 50.15 65.452 50.15C77.052 50.15 75.652 52.15 79.552 57.05L75.052 60.85C72.752 57.95 69.252 55.95 65.452 55.95C58.552 55.95 53.752 61.05 53.752 68.65C53.752 76.25 58.652 80.95 65.452 80.95C72.252 80.95 72.852 78.95 75.052 76.05L79.552 79.85C76.452 83.75 71.752 86.65 65.452 86.65Z" fill="#00178E"/>
<path d="M775.6 1H1V139.2H775.6V1Z" stroke="white" stroke-miterlimit="10"/>
<path d="M775.6 17.2031H792.1V155.303H17.5V118.303" stroke="white" stroke-miterlimit="10"/>
</svg>
