<svg width="7724" height="4344" viewBox="0 0 7724 4344" fill="none" xmlns="http://www.w3.org/2000/svg">
<g clip-path="url(#clip0_11_103)">
<path d="M5247.63 2437C5165.88 2355.27 5056.89 2311.68 4931.55 2311.68C4806.2 2311.68 4898.85 2311.68 4882.5 2311.68C4795.31 2317.13 4691.76 2355.27 4588.22 2464.25L4037.8 3020.02L4293.94 3276.11L4844.35 2720.34C4855.25 2709.44 4860.7 2703.99 4871.6 2698.54C4893.4 2682.2 4915.2 2671.3 4942.45 2671.3C4969.69 2671.3 4991.49 2682.19 4991.49 2682.19C4991.49 2682.19 5095.04 2703.99 5307.57 3178.03L5471.06 2894.7C5471.06 2894.7 5487.41 2862 5498.31 2845.66C5672.7 2502.39 5650.9 2104.63 5443.82 1832.19C5329.37 1679.63 4315.73 682.526 3808.91 192.14H3291.19C3956.05 845.988 5051.44 1924.82 5154.98 2055.59C5236.73 2164.57 5269.43 2306.23 5247.63 2453.35C5247.63 2453.35 5247.63 2453.35 5242.18 2453.35L5247.63 2437Z" fill="#9FD7F8" fill-opacity="0.11"/>
<path d="M2108.45 2742.28V3259.91L3410.93 1957.67L3154.79 1701.58L2108.45 2742.28Z" fill="#9FD7F8" fill-opacity="0.11"/>
<path d="M2495.38 3978.93L4511.76 1957.45L2108.45 -440V72.1807L3999.49 1957.45L2108.45 3848.17V4338.55L2495.38 3978.93Z" fill="#9FD7F8" fill-opacity="0.11"/>
</g>
<rect x="0.5" y="0.5" width="7723" height="4343" stroke="white"/>
<defs>
<clipPath id="clip0_11_103">
<rect width="7724" height="4344" fill="white"/>
</clipPath>
</defs>
</svg>
