<svg width="1920" height="1088" viewBox="0 0 1920 1088" fill="none" xmlns="http://www.w3.org/2000/svg">
<g clip-path="url(#clip0_50_110)" filter="url(#filter0_d_50_110)">
<path d="M506.971 937.59H506.671V1035.89H506.971V937.59Z" fill="white"/>
<path d="M646.178 1009.89C643.178 1011.39 639.978 1012.99 637.378 1015.59L637.078 1015.79C637.078 1015.79 636.178 1016.19 635.878 1016.39H635.778L635.578 1016.09C637.278 1014.59 638.878 1012.79 639.878 1010.89C641.378 1008.39 641.778 1005.39 642.178 1002.59C642.478 1000.39 642.878 998.19 643.678 996.09C642.878 997.09 641.878 998.39 641.878 998.39C641.878 998.39 640.578 1000.19 640.678 1000.19C639.078 1002.69 638.078 1005.49 637.178 1008.19C635.978 1011.99 634.578 1015.99 631.378 1018.99C632.578 1018.69 637.078 1017.69 637.078 1017.69L641.878 1016.69C648.178 1014.69 654.778 1008.69 656.678 1001.79C655.778 1003.29 654.578 1004.69 652.978 1005.99C650.878 1007.59 648.478 1008.79 646.278 1009.89H646.178Z" fill="url(#paint0_radial_50_110)"/>
<path d="M657.068 978.591L656.468 979.991C655.568 981.991 655.068 984.291 654.568 986.491C654.568 986.491 653.868 989.591 653.768 989.691L653.468 989.991L652.768 990.591L653.168 988.791L653.568 985.391C653.568 985.191 653.568 984.991 653.568 984.791C653.568 981.291 651.768 978.491 650.068 975.691C648.968 973.891 647.868 971.991 647.168 969.891C647.168 970.391 647.168 970.891 647.168 970.891C647.668 976.791 649.268 982.191 650.868 987.191C651.368 988.491 651.568 990.091 651.568 991.591C651.568 993.091 651.568 993.691 651.368 994.691C652.068 993.691 654.868 989.891 654.868 989.891L657.868 985.891C659.768 982.391 660.668 978.291 660.668 974.291C660.668 970.291 660.268 969.791 659.568 967.691C659.568 967.791 659.568 967.991 659.568 968.191C659.568 971.891 658.068 975.191 656.668 978.391L657.068 978.591Z" fill="url(#paint1_radial_50_110)"/>
<path d="M653.678 971.495L652.978 969.095C652.078 966.495 649.878 964.595 647.778 962.695C646.278 961.395 644.878 960.095 643.878 958.495C644.378 960.095 645.178 962.795 645.178 962.795C646.178 965.195 647.878 967.395 649.478 969.495C651.478 972.095 653.578 974.895 654.378 978.095C654.378 978.095 654.578 978.895 654.578 978.995C654.978 976.495 655.578 974.095 656.478 971.895C657.578 969.595 658.078 966.895 658.078 964.195C658.078 960.095 656.878 955.895 654.678 952.895L654.078 952.095C654.078 952.095 653.778 951.795 653.478 951.395C654.378 953.295 654.778 955.495 654.778 957.695C654.378 960.695 654.178 963.595 654.178 966.395C654.178 969.195 654.278 970.895 654.578 972.895H654.178C654.178 972.995 654.178 973.095 654.178 973.095H653.978L653.678 971.395V971.495Z" fill="url(#paint2_radial_50_110)"/>
<path d="M641.568 954.193L646.068 958.093C648.468 959.993 650.868 961.893 652.368 964.593C652.268 963.593 652.068 962.593 652.068 961.693C652.068 960.793 652.068 959.693 652.168 958.593C652.168 957.593 652.268 956.593 652.268 955.593C652.268 954.593 652.268 953.093 651.868 951.893C651.168 948.593 648.168 944.693 644.468 943.293C645.668 944.393 646.668 945.693 647.268 947.293L648.468 951.793C649.168 954.493 649.768 957.293 650.968 959.793L650.668 959.993H650.468C650.468 960.093 649.868 958.893 649.868 958.893C649.868 958.893 648.468 956.693 648.368 956.693C647.068 954.893 645.268 953.693 643.468 952.493C641.768 951.293 640.068 949.893 638.768 948.193C638.768 948.193 638.668 947.993 638.568 947.893C638.568 947.793 638.368 947.593 638.268 947.493C638.868 950.293 639.868 952.493 641.368 954.193H641.568Z" fill="url(#paint3_radial_50_110)"/>
<path d="M646.368 952.091C646.368 951.991 646.268 951.791 646.268 951.791C645.468 948.691 644.168 944.691 640.868 941.691C638.868 939.891 636.468 938.991 634.168 938.191C634.168 938.191 633.468 937.891 632.768 937.691C633.768 938.691 635.568 940.591 635.568 940.591C638.268 944.991 642.168 948.991 646.368 952.191V952.091Z" fill="url(#paint4_radial_50_110)"/>
<path d="M556.768 951.09C558.268 949.79 559.868 948.49 561.168 946.89L562.368 945.19C564.068 942.69 565.968 940.19 568.168 938.09C564.068 939.69 559.868 941.29 557.468 945.39C556.368 946.79 555.968 948.49 555.468 950.09C555.468 950.09 554.868 951.79 554.568 952.79C555.268 952.19 556.668 950.99 556.668 950.99L556.768 951.09Z" fill="url(#paint5_radial_50_110)"/>
<path d="M550.568 960.59H550.468L551.268 957.89L551.968 955.79L552.768 952.19C553.368 949.19 554.068 946.29 556.368 944.09C554.768 944.79 553.168 945.79 551.968 947.29C549.668 949.69 549.068 952.99 549.068 956.49C549.068 959.99 549.168 959.79 549.368 961.49C549.368 961.49 549.368 964.59 549.368 965.19C550.268 963.59 551.668 961.99 553.768 960.09C559.568 955.99 562.468 951.99 562.868 947.79C562.868 947.89 562.668 948.09 562.568 948.19C562.568 948.19 562.568 948.29 562.468 948.39C561.268 950.39 559.468 951.89 557.568 953.19L554.468 955.59C552.868 957.19 551.668 958.89 551.068 960.69C551.068 960.69 551.068 960.69 550.868 960.69C550.868 960.69 550.768 960.69 550.668 960.69L550.568 960.59Z" fill="url(#paint6_radial_50_110)"/>
<path d="M547.368 973.791C547.268 973.791 547.168 973.791 547.168 973.791L547.568 968.091L547.068 962.591C546.868 960.891 546.568 959.191 546.568 957.491C546.568 955.791 546.868 954.591 547.368 953.191C544.868 956.791 543.468 960.291 543.468 963.991V964.491C543.468 964.791 543.468 965.091 543.468 965.291C543.468 968.291 544.468 970.991 545.468 973.591C546.268 975.691 547.068 977.791 547.368 980.091C548.168 976.491 550.168 973.391 552.268 970.491L555.768 964.991C556.568 963.191 556.968 961.391 557.368 959.591C556.868 960.291 556.368 961.091 556.368 961.191L555.568 961.991C552.268 964.991 548.868 968.091 548.168 972.291V972.991C548.068 972.991 547.768 974.291 547.768 974.291C547.768 974.291 547.768 974.291 547.568 974.291C547.568 974.291 547.468 974.291 547.368 974.291V973.791Z" fill="url(#paint7_radial_50_110)"/>
<path d="M547.168 986.691L546.568 984.191L544.368 978.491C543.068 975.591 541.668 972.591 541.668 969.191C541.668 965.791 541.668 969.191 541.668 969.091C541.468 969.891 541.168 970.691 541.168 970.691L540.968 971.491C540.768 972.591 540.668 973.691 540.668 974.991C540.668 977.591 541.168 980.491 542.068 983.591C542.868 986.291 544.768 988.591 546.668 990.891C547.968 992.491 549.268 994.091 550.168 995.791C550.068 994.791 549.868 993.791 549.868 992.691C549.868 991.591 549.968 990.291 550.368 989.191L551.268 986.091L553.268 978.491L553.568 976.691C553.868 974.891 554.168 972.991 554.168 971.191C554.168 969.391 554.168 970.891 554.168 970.691C553.868 971.791 553.568 972.991 552.868 973.991C550.268 977.891 547.968 982.091 547.968 986.391C547.968 990.691 548.168 989.091 548.668 990.491H548.468C548.468 990.691 548.368 990.691 548.268 990.691H548.068L546.968 986.791L547.168 986.691Z" fill="url(#paint8_radial_50_110)"/>
<path d="M559.078 1009.59C558.878 1009.09 558.578 1008.49 558.578 1008.49L557.378 1005.69C556.678 1002.79 556.378 999.691 556.178 996.591C555.878 992.691 555.278 988.791 554.078 985.191C554.078 986.991 553.678 988.591 553.378 990.291L552.678 994.091C552.678 994.691 552.678 995.291 552.678 995.791C552.678 998.191 553.178 1000.39 554.178 1002.29L554.678 1003.29L555.278 1004.49L554.878 1004.69L552.778 1001.99L552.178 1001.09C550.878 998.891 548.978 996.991 547.178 995.191C544.478 992.491 541.778 989.591 540.878 985.891C540.878 986.191 540.878 986.491 540.878 986.791C540.878 989.391 541.278 991.691 542.078 993.491C544.378 999.891 550.678 1003.89 556.278 1007.49C556.278 1007.49 558.378 1008.89 559.278 1009.39L559.078 1009.59Z" fill="url(#paint9_radial_50_110)"/>
<path d="M562.668 1014.59C560.568 1012.79 557.968 1011.59 555.468 1010.39C551.568 1008.49 547.568 1006.49 545.068 1002.39C546.368 1007.19 550.068 1011.99 555.168 1015.09C558.068 1017.09 561.668 1017.69 565.168 1018.29C565.168 1018.29 569.568 1019.19 570.668 1019.49C567.368 1016.49 565.968 1012.49 564.668 1008.69L563.268 1004.79C562.168 1002.39 560.468 999.794 558.168 996.894C558.968 998.894 559.368 1001.09 559.668 1003.29C560.168 1006.49 560.668 1009.79 562.568 1012.39C563.468 1013.89 564.968 1015.29 566.268 1016.49C566.268 1016.49 566.268 1016.49 566.268 1016.59C566.268 1016.69 566.268 1016.79 566.268 1016.79L562.768 1014.39L562.668 1014.59Z" fill="url(#paint10_radial_50_110)"/>
<path d="M581.468 1023.49L584.268 1022.79L585.568 1022.59C585.568 1022.59 585.868 1022.59 586.068 1022.59C583.368 1021.99 580.168 1020.99 577.368 1018.59L574.968 1016.29C572.268 1013.69 569.768 1011.29 566.868 1009.29C567.568 1010.49 568.968 1012.89 568.968 1012.89C570.568 1016.19 572.268 1019.69 576.268 1021.09L577.768 1021.59L579.468 1022.19V1022.59L577.168 1022.39L576.168 1022.19L568.868 1021.39C563.768 1021.09 558.568 1020.59 554.668 1017.09C556.868 1020.59 560.568 1023.49 564.668 1024.79C570.268 1026.69 575.968 1025.19 581.568 1023.69L581.468 1023.49Z" fill="url(#paint11_radial_50_110)"/>
<path d="M587.468 1035.89C590.168 1032.29 593.868 1028.99 598.468 1025.99L598.868 1025.79C598.868 1025.79 601.268 1024.79 601.468 1024.79C606.868 1027.39 611.468 1031.99 614.568 1035.69C614.568 1035.69 616.668 1033.79 616.968 1033.79C612.868 1029.89 608.368 1026.69 603.568 1024.49L602.768 1024.19H603.568L606.268 1023.79C608.368 1023.69 609.968 1024.79 611.568 1025.89L612.868 1026.79C618.768 1031.29 625.368 1032.69 630.768 1030.69C633.368 1029.79 635.568 1028.19 637.368 1026.29C633.568 1028.39 628.268 1028.89 623.868 1027.29L618.868 1025.29C613.868 1022.59 607.468 1021.79 602.268 1023.19C601.468 1023.89 600.568 1023.59 599.868 1023.39L598.668 1023.09C591.968 1021.59 586.068 1024.19 580.368 1026.79L578.468 1027.59C573.968 1029.39 568.668 1028.99 564.668 1026.89C566.368 1028.59 568.368 1029.99 571.168 1031.09C575.868 1032.99 581.968 1032.09 586.768 1028.79L589.568 1026.89C592.268 1024.89 594.968 1022.89 598.768 1024.09L599.368 1024.29L598.868 1024.49C594.168 1026.69 589.868 1029.69 585.868 1033.29C585.668 1033.49 585.468 1033.69 585.268 1033.79C585.368 1033.89 587.468 1035.69 587.568 1035.89H587.468Z" fill="url(#paint12_radial_50_110)"/>
<path d="M622.768 1022.09V1021.69L624.568 1020.99L626.968 1019.99C630.268 1018.39 631.568 1015.49 632.968 1012.49C633.568 1011.19 634.368 1009.79 635.168 1008.59C632.268 1010.69 629.768 1013.09 627.068 1015.79L624.368 1018.39C622.068 1020.49 619.268 1021.49 616.068 1022.29C616.268 1022.29 616.468 1022.29 616.468 1022.29L621.968 1023.49C627.168 1024.69 632.468 1025.99 637.668 1024.09C641.168 1022.89 645.268 1019.99 647.468 1016.29C643.668 1019.89 638.568 1020.49 633.468 1020.79L628.268 1021.29L626.068 1021.69L622.668 1022.19L622.768 1022.09Z" fill="url(#paint13_radial_50_110)"/>
<path d="M649.268 996.295V995.795C649.268 993.795 648.868 991.895 648.568 989.995C648.168 988.195 647.868 986.295 647.868 984.295V984.095C647.668 984.695 647.368 985.295 647.368 985.295C646.268 988.495 645.968 992.195 645.768 995.695C645.468 1000.2 645.068 1004.8 642.768 1008.7C642.668 1008.9 642.568 1009.2 642.468 1009.4L648.668 1005.2L650.868 1003.8C657.568 999.195 661.268 992.995 661.268 986.395C661.268 979.795 661.268 985.495 661.168 984.995C660.168 989.395 656.868 992.795 653.468 996.095L649.568 1001.2L647.468 1004.2H647.168C647.168 1004.1 647.068 1004.1 647.068 1004.1H646.868C648.468 1001.6 649.268 999.095 649.468 996.395" fill="url(#paint14_radial_50_110)"/>
<path d="M609.478 955.49L609.778 954.69L609.278 954.49V953.69C609.378 953.69 610.578 954.19 610.578 954.19L610.878 953.39L607.978 952.29L607.678 953.09L608.678 953.49C608.678 953.69 608.678 953.99 608.578 954.29C608.378 954.29 608.078 954.19 608.078 954.19L607.778 954.99L608.678 955.29L609.478 955.59V955.49ZM638.878 970.79L632.678 972.69L633.778 976.39C633.978 977.19 633.478 978.09 632.978 978.99L632.378 980.19L632.078 980.79C632.078 980.79 631.178 982.19 630.978 982.59C629.178 981.79 627.778 981.99 626.378 982.39H626.178L625.878 983.89L624.878 984.59L624.478 984.39H624.878L625.378 980.89C625.378 980.89 625.378 980.09 625.578 979.59H625.778C626.678 979.59 627.678 979.69 628.478 978.99C628.178 979.09 630.378 978.99 630.378 978.99C630.578 978.89 631.278 978.19 631.278 978.19L632.578 976.79C632.778 976.39 632.978 975.79 632.978 975.29C632.978 974.79 632.678 973.79 632.078 973.19L631.778 972.99C631.278 972.59 630.678 972.19 629.878 972.09C629.778 971.89 629.578 971.59 629.578 971.59C628.778 971.09 628.178 971.19 627.478 971.39C627.478 970.69 627.178 967.89 627.178 967.89C627.178 967.69 627.078 967.59 627.078 967.49C627.078 967.29 627.178 967.09 627.478 966.69L627.878 965.69H629.078V961.39C629.078 961.39 625.578 961.39 624.578 961.39C624.678 961.19 624.878 961.09 624.878 960.79C624.878 960.49 624.878 960.49 624.878 960.39C624.278 959.19 623.378 959.29 622.578 959.39C622.578 959.39 622.578 959.39 622.478 959.39C622.478 959.19 622.678 957.59 622.678 957.59L621.978 958.09C621.978 958.09 618.178 960.49 617.778 960.79C617.478 960.59 616.178 959.59 616.178 959.59C616.178 959.59 613.978 957.99 613.578 957.79C613.578 957.09 613.078 956.59 612.578 955.99C612.578 955.99 612.578 955.89 612.378 955.79C613.178 955.39 613.778 954.79 614.078 954.29C614.278 953.89 614.478 953.29 614.478 952.79C614.478 952.29 614.478 951.99 614.178 951.69C613.278 949.79 611.278 948.69 608.978 948.69C607.978 948.89 606.878 949.69 606.178 950.69C605.678 951.19 605.578 951.69 605.478 952.29C605.178 952.29 604.878 952.29 604.878 952.29C604.378 952.29 604.178 952.29 603.778 951.89C603.778 951.89 600.478 948.29 600.178 947.89C600.278 947.59 600.478 947.19 600.478 946.89C600.478 946.39 600.378 945.89 600.178 945.59L599.678 944.69L598.978 943.99L596.778 943.59L597.078 944.19C597.078 944.29 595.078 944.39 595.078 944.39V949.99H598.678C599.478 951.29 601.178 953.89 601.778 954.79C598.578 954.99 596.378 955.39 593.678 956.29L592.378 955.59L591.378 956.99C590.278 957.09 589.278 957.69 588.378 958.19C588.378 958.19 587.378 958.29 586.578 958.49C587.178 957.59 588.378 955.69 588.378 955.69C588.378 955.69 591.378 950.49 591.478 950.49L592.678 950.09L593.778 948.49C594.078 947.49 593.878 946.29 593.378 945.69V945.49C593.278 945.49 592.578 945.59 592.578 945.59C592.578 945.59 591.978 946.29 591.678 946.69C591.678 946.59 590.978 945.99 590.978 945.99L590.278 947.99C590.278 947.99 586.978 952.09 585.578 953.69C585.578 953.49 585.578 953.39 585.578 953.29C585.678 952.99 586.078 951.79 586.078 951.79V951.59C585.878 950.89 585.078 949.79 584.478 949.49L583.978 949.29V949.69L583.778 950.49C582.878 949.79 581.678 949.29 580.778 949.29H580.278C580.278 949.29 580.578 950.19 580.678 950.49C580.278 950.49 579.278 950.29 579.278 950.29C579.278 950.29 579.378 951.19 579.478 951.49C578.778 951.49 576.978 951.19 576.978 951.19L577.278 951.79C577.278 951.79 577.478 952.39 577.678 952.79C577.178 952.79 576.278 952.89 576.278 952.89V953.19C576.278 953.19 576.278 953.29 576.278 953.39C576.278 953.69 576.478 953.89 576.678 953.99C576.178 953.99 574.878 954.29 574.878 954.29L575.278 954.79C575.278 954.79 575.278 954.89 575.378 954.99C575.278 954.99 575.078 954.99 575.078 954.99L573.478 955.39L573.878 955.79L574.178 956.39C573.978 956.39 572.578 957.19 572.578 957.19L572.978 957.49C572.778 957.49 572.578 957.49 572.578 957.49H572.178C571.578 957.49 570.878 957.49 570.578 957.99L570.178 958.19L569.778 958.49V958.99C569.778 958.99 570.578 959.79 570.978 960.09C570.678 960.29 570.278 960.69 570.278 960.69L570.078 960.99L569.578 962.09H570.278C571.078 961.99 571.878 961.59 572.578 960.99L572.878 962.29C572.878 962.39 574.378 962.69 574.378 962.69L575.478 961.99L575.078 961.79C574.778 961.39 574.678 960.99 574.678 960.79C574.678 960.59 574.678 960.59 574.778 960.49L576.578 960.29C576.578 960.29 576.978 960.29 577.378 960.29C577.378 965.09 577.278 968.69 576.378 972.29C575.878 972.29 575.178 971.99 575.178 971.99L572.978 971.49L571.178 971.09C569.978 971.59 569.878 972.29 569.778 972.89C569.778 972.89 569.778 973.09 569.678 973.29C569.478 973.29 569.278 973.29 569.278 973.29L567.478 972.89C566.578 972.69 565.678 973.49 565.278 974.29C565.278 974.49 565.178 974.69 565.178 974.79C565.178 975.49 565.778 975.99 566.378 976.39L567.378 977.39C567.378 977.39 567.378 977.59 567.278 977.69C566.878 977.59 566.278 977.29 566.278 977.29C565.278 976.89 564.278 976.39 563.378 977.19C563.278 977.49 563.278 977.79 563.278 978.09C563.278 978.99 563.778 979.59 564.278 980.29C564.278 980.29 564.378 980.39 564.478 980.49C563.978 980.49 563.478 980.49 563.478 980.49L562.378 980.29V980.49C562.278 980.49 558.478 984.39 558.478 984.39L558.778 984.69C559.778 985.69 560.878 985.09 561.778 984.49C562.278 984.19 562.778 983.99 563.378 983.89C563.278 984.09 563.078 984.29 563.078 984.29C562.978 984.49 562.878 984.59 562.878 984.79C562.878 984.99 562.878 984.89 562.878 984.99C562.878 985.39 563.278 985.69 563.678 985.89H563.878C563.878 985.99 565.778 984.89 565.778 984.89L567.578 983.79C567.278 983.79 569.878 984.19 569.878 984.19L577.478 984.79C577.578 984.79 578.978 984.59 579.478 984.59C580.678 990.49 585.078 996.29 590.578 999.29C590.478 999.59 590.278 1000.19 590.278 1000.19C590.278 1000.39 590.278 1000.59 590.278 1000.79C590.278 1001.59 590.678 1002.19 591.378 1002.69C591.478 1002.69 593.778 1002.89 593.778 1002.89C593.778 1002.89 595.178 1002.99 596.078 1003.09C595.378 1003.39 594.078 1003.69 594.078 1003.69C592.878 1003.89 591.678 1004.19 590.578 1005.09C588.778 1005.99 587.478 1008.49 587.478 1010.19C587.478 1011.89 587.478 1010.69 587.478 1010.69H587.878C588.878 1010.69 590.178 1009.99 590.878 1008.89C592.778 1006.29 595.978 1006.09 598.778 1005.99C598.778 1005.99 599.778 1005.89 600.778 1005.79C600.078 1006.29 599.478 1006.89 599.478 1006.89L597.278 1008.69L594.678 1009.99L589.378 1012.89L589.678 1013.19C589.778 1013.39 590.078 1013.39 590.478 1013.49L595.078 1013.99V1013.79C597.078 1011.59 599.878 1010.19 602.678 1009.99C604.378 1009.59 605.978 1008.29 607.578 1007.09C607.578 1007.09 608.378 1006.49 608.778 1006.19C608.878 1006.39 608.978 1006.59 608.978 1006.59C608.978 1006.59 608.978 1006.89 608.978 1007.09V1007.69C608.978 1007.89 608.878 1008.19 608.878 1008.49C608.878 1008.79 608.978 1009.29 609.378 1009.69L609.578 1009.89H609.678L612.078 1008.89C612.078 1008.89 612.878 1008.59 613.378 1008.39C613.378 1009.69 613.478 1010.79 614.078 1011.69C615.078 1012.09 615.878 1011.49 616.478 1010.99C616.478 1010.99 616.678 1010.79 616.878 1010.69C617.178 1010.99 617.878 1011.69 617.878 1011.69C618.278 1012.09 619.178 1012.29 619.778 1012.19C620.278 1012.09 620.578 1011.69 620.678 1011.29C620.778 1010.99 620.878 1010.79 620.878 1010.49C620.878 1009.99 620.678 1009.59 620.378 1009.19L620.078 1008.59C620.078 1008.39 619.978 1008.09 619.978 1007.89C619.978 1007.59 620.178 1007.39 620.278 1007.19C621.078 1007.49 621.678 1007.79 622.178 1008.59C622.178 1008.79 622.178 1009.39 622.178 1009.39C622.178 1010.09 621.778 1010.69 621.278 1011.39C620.778 1012.09 620.178 1012.89 620.178 1013.99C620.178 1015.09 620.178 1014.79 620.178 1014.79L623.178 1013.09C624.678 1012.59 624.978 1011.69 624.978 1010.79C624.978 1009.89 624.978 1010.19 624.978 1009.89C624.978 1009.89 624.978 1009.39 624.978 1009.09C625.378 1009.09 626.078 1008.89 626.078 1008.89C626.678 1008.39 626.878 1007.89 626.878 1007.39C626.878 1006.89 626.878 1006.69 626.678 1006.39L626.478 1005.49L626.778 1004.19C627.078 1002.79 627.278 1001.39 627.278 1000.09C627.278 998.79 627.178 998.39 626.878 997.49C626.878 997.69 627.878 993.49 627.878 993.39L628.578 992.69C628.578 992.69 629.578 991.49 629.778 991.09C631.278 990.79 632.378 989.49 632.578 988.19C632.578 986.79 633.078 985.79 633.678 984.69L634.578 982.79L635.078 981.19C635.478 979.59 635.778 978.89 636.978 978.79C638.278 977.99 638.478 976.89 638.478 976.09V975.59L640.478 974.99L639.278 970.89L638.878 970.79ZM626.178 984.49C626.378 984.89 626.678 985.49 626.878 985.79C626.878 985.79 626.878 985.79 626.778 985.89C626.578 985.69 625.778 984.99 625.578 984.89C625.878 984.69 625.978 984.59 626.178 984.39M624.978 986.29C624.978 986.19 625.178 985.89 625.478 985.99C625.478 985.99 626.278 986.09 626.578 986.09C626.178 986.59 625.878 987.09 625.778 987.59C625.478 987.39 625.078 987.19 624.978 987.19C624.978 987.09 624.878 986.89 624.878 986.79C624.878 986.69 624.878 986.49 624.978 986.29ZM624.678 985.29C624.778 985.29 624.878 985.49 624.978 985.49C624.878 985.49 624.678 985.59 624.578 985.69V985.29H624.678ZM625.178 973.49C624.978 972.59 624.878 971.69 624.878 971.69C625.178 971.59 625.378 965.29 625.378 965.19L625.678 962.69C625.678 962.99 625.878 963.19 625.878 963.29L625.978 965.19V965.59H627.378L627.178 966.09C626.878 966.59 626.378 967.29 626.878 967.99C626.878 967.79 627.078 970.69 627.078 971.59L625.878 972.09C625.478 972.59 625.378 972.99 625.278 973.49H625.178ZM626.978 972.39C626.578 973.29 626.378 974.09 626.278 975.19V974.99C626.078 974.49 625.978 973.99 625.978 973.59C625.978 973.19 625.978 972.99 626.278 972.79C626.278 972.79 626.678 972.59 627.078 972.49L626.978 972.39ZM625.778 975.39H625.978C625.978 975.29 625.678 975.89 625.678 975.89V975.79L625.778 975.39ZM626.078 978.69C626.078 978.69 625.878 978.59 625.778 978.49V978.19V976.29C625.978 976.29 626.178 976.19 626.278 975.99C626.278 976.89 626.678 977.79 627.578 978.49C627.078 978.69 626.578 978.59 626.078 978.59V978.69ZM629.978 972.69C630.478 972.69 630.978 973.09 631.478 973.49C632.478 974.39 632.478 975.49 631.978 976.29L630.878 977.49L630.678 977.69L630.278 977.49C629.578 977.29 629.178 976.59 629.078 975.79V975.29C629.078 974.29 629.078 973.19 629.878 972.69H629.978ZM627.878 972.29V972.09V971.89C628.478 971.69 628.878 971.69 629.378 971.99C628.378 972.69 628.378 973.99 628.378 975.09V975.59C628.378 976.69 629.078 977.59 629.878 977.99C629.478 977.99 628.578 977.99 628.478 977.99C627.378 977.29 627.178 976.49 627.078 975.39C627.178 974.09 627.378 973.09 627.978 972.09L627.878 972.29ZM628.478 962.09V964.79H626.678C626.678 964.29 626.678 963.39 626.678 963.39C626.678 962.89 626.478 962.49 626.078 962.29C625.778 962.09 625.378 962.19 625.078 962.39C624.978 962.59 624.778 964.09 624.678 964.79C624.478 964.79 623.978 964.79 623.578 964.79C623.578 964.29 623.578 962.59 623.578 962.09H624.078C624.078 962.09 627.778 962.09 628.478 962.09ZM624.578 965.59L624.378 970.39C623.278 967.79 621.978 965.49 620.278 963.49L621.178 962.49C621.178 962.49 621.578 961.89 621.778 961.69C621.978 961.69 622.478 961.89 622.678 961.89V965.49H624.478L624.578 965.59ZM621.678 959.09C621.678 959.39 621.578 960.19 621.578 960.19H622.078C622.078 960.09 622.778 959.99 622.778 959.99C623.578 959.89 623.878 959.79 624.178 960.39C624.178 960.39 624.178 960.39 624.178 960.49C624.178 960.69 624.078 960.79 623.778 961.09C623.578 961.09 623.378 961.09 623.378 961.09H623.078L621.378 960.59V960.79C621.278 960.79 620.378 961.89 620.378 961.89L619.678 962.69C619.178 962.19 618.778 961.59 618.278 961.09C619.078 960.59 620.878 959.49 621.678 958.99V959.09ZM612.678 957.29C611.978 956.99 611.078 956.59 610.378 956.29C610.678 956.19 610.978 955.99 611.278 955.79L611.978 956.59C612.278 956.89 612.478 957.09 612.578 957.39L612.678 957.29ZM607.878 955.09C607.778 954.99 607.378 954.49 607.378 953.79C607.378 953.09 607.378 953.09 607.678 952.69C607.678 952.59 608.478 951.89 608.578 951.79C609.878 952.29 611.378 953.09 611.378 953.79V954.19V954.79C610.878 955.29 610.078 955.79 609.278 955.89L607.978 955.59H608.078L607.878 955.29V955.09ZM609.178 949.39C611.078 949.39 612.778 950.29 613.578 951.99C613.778 952.29 613.778 953.39 613.578 953.79C613.178 954.29 612.778 954.79 612.278 955.09V954.19V953.79C612.278 952.39 609.978 951.49 608.178 950.79L607.678 950.59C608.178 950.09 608.778 949.69 609.278 949.69L609.178 949.39ZM606.878 951.19C606.878 951.19 606.878 951.09 606.978 950.99C607.178 950.99 607.478 951.19 607.778 951.29C607.478 951.59 607.078 951.89 607.078 951.89C606.778 952.39 606.578 952.89 606.578 953.29L606.378 952.69C606.378 951.99 606.378 951.59 606.878 951.09V951.19ZM598.278 949.09H596.078V945.09C596.478 945.09 597.078 945.09 597.478 945.09C597.478 945.19 597.478 945.39 597.478 945.39V945.89C597.578 945.89 596.778 945.29 596.778 945.29V945.99C596.678 946.49 596.578 947.39 597.378 948.09L597.878 948.49C597.878 948.49 598.078 948.79 598.178 948.99L598.278 949.09ZM599.078 948.69L598.578 947.99L598.078 947.49C597.878 947.39 597.878 947.19 597.878 946.99C597.878 946.99 598.078 946.79 598.178 946.59L598.478 946.89C598.678 946.69 598.778 946.49 598.778 946.29C598.778 945.99 598.578 945.59 598.478 945.19L598.278 944.69C598.578 944.69 598.878 944.69 598.878 944.69L599.278 945.09C599.278 945.19 599.678 945.89 599.678 945.89C599.878 946.29 599.878 946.69 599.878 946.99C599.878 947.29 599.878 947.59 599.578 947.89L599.378 948.19L603.378 952.59C603.978 953.29 604.578 953.29 605.078 953.29H605.678L606.178 954.79L606.378 955.19H605.978C605.978 955.09 603.778 954.89 602.978 954.89L599.078 948.89V948.69ZM602.578 955.39L605.778 955.69L608.978 956.49L612.978 958.29L615.578 960.09L617.378 961.39C620.278 964.29 622.478 967.69 623.978 971.79L624.778 975.99V976.49V978.79L624.578 980.59L624.078 984.09V984.39C623.978 984.39 623.378 985.89 623.278 986.39C621.078 985.39 618.778 986.69 616.578 987.99C616.578 987.99 616.178 988.19 615.778 988.49C616.078 987.59 616.378 986.19 616.478 985.89C616.678 985.89 616.978 985.89 616.978 985.89C617.578 985.89 618.378 985.89 619.078 984.99V984.79C619.078 984.29 618.878 982.69 618.778 982.09C619.178 981.89 620.978 980.99 620.978 980.99L619.378 977.39L617.778 978.29C617.778 977.89 617.978 977.39 617.978 977.39L617.278 977.59C617.178 977.59 606.278 980.79 601.878 978.49L601.278 978.19C600.978 977.39 600.278 976.99 599.578 976.59C600.078 976.59 600.778 976.39 601.178 975.69C601.178 975.49 601.678 973.99 601.678 973.99C601.878 973.39 602.178 972.69 602.178 971.99C602.178 971.29 601.878 970.59 601.078 969.79C600.178 968.99 598.778 969.09 597.878 969.19C596.678 969.49 596.178 970.59 596.078 971.49H595.878C595.378 971.49 594.578 971.59 594.178 972.49C593.878 972.09 592.678 969.99 592.678 969.99C592.278 969.59 592.078 969.19 592.078 968.89C592.078 968.29 592.478 967.69 592.978 966.89C592.978 966.89 593.678 965.59 593.878 965.19C594.078 965.19 594.278 965.19 594.278 965.19C595.778 964.69 595.978 963.09 596.178 962.09V961.49L595.678 961.29L594.778 961.49L592.178 962.39C591.978 962.59 588.978 967.69 588.978 967.69C588.978 968.19 589.778 972.39 589.978 973.79C589.278 973.59 585.478 972.69 585.478 972.69C584.478 972.69 583.478 972.89 582.878 973.69C582.678 973.69 580.078 973.09 579.378 972.99C580.378 968.59 582.578 965.29 584.878 962.39C584.978 962.39 586.378 961.99 586.378 961.99L587.178 961.69C587.178 961.69 589.178 960.49 589.378 960.39C589.378 960.39 589.478 960.39 589.678 960.39L589.478 960.69L592.378 962.39L595.578 957.49L594.478 956.89C596.978 956.09 599.078 955.69 602.278 955.59L602.578 955.39ZM616.278 981.19L615.678 980.39C615.878 980.29 616.078 980.19 616.078 980.19L614.778 979.69C614.478 979.69 612.278 980.79 612.278 980.79C609.778 982.09 607.678 983.29 604.278 982.59C602.378 982.19 600.478 981.19 598.578 980.19L598.978 979.99L600.578 978.99H601.178C601.378 979.09 601.678 979.29 601.678 979.29C605.878 981.49 614.878 979.19 616.978 978.59C616.978 978.79 616.778 979.59 616.778 979.59H617.278C617.978 979.59 618.078 980.09 618.378 980.89L618.578 981.49C618.578 981.49 618.378 981.49 618.378 981.59C618.378 981.59 617.978 981.79 617.578 981.99C616.478 981.69 616.378 981.39 616.278 981.29V981.19ZM616.578 982.39C616.378 982.39 616.278 982.59 616.078 982.59C615.978 982.39 615.778 981.99 615.578 981.69C615.778 981.99 616.078 982.19 616.478 982.39M590.878 981.69C591.278 981.49 591.878 981.29 591.878 981.29C594.178 980.39 596.278 979.69 598.678 979.19L597.778 979.79L594.178 981.59L591.378 982.99V982.49V982.39C591.378 982.09 591.078 981.79 590.878 981.69ZM586.978 982.29L586.078 981.49L583.178 979.09L585.878 979.49L585.378 979.99V980.29C586.078 981.59 587.378 981.59 588.378 981.59L589.978 981.89L590.278 982.39C590.378 982.49 590.278 983.29 590.278 983.69C589.978 983.89 589.678 984.09 589.278 984.19L586.878 982.39L586.978 982.29ZM588.378 984.39C588.078 984.39 587.778 984.39 587.578 984.39C587.178 984.39 586.678 983.69 586.478 983.19H586.778C586.778 983.09 588.478 984.39 588.478 984.39H588.378ZM579.278 979.09C579.278 979.09 579.478 978.89 579.678 978.89C579.778 978.89 579.978 978.69 580.078 978.59L581.578 978.79L585.478 982.09C585.478 982.09 585.678 982.29 585.978 982.49L579.478 979.09H579.278ZM590.178 981.09L588.378 980.69C587.378 980.69 586.778 980.49 586.378 979.99C586.478 979.89 586.678 979.69 586.778 979.59C587.078 979.59 587.378 979.59 587.678 979.49L588.478 979.29L588.678 979.09C588.678 979.09 588.678 979.09 588.678 978.99L592.778 978.29L595.978 977.69C596.178 977.69 597.278 977.29 597.278 977.29L598.278 977.09L598.078 976.69H598.378L598.678 976.89C599.378 977.19 599.978 977.59 600.478 978.19H600.178H599.778C596.478 978.69 594.078 979.59 591.378 980.59L589.978 981.09H590.178ZM587.878 976.89C587.178 976.79 585.378 976.59 585.378 976.59V976.49L585.978 975.99L586.878 975.19C587.178 975.19 587.678 974.89 587.578 974.29C587.578 974.29 587.578 974.09 587.578 973.89C587.878 973.89 588.078 973.99 588.078 973.99L590.878 974.69L591.478 974.89C591.478 974.89 593.478 975.29 593.678 975.39C594.078 975.59 595.078 975.89 595.078 975.89H595.478L596.478 976.39C595.178 976.39 588.078 976.79 588.078 976.79L587.878 976.89ZM577.178 973.49C577.878 973.49 579.078 973.79 579.178 973.79L583.178 974.69C583.178 974.69 584.678 975.19 585.478 975.39C585.478 975.39 584.978 975.79 584.778 975.99C583.778 975.79 577.578 974.79 577.478 974.79C577.478 974.59 577.178 973.79 577.178 973.79V973.49ZM583.978 973.89C584.378 973.59 584.978 973.49 585.578 973.49C585.578 973.49 586.078 973.49 586.578 973.69L586.778 974.49V974.79H586.478L583.978 973.99V973.89ZM592.278 970.59L593.878 973.29L594.478 974.19C594.178 974.39 593.578 974.59 593.478 974.69L591.678 974.29L591.278 974.09C591.078 972.99 590.178 967.89 590.178 967.89C590.178 967.89 593.178 963.09 593.178 962.99L595.378 962.29C595.378 962.29 595.478 962.29 595.578 962.29C595.478 963.09 595.178 964.19 594.278 964.49H593.878H593.678L593.578 964.79L592.678 966.49C591.878 967.69 590.878 969.19 592.378 970.59H592.278ZM596.978 971.99C596.978 971.19 597.278 970.29 598.278 970.09C599.478 969.89 600.278 970.09 600.778 970.49C601.878 971.59 601.578 972.49 601.178 973.69L600.078 974.19C598.278 974.99 596.778 975.59 595.178 974.39L594.878 973.39C594.878 972.69 595.278 972.69 596.078 972.69H597.078V972.29L596.978 971.99ZM600.878 974.59L600.678 975.49C600.478 975.69 600.178 975.79 599.678 975.79L599.078 975.99V975.39C599.478 975.19 599.978 974.99 600.478 974.79L600.978 974.59H600.878ZM596.578 975.59C597.178 975.59 597.678 975.59 598.278 975.59V976.19H598.078C597.778 976.09 597.178 975.79 596.678 975.59H596.578ZM594.978 974.99C594.978 974.99 594.978 975.09 594.978 975.19H594.578C594.578 975.09 594.878 974.89 594.878 974.89C594.878 974.89 594.878 974.89 594.978 974.89M593.678 977.29C593.078 977.39 592.578 977.49 592.578 977.49L588.778 978.19C588.778 977.99 588.778 977.79 588.578 977.59L593.578 977.29H593.678ZM618.078 979.09C618.478 978.89 618.878 978.69 619.178 978.49C619.378 978.99 619.878 980.09 620.078 980.59C619.878 980.59 619.578 980.79 619.278 980.99L619.078 980.59C618.878 979.99 618.578 979.39 617.978 979.09M582.578 963.99C582.578 963.99 581.878 963.79 581.478 963.69C581.678 963.39 582.178 962.69 582.478 962.19L584.278 962.39C583.878 962.89 583.378 963.49 582.978 963.99H582.578ZM591.278 960.49L592.678 960.79C592.578 960.99 592.478 961.09 592.378 961.19C592.178 961.09 591.678 960.79 591.178 960.49H591.278ZM592.878 956.59C593.278 956.79 594.278 957.39 594.778 957.69C594.778 957.79 594.478 958.19 594.278 958.49C594.078 958.19 594.078 957.79 593.678 957.49C593.278 957.19 592.878 957.09 592.478 957.09C592.578 956.89 592.678 956.79 592.778 956.69M585.778 955.09V954.79C585.878 954.79 591.178 948.29 591.178 948.29C591.178 948.29 591.378 947.79 591.478 947.39L591.778 948.09L592.478 947.79L592.178 947.19L592.978 946.19C593.078 946.39 593.178 946.79 593.178 947.29C593.178 947.79 593.178 947.89 593.078 948.19L592.378 949.29L591.078 949.79C590.878 949.99 587.878 955.19 587.878 955.19L585.678 958.69C585.278 958.89 584.778 958.89 584.378 958.69H584.478C584.578 958.49 584.778 957.99 584.978 957.79C585.278 957.79 586.178 957.79 586.178 957.79L585.678 955.29L585.778 955.09ZM584.178 956.79C584.678 956.79 584.978 956.39 584.978 955.99C584.978 955.59 584.778 955.39 584.578 955.29C584.678 955.29 584.878 955.29 584.978 955.29C584.978 955.69 585.178 956.39 585.278 956.79C584.978 956.79 584.478 956.79 584.478 956.79C584.478 956.79 584.078 957.79 583.978 957.89L583.278 958.19C582.378 957.79 581.578 957.49 580.678 957.49C580.678 957.39 580.978 956.59 580.978 956.59C581.778 955.69 582.678 955.29 583.678 955.19C583.478 955.29 583.378 955.49 583.278 955.69C583.278 956.39 583.578 956.69 584.078 956.69L584.178 956.79ZM584.678 950.49C584.978 950.79 585.278 951.29 585.378 951.59C585.378 951.59 585.178 952.19 585.078 952.49L584.778 952.09L584.578 950.89C584.578 950.69 584.578 950.49 584.678 950.39V950.49ZM583.778 951.19V951.89C583.078 951.89 582.378 951.59 581.778 950.69C581.778 950.49 581.578 950.19 581.578 950.09C582.378 950.19 583.278 950.59 583.778 951.19ZM583.778 952.69C583.478 952.69 583.178 952.69 582.778 952.69C582.778 952.69 582.778 952.49 582.778 952.39C583.078 952.49 583.478 952.59 583.778 952.59M581.178 951.29C581.378 951.49 581.978 952.09 581.978 952.19C581.978 952.19 581.978 952.19 581.978 952.39C581.978 952.59 581.978 952.69 581.978 952.79C581.878 952.79 581.778 952.79 581.678 952.79C581.378 952.49 581.078 952.49 580.878 952.49L580.678 952.09L580.378 951.69C580.378 951.49 580.378 951.29 580.378 951.19C580.578 951.19 580.978 951.19 581.278 951.29H581.178ZM579.778 952.29L579.978 952.59L580.378 953.49H580.178H579.778C579.578 953.49 579.578 953.49 579.378 953.39C579.278 953.39 579.178 953.29 578.978 953.19L578.578 952.89C578.478 952.59 578.378 952.29 578.278 952.09C578.678 952.09 579.278 952.19 579.778 952.29ZM578.278 953.59L578.778 953.89C579.178 954.09 579.378 954.19 579.478 954.49C579.378 954.49 578.778 954.49 578.578 954.49C578.278 954.29 577.878 954.09 577.678 953.99C577.678 953.79 577.478 953.69 577.378 953.59C577.578 953.59 577.978 953.59 578.278 953.59ZM578.678 955.89C578.678 955.89 578.678 955.89 578.678 955.99H578.578C578.578 955.99 578.678 955.89 578.778 955.79L578.678 955.89ZM577.178 954.69C577.478 954.79 578.078 955.19 578.178 955.29C577.978 955.29 577.678 955.49 577.678 955.49C577.678 955.49 577.478 955.49 577.378 955.49L576.278 954.99C576.278 954.99 576.278 954.99 576.278 954.89C576.578 954.89 576.978 954.79 577.278 954.69H577.178ZM578.378 956.39C578.078 956.89 577.778 957.29 577.378 957.59L576.978 956.99L578.478 956.39H578.378ZM575.878 955.69C576.078 955.69 576.478 955.99 576.878 956.19C576.678 956.19 576.378 956.39 576.378 956.39L575.278 956.29C575.178 956.09 574.978 955.99 574.878 955.99C574.878 955.99 575.378 955.89 575.878 955.79V955.69ZM574.578 957.19L575.078 956.99C575.278 956.99 575.878 957.09 576.078 957.19C576.078 957.29 576.278 957.49 576.378 957.69C575.678 957.99 574.778 957.69 574.078 957.59L574.678 957.29L574.578 957.19ZM575.678 958.59C575.278 958.79 574.878 958.99 574.478 959.09V958.39C574.778 958.39 575.178 958.49 575.678 958.49V958.59ZM571.278 961.19C571.378 961.09 571.578 960.89 571.778 960.69C571.778 960.69 571.978 960.69 572.078 960.69C571.878 960.89 571.578 960.99 571.278 961.09V961.19ZM572.678 959.99C572.678 959.99 572.078 959.99 571.778 959.89C571.478 959.59 571.078 959.19 570.878 958.89C570.878 958.89 570.878 958.89 570.978 958.89C571.478 959.49 572.078 959.89 572.678 960.09V959.99ZM571.878 958.49C572.078 958.49 572.378 958.49 572.378 958.49H572.878C573.178 958.49 573.378 958.49 573.578 958.49V959.29C573.578 959.29 573.578 959.29 573.478 959.29C572.878 959.29 572.378 958.89 571.878 958.49ZM577.378 959.59H576.678L574.578 959.99C574.278 960.29 574.078 960.69 574.078 961.09C574.078 961.49 574.278 961.79 574.478 962.09L573.778 961.99C573.778 961.79 573.678 961.29 573.678 961.29L573.478 960.69L573.778 960.29C574.678 960.19 575.778 959.59 576.878 958.99L577.978 958.39C578.978 957.59 579.478 956.69 579.878 955.79L580.778 954.19C581.278 954.19 581.678 953.99 581.878 953.59C581.878 953.59 584.278 953.49 585.078 953.39V953.79L585.178 954.49C585.178 954.49 585.178 954.49 585.178 954.59C583.478 954.19 581.778 954.79 580.578 956.19L580.178 957.29V957.69C579.478 957.79 578.878 957.99 578.178 958.39C577.878 958.69 577.578 959.09 577.578 959.69L577.378 959.59ZM578.278 959.99V959.49C578.278 959.29 578.378 959.09 578.578 958.89C580.378 957.89 581.478 958.19 583.278 958.89H583.478C584.078 959.19 585.178 959.79 586.278 959.19L589.078 958.69C589.778 958.29 590.478 957.89 591.178 957.69H591.078C591.078 957.79 592.178 957.49 592.178 957.49C592.478 957.49 592.978 957.49 593.378 957.89C593.778 958.19 593.978 958.59 593.978 958.89C593.778 959.29 593.578 959.59 593.378 959.89L591.578 959.59H590.678L589.678 959.39C589.378 959.39 587.278 960.69 587.278 960.79L586.478 961.09L584.978 961.59L582.378 961.29H581.978C581.978 961.19 580.678 960.89 580.678 960.89V961.69C580.678 961.69 581.578 961.89 581.678 961.89C581.278 962.49 580.278 964.09 580.278 964.09H580.678L582.578 964.69C580.978 966.99 579.678 969.59 578.978 972.69L577.278 972.49C578.178 968.69 578.278 964.99 578.278 959.89V959.99ZM572.778 972.49L574.278 972.89L574.078 973.09L573.578 973.59C573.178 973.59 572.878 973.39 572.678 972.79V972.59L572.778 972.49ZM570.278 973.99L570.478 973.29C570.478 972.79 570.678 972.39 571.178 972.19C571.178 972.19 571.478 972.19 571.778 972.39L571.978 972.99C572.078 973.39 572.478 974.39 573.678 974.39L574.778 973.59L575.278 973.09C575.578 973.09 576.078 973.29 576.378 973.29V973.69L577.178 975.29C577.378 975.39 584.078 976.49 584.678 976.59C584.678 976.79 584.878 976.99 584.978 977.09L585.278 977.39L587.778 977.69C587.978 977.89 588.078 978.19 588.078 978.39C588.078 978.59 588.078 978.59 588.078 978.69C587.778 978.69 587.478 978.79 587.478 978.79C587.178 978.89 587.078 978.89 586.978 978.79C586.978 978.79 581.078 977.89 580.278 977.79L573.378 976.39L570.178 975.79C570.378 975.29 570.478 974.69 570.378 973.99H570.278ZM574.578 977.69C574.578 977.69 574.078 977.39 573.878 977.39C575.278 977.69 578.278 978.29 579.178 978.49C578.878 978.49 578.678 978.79 578.478 979.09L577.378 979.69C577.378 979.69 576.978 979.69 576.278 979.69L575.578 978.89L574.578 977.69ZM575.378 979.79C574.178 979.89 572.778 979.99 572.078 980.09L572.578 979.09L573.178 978.59L573.778 978.09L574.178 978.39L574.878 979.29L575.378 979.79ZM569.078 974.19H569.478C569.478 974.79 569.478 975.29 569.078 975.69C568.978 975.69 568.878 975.69 568.778 975.69C568.578 975.69 568.478 975.39 568.378 975.19C568.378 975.19 568.178 974.49 568.078 973.99C568.478 973.99 568.978 974.19 568.978 974.19M566.778 975.89C566.078 975.39 565.778 975.09 565.978 974.69C566.178 974.19 566.878 973.69 567.178 973.79C567.178 973.79 567.178 973.79 567.378 973.79L567.778 975.39C567.878 975.89 568.178 976.29 568.678 976.49C569.078 976.59 569.478 976.49 569.778 976.39C569.778 976.49 573.278 977.19 573.278 977.19C573.278 977.19 573.578 977.19 573.978 977.29L572.778 977.99L572.278 978.39L569.978 978.19H567.978C567.978 977.99 567.978 977.89 567.978 977.89V977.69C568.078 977.69 567.978 977.39 567.978 977.39L566.678 975.89H566.778ZM563.778 977.79C564.178 977.59 564.778 977.79 565.678 978.19L567.178 978.79C567.178 978.79 570.978 979.09 571.578 979.09C571.378 979.39 571.178 979.89 571.078 980.09L565.078 980.59L564.478 979.79C563.878 978.89 563.478 978.39 563.678 977.69L563.778 977.79ZM564.978 984.19C564.978 984.19 563.878 984.79 563.478 985.09C563.478 985.09 563.278 984.99 563.278 984.89C563.278 984.89 563.678 984.19 563.978 983.79L565.478 983.99C565.278 984.09 565.078 984.19 565.078 984.19H564.978ZM579.778 983.69L576.978 983.99C577.178 983.99 569.678 983.39 569.678 983.39L567.078 983.09C567.078 983.09 566.878 983.09 566.678 983.29H565.878C565.878 983.19 564.578 982.99 564.578 982.99H563.978C562.878 982.69 561.878 983.29 561.078 983.79C560.278 984.29 559.878 984.39 559.478 984.29C560.078 983.69 562.178 981.49 562.478 981.19C562.678 981.19 563.078 981.29 563.078 981.29L565.178 981.49H565.378H566.078L572.078 980.99L576.378 980.59H577.878C577.978 980.39 578.778 979.99 579.078 979.79C579.378 979.99 582.978 981.79 584.778 982.79C583.478 982.99 580.978 983.49 579.978 983.69H579.778ZM579.878 984.49L585.378 983.49C585.378 983.49 585.578 983.49 585.678 983.49C585.978 984.39 586.678 985.29 587.478 985.29C588.378 985.29 590.078 985.09 591.078 984.19C590.978 984.19 594.478 982.49 594.478 982.49C594.478 982.49 597.478 980.99 597.778 980.79C599.878 981.89 602.078 982.99 604.178 983.49C607.878 984.19 610.278 982.99 612.778 981.69C612.778 981.69 613.778 981.19 614.378 980.89C614.378 980.99 615.378 982.89 615.778 983.59C613.978 985.39 612.778 987.59 612.078 989.29C611.778 989.99 611.778 990.69 612.078 991.29L604.378 991.59H598.578L598.878 992.09L599.278 992.79C598.978 992.79 598.778 992.79 598.778 992.79C597.278 992.79 595.778 992.79 594.378 993.49H594.178V993.89C594.178 994.89 594.878 995.39 595.478 995.89L596.378 996.89C596.378 997.19 596.478 997.49 596.478 997.79C596.478 998.09 596.478 998.29 596.278 998.59C595.278 998.59 594.478 998.79 594.378 998.79C594.078 998.59 593.578 998.19 593.578 998.19C592.778 997.89 591.778 998.19 591.178 998.39C591.178 998.39 590.978 998.59 590.778 998.69C585.378 995.79 581.078 990.19 579.878 984.49ZM613.878 991.89C614.578 991.89 615.478 991.69 615.478 991.69C615.478 991.69 617.078 991.49 618.178 991.29C617.778 991.59 617.278 991.99 616.678 992.39C614.078 992.39 611.378 994.29 608.678 996.19L606.678 997.59L599.778 998.19C599.778 998.19 598.478 998.29 597.178 998.49C597.178 998.19 597.278 997.99 597.278 997.79C597.278 997.39 597.278 996.99 597.078 996.59L595.878 995.29C595.478 994.99 595.178 994.59 594.978 994.19C595.478 993.99 596.078 993.79 596.678 993.79L596.878 994.09C597.478 995.09 597.978 995.89 598.578 996.19C599.178 996.19 599.778 996.19 600.278 996.09L602.878 995.89C606.778 995.19 610.078 994.19 613.978 992.29V992.09L613.878 991.89ZM597.578 993.59C597.978 993.59 598.278 993.59 598.678 993.59H599.578C600.078 994.29 600.178 994.79 599.978 995.19C599.578 995.19 599.078 995.19 598.678 995.29C598.478 995.19 597.878 993.99 597.578 993.59ZM600.778 995.09C600.878 994.39 600.578 993.79 600.178 993.09C600.178 992.69 599.978 992.49 599.878 992.29C600.878 992.29 604.378 992.29 604.378 992.29L612.178 991.99C608.378 993.69 604.978 994.59 600.878 995.09H600.778ZM593.378 1001.99L591.278 1001.79C590.878 1001.49 590.678 1001.19 590.678 1000.69C590.678 1000.19 590.678 1000.39 590.678 1000.29C590.678 1000.29 590.878 999.69 590.978 999.39L591.478 999.09C591.878 998.89 592.578 998.79 593.178 998.89L593.878 999.39H594.178C594.178 999.49 595.678 999.39 595.678 999.39H596.678L599.678 998.99L605.978 998.39C605.278 999.49 604.478 999.49 603.478 999.39L601.078 999.79C600.678 999.79 600.278 999.89 599.878 1000.09L599.178 999.89C599.078 999.89 595.278 999.89 595.278 999.89H595.078L594.878 1000.19L593.978 1001.29L593.378 1001.79V1001.99ZM594.478 1002.09C594.478 1002.09 595.078 1001.19 595.478 1000.79C595.678 1000.79 597.778 1000.79 598.678 1000.79C597.978 1001.19 597.178 1001.69 596.478 1002.39L594.478 1002.19V1002.09ZM608.278 1004.99L607.878 1005.29L606.378 1006.49C604.878 1007.69 603.378 1008.89 601.878 1009.29C598.978 1009.49 596.178 1010.99 594.178 1013.19C593.878 1013.19 591.178 1012.89 590.678 1012.79C591.878 1012.09 594.478 1010.69 594.478 1010.69L597.278 1009.29L599.478 1007.59L601.878 1005.59L602.278 1005.39C605.378 1003.39 608.478 1001.39 611.478 999.89C611.678 1000.89 612.178 1001.79 612.878 1002.49L608.278 1005.09V1004.99ZM615.878 998.69V998.29L616.178 998.59L616.878 998.19L619.178 997.09L621.678 995.89C621.978 995.89 622.278 995.79 622.578 995.69L621.978 996.39L617.378 998.99C617.178 999.19 616.578 1001.29 616.578 1001.29H616.778L616.578 1001.59C616.578 1001.59 616.078 1002.09 615.378 1002.79L613.978 1002.19C613.378 1001.59 612.378 1000.49 612.378 999.29C612.478 998.49 612.778 997.49 613.478 997.09C613.478 997.09 613.678 997.09 613.778 997.09L614.078 997.39C614.678 997.99 615.278 998.69 616.178 998.79L615.878 998.69ZM614.678 996.99C614.978 996.99 615.878 996.79 616.578 996.69C616.478 996.99 616.278 997.39 616.278 997.59L615.878 997.79C615.478 997.69 615.078 997.29 614.678 996.89M617.278 997.09C617.278 996.89 617.378 996.69 617.478 996.59C617.578 996.59 617.678 996.59 617.678 996.59C618.078 996.59 618.478 996.49 618.878 996.39L617.378 997.09H617.278ZM620.378 997.99C620.378 997.99 620.378 998.09 620.278 998.19L617.778 1000.29L617.478 1000.49C617.578 999.99 617.778 999.39 617.778 999.39C617.778 999.39 619.178 998.69 620.378 997.99ZM609.178 1008.89C609.178 1008.79 608.978 1008.69 608.978 1008.49C608.978 1008.29 608.978 1008.09 608.978 1007.89V1006.49C608.978 1006.49 608.678 1005.99 608.578 1005.69C608.578 1005.69 613.078 1003.09 613.478 1002.99C613.678 1002.99 614.178 1003.29 614.478 1003.49C613.478 1004.49 612.278 1005.69 611.678 1006.29C610.778 1006.69 610.078 1007.59 609.778 1008.79C609.478 1008.89 609.278 1008.99 609.078 1009.09L609.178 1008.89ZM611.178 1008.19C611.178 1008.19 611.078 1008.19 610.878 1008.29C611.178 1007.69 611.578 1007.19 612.078 1006.99H612.178C612.478 1007.29 612.678 1007.39 612.778 1007.59L611.178 1008.29V1008.19ZM614.478 1008.39V1008.99C614.478 1008.99 614.678 1010.29 614.678 1010.79C614.378 1010.99 614.178 1010.99 613.978 1010.99C613.678 1010.49 613.678 1009.49 613.578 1008.49V1007.79V1007.69C613.578 1007.69 613.578 1007.69 613.578 1007.59V1007.19C613.378 1006.79 613.078 1006.59 612.778 1006.39C613.378 1005.79 617.078 1002.09 617.078 1002.09L618.478 1000.79L619.578 999.89C618.578 1001.39 615.478 1006.29 615.078 1006.89C614.378 1007.29 614.578 1007.99 614.678 1008.39H614.478ZM615.478 1010.29V1009.09C615.478 1009.19 615.278 1008.19 615.278 1008.19C615.278 1007.89 615.278 1007.79 615.278 1007.69C615.678 1007.99 615.778 1008.59 615.878 1009.49V1009.89L615.478 1010.19V1010.29ZM619.778 1005.59L619.478 1006.29C618.778 1006.89 618.678 1007.69 618.978 1008.69L619.378 1009.39C619.678 1009.99 619.878 1010.29 619.578 1010.79C619.578 1011.09 619.378 1011.19 619.178 1011.29C618.778 1011.39 618.178 1011.29 617.978 1010.99C617.978 1010.99 617.078 1010.19 616.778 1009.89V1009.39C616.578 1008.49 616.378 1007.69 615.678 1007.19C615.978 1006.69 620.478 999.79 620.478 999.79C620.778 998.69 621.378 997.99 622.078 997.29L622.978 996.39L624.378 994.89C624.378 994.89 624.378 995.09 624.378 995.19C622.278 999.19 620.878 1002.39 619.678 1005.59H619.778ZM622.578 1012.19C622.578 1012.19 621.778 1012.69 621.078 1013.09C621.278 1012.59 621.378 1012.19 621.678 1011.69C622.178 1010.99 622.678 1010.19 622.678 1009.29C622.678 1009.29 622.678 1008.99 622.678 1008.79L623.878 1008.99V1009.89C623.878 1010.19 623.878 1010.39 623.878 1010.69C623.878 1011.39 623.678 1011.89 622.578 1012.29V1012.19ZM625.678 1003.79L625.378 1005.19C625.378 1005.29 625.578 1006.29 625.578 1006.29C625.578 1006.69 625.678 1006.99 625.678 1007.19C625.678 1007.39 625.678 1007.69 625.378 1007.89L624.078 1008.09L622.278 1007.79C621.778 1006.99 621.078 1006.49 620.278 1006.19V1005.89C620.878 1005.79 621.078 1005.39 621.278 1004.99L621.678 1004.49C621.778 1004.39 623.678 1002.09 623.678 1002.09C624.578 1001.09 625.478 1000.09 626.078 998.99C626.078 999.19 626.078 999.49 626.078 999.69C626.078 1000.99 625.778 1002.39 625.578 1003.69L625.678 1003.79ZM625.778 997.29C625.778 997.39 625.778 997.59 625.878 997.69C625.278 999.09 624.178 1000.39 623.078 1001.59C623.078 1001.59 621.478 1003.59 621.278 1003.89C622.278 1001.29 623.478 998.69 625.178 995.49L624.678 995.29H625.178V994.99V994.59L626.178 994.09H626.578C626.278 995.29 625.778 997.49 625.778 997.49V997.29ZM627.778 991.89L626.878 992.79L625.978 993.19L625.378 993.59L624.778 993.89L623.878 994.29C621.878 995.19 619.778 995.49 617.478 995.69L614.478 996.19H613.978H613.178C611.878 996.69 611.478 997.99 611.378 998.89C608.278 1000.39 604.978 1002.49 601.778 1004.59L601.478 1004.79L598.278 1005.19C595.478 1005.39 591.878 1005.59 589.778 1008.49C589.278 1009.19 588.678 1009.59 588.078 1009.79C588.278 1008.39 589.278 1006.59 590.678 1005.89C591.778 1004.99 592.778 1004.79 593.978 1004.59L596.478 1003.89L596.678 1003.69C596.778 1003.69 597.078 1003.39 597.078 1003.09C598.578 1001.79 600.278 1000.89 601.478 1000.79C601.578 1000.79 603.678 1000.49 603.678 1000.49C604.878 1000.49 606.278 1000.59 607.178 998.29C606.978 998.49 609.178 996.99 609.178 996.99C611.778 995.19 614.378 993.29 616.978 993.29C618.378 992.49 619.178 991.89 619.678 991.19C619.978 991.09 620.378 990.89 620.378 990.89L619.978 990.19L619.178 990.59L615.378 991.09C615.378 991.09 613.378 991.39 613.278 991.39L612.978 991.09C612.878 990.89 612.778 990.69 612.778 990.39C612.778 990.09 612.778 989.89 612.878 989.69C613.778 987.49 615.378 984.49 618.278 982.69L618.578 984.99C618.178 985.29 617.778 985.29 617.178 985.29H615.978V985.59L614.978 989.39L614.778 989.69L614.578 990.39L615.278 989.99H615.378L615.578 989.79L617.178 988.89C619.378 987.59 621.578 986.19 623.478 987.39H623.678C623.678 987.49 623.678 987.49 623.678 987.49L623.878 987.69C624.078 987.69 624.478 987.89 624.578 987.89L625.778 988.59C626.278 989.69 627.278 990.79 628.578 991.09L627.778 991.99V991.89ZM631.478 987.99C631.278 988.89 630.478 990.09 629.278 990.19C628.078 990.19 627.078 989.09 626.678 988.09V987.89C626.878 987.29 627.178 986.49 627.678 986.19L627.978 985.99L626.878 983.79C626.878 983.59 626.978 983.09 627.078 982.89C628.478 982.49 629.578 982.39 631.078 983.09L632.178 985.59C631.878 986.29 631.678 986.99 631.678 987.79M636.478 977.89C634.678 977.89 634.378 979.39 633.978 980.89L633.578 982.39L632.778 984.19C632.778 984.29 632.678 984.49 632.578 984.69L631.878 982.99L633.078 981.09L633.478 980.49L634.078 979.29C634.578 978.29 635.178 977.29 634.978 976.39C635.078 976.09 635.478 975.29 635.478 975.29C635.478 975.29 635.678 975.29 635.778 975.09V975.19L635.578 975.89H635.978L636.078 976.39L637.478 975.89V976.19C637.478 976.89 637.378 977.59 636.578 978.09L636.478 977.89ZM637.778 975.19V974.79C637.678 974.79 636.378 975.29 636.378 975.29V975.09C636.378 974.89 636.178 974.19 636.178 974.19L635.978 973.59L634.578 974.59C634.578 974.59 634.478 974.79 634.278 975.09C634.078 974.39 633.778 973.49 633.678 973.09C634.278 972.89 637.678 971.89 638.278 971.69C638.478 972.19 638.878 973.69 639.078 974.19C638.578 974.29 637.578 974.69 637.578 974.69V975.09H637.678L637.778 975.19ZM585.278 1033.79C585.478 1033.59 585.678 1033.39 585.878 1033.29C585.678 1033.49 585.478 1033.59 585.278 1033.79ZM548.678 990.49H548.478C548.478 990.59 548.578 990.49 548.678 990.49ZM566.278 1016.69V1016.59C566.278 1016.59 566.278 1016.59 566.278 1016.69ZM547.578 973.89C547.578 973.89 547.478 973.89 547.378 973.89C547.378 973.89 547.378 973.99 547.578 973.89ZM642.478 1009.39C642.578 1009.19 642.678 1008.89 642.778 1008.69C642.578 1008.99 642.478 1009.19 642.278 1009.49H642.378L642.478 1009.39Z" fill="url(#paint15_radial_50_110)"/>
<path d="M370.171 950.193V951.793H361.171V950.593L366.071 945.593C367.271 944.293 368.271 943.193 368.271 941.693C368.271 940.193 367.171 938.893 365.571 938.893C363.971 938.893 363.171 939.593 362.471 940.893L361.171 939.993C361.971 938.393 363.371 937.293 365.671 937.293C367.971 937.293 370.071 938.893 370.071 941.493C370.071 944.093 369.371 944.493 367.571 946.293L363.871 950.093H370.271L370.171 950.193Z" fill="black"/>
<path d="M379.274 944.093C380.874 944.593 381.974 945.993 381.974 947.893C381.974 949.793 379.774 951.993 376.874 951.993C373.974 951.993 371.874 950.293 371.874 947.893C371.874 945.493 373.074 944.593 374.574 944.093C373.574 943.693 372.574 942.593 372.574 940.993C372.574 938.693 374.474 937.293 376.874 937.293C379.274 937.293 381.274 938.793 381.274 940.993C381.274 943.193 380.274 943.693 379.274 943.993V944.093ZM380.174 947.693C380.174 946.093 378.874 944.893 376.874 944.893C374.874 944.893 373.674 945.993 373.674 947.693C373.674 949.393 375.074 950.393 376.874 950.393C378.674 950.393 380.174 949.193 380.174 947.693ZM376.974 938.893C375.374 938.893 374.374 939.893 374.374 941.093C374.374 942.293 375.474 943.293 376.974 943.293C378.474 943.293 379.674 942.493 379.674 941.093C379.674 939.693 378.574 938.893 376.974 938.893Z" fill="black"/>
<path d="M368.471 1014.49C364.271 1014.49 360.671 1011.89 360.671 1006.89C360.671 1001.89 363.471 999.191 368.471 999.191C373.471 999.191 372.871 1000.09 374.571 1002.09L371.971 1004.29C371.271 1003.39 369.971 1002.59 368.471 1002.59C366.271 1002.59 364.371 1004.19 364.371 1006.89C364.371 1009.59 365.971 1011.09 368.471 1011.09C370.971 1011.09 371.171 1010.39 371.971 1009.39L374.571 1011.59C373.271 1013.19 371.171 1014.39 368.471 1014.39V1014.49Z" fill="black"/>
<path d="M387.173 939.29H382.773V937.59H393.573V939.29H389.073V951.79H387.273V939.29H387.173Z" fill="black"/>
<path d="M395.968 937.691H397.768V943.991H405.568V937.691H407.368V951.891H405.568V945.691H397.768V951.891H395.968V937.691Z" fill="black"/>
<path d="M361.07 967.196V958.496H364.57V966.896C364.57 968.696 365.47 970.296 367.17 970.296C368.87 970.296 369.87 969.096 369.87 966.896V958.496H373.37V967.196C373.37 971.096 371.17 973.596 367.17 973.596C363.17 973.596 361.07 971.296 361.07 967.196Z" fill="black"/>
<path d="M388.473 958.496V973.396H384.873L379.273 964.496V973.396H375.773V958.496H379.273L384.973 967.596V958.496H388.473Z" fill="black"/>
<path d="M391.07 958.496H394.57V973.396H391.07V958.496Z" fill="black"/>
<path d="M410.068 958.496L404.568 973.396H401.468L395.968 958.496H399.768L402.968 968.396L406.168 958.496H409.968H410.068Z" fill="black"/>
<path d="M411.366 958.495H421.066V961.595H414.766V964.395H419.766V967.495H414.766V970.195H421.466V973.295H411.366V958.395V958.495Z" fill="black"/>
<path d="M431.17 973.396L428.17 968.596H426.97V973.396H423.57V958.496H429.37C433.07 958.496 434.67 960.696 434.67 963.596C434.67 966.496 433.67 967.296 431.87 968.096L435.37 973.396H431.27H431.17ZM426.87 965.496H428.47C429.97 965.496 430.87 964.796 430.87 963.496C430.87 962.196 430.07 961.496 428.47 961.496H426.77V965.396L426.87 965.496Z" fill="black"/>
<path d="M435.866 971.193L437.966 968.593C439.066 969.793 440.466 970.393 441.466 970.393C442.466 970.393 443.166 969.793 443.166 969.193C443.166 968.593 442.666 967.993 440.966 967.493C438.666 966.693 436.466 965.693 436.466 962.693C436.466 959.693 438.666 958.293 441.366 958.293C443.266 958.293 445.066 958.993 446.566 960.193L444.566 962.793C443.266 961.793 442.366 961.393 441.466 961.393C440.566 961.393 440.166 961.793 440.066 962.593C440.066 963.293 440.566 963.593 442.266 964.193C444.866 965.193 446.866 965.893 446.866 968.793C446.866 971.693 443.866 973.593 441.466 973.593C439.066 973.593 437.566 972.793 435.966 971.193H435.866Z" fill="black"/>
<path d="M456.87 970.696H451.67L450.77 973.396H447.07L452.47 958.496H455.87L461.37 973.396H457.67L456.77 970.696H456.87ZM455.97 967.796L454.37 962.796L452.77 967.796H456.07H455.97Z" fill="black"/>
<path d="M462.773 958.495H466.273V970.195H472.473V973.295H462.773V958.395V958.495Z" fill="black"/>
<path d="M361.07 978.893H366.67C370.37 978.893 371.97 981.093 371.97 983.993C371.97 986.893 369.77 988.893 366.37 988.893H364.47V993.693H361.07V978.793V978.893ZM365.97 985.893C367.47 985.893 368.37 985.193 368.37 983.893C368.37 982.593 367.57 981.893 366.07 981.893H364.57V985.793H366.07L365.97 985.893Z" fill="black"/>
<path d="M373.171 986.393C373.171 981.893 376.271 978.793 380.871 978.793C385.471 978.793 388.471 981.893 388.471 986.393C388.471 990.893 385.271 993.993 380.871 993.993C376.471 993.993 373.171 990.793 373.171 986.393ZM384.771 986.393C384.771 983.893 383.071 981.993 380.771 981.993C378.471 981.993 376.771 983.893 376.771 986.393C376.771 988.893 378.371 990.793 380.771 990.793C383.171 990.793 384.771 988.893 384.771 986.393Z" fill="black"/>
<path d="M389.468 991.693L391.568 989.093C392.668 990.293 394.068 990.893 395.068 990.893C396.068 990.893 396.768 990.293 396.768 989.693C396.768 989.093 396.268 988.493 394.568 987.993C392.268 987.193 390.068 986.193 390.068 983.193C390.068 980.193 392.268 978.793 394.968 978.793C396.868 978.793 398.668 979.493 400.168 980.693L398.168 983.293C396.868 982.293 395.968 981.893 395.068 981.893C394.168 981.893 393.768 982.293 393.668 983.093C393.668 983.793 394.168 984.093 395.868 984.693C398.468 985.693 400.468 986.393 400.468 989.293C400.468 992.193 397.468 994.093 395.068 994.093C392.668 994.093 391.168 993.293 389.568 991.693H389.468Z" fill="black"/>
<path d="M405.071 982.096H401.171V978.996H412.471V982.096H408.571V993.796H405.071V982.096Z" fill="black"/>
<path d="M420.971 991.196H415.771L414.871 993.896H411.171L416.571 978.996H419.971L425.471 993.896H421.771L420.871 991.196H420.971ZM419.971 988.196L418.371 983.196L416.771 988.196H420.071H419.971Z" fill="black"/>
<path d="M426.773 978.995H430.273V990.694H436.473V993.794H426.773V978.895V978.995Z" fill="black"/>
<path d="M375.171 1006.89C375.171 1002.39 378.371 999.293 382.971 999.293C387.571 999.293 390.771 1002.39 390.771 1006.89C390.771 1011.39 387.471 1014.49 382.971 1014.49C378.471 1014.49 375.171 1011.29 375.171 1006.89ZM387.071 1006.89C387.071 1004.39 385.371 1002.49 382.971 1002.49C380.571 1002.49 378.871 1004.39 378.871 1006.89C378.871 1009.39 380.571 1011.29 382.971 1011.29C385.371 1011.29 387.071 1009.39 387.071 1006.89Z" fill="black"/>
<path d="M405.67 999.496V1014.4H401.97L396.17 1005.5V1014.4H392.57V999.496H396.17L401.97 1008.6V999.496H405.57H405.67Z" fill="black"/>
<path d="M407.773 1006.89C407.773 1002.59 410.573 999.191 415.473 999.191C420.373 999.191 420.073 1000.09 421.573 1001.89L419.073 1003.99C418.273 1003.19 417.073 1002.49 415.473 1002.49C413.873 1002.49 411.573 1004.09 411.573 1006.89C411.573 1009.69 413.073 1011.29 415.673 1011.29C418.273 1011.29 417.373 1011.09 418.273 1010.59V1008.89H415.373V1005.89H421.673V1012.59C420.273 1013.59 417.973 1014.39 415.673 1014.39C411.273 1014.39 407.873 1011.69 407.873 1006.79L407.773 1006.89Z" fill="black"/>
<path d="M431.774 1014.29L428.674 1009.49H427.374V1014.29H423.874V999.394H429.774C433.474 999.394 435.174 1001.59 435.174 1004.49C435.174 1007.39 434.074 1008.19 432.374 1008.99L435.974 1014.29H431.774ZM427.374 1006.49H428.974C430.474 1006.49 431.474 1005.79 431.474 1004.49C431.474 1003.19 430.674 1002.49 429.074 1002.49H427.374V1006.39V1006.49Z" fill="black"/>
<path d="M437.468 999.494H447.368V1002.59H440.968V1005.39H446.068V1008.49H440.968V1011.19H447.868V1014.29H437.468V999.394V999.494Z" fill="black"/>
<path d="M449.468 1012.19L451.568 1009.59C452.768 1010.79 454.068 1011.39 455.168 1011.39C456.268 1011.39 456.868 1010.79 456.868 1010.19C456.868 1009.59 456.368 1008.99 454.568 1008.49C452.268 1007.69 449.968 1006.69 449.968 1003.69C449.968 1000.69 452.168 999.293 454.968 999.293C456.968 999.293 458.768 999.993 460.268 1001.19L458.268 1003.79C456.968 1002.79 455.968 1002.39 455.168 1002.39C454.368 1002.39 453.768 1002.79 453.768 1003.59C453.768 1004.29 454.268 1004.59 455.968 1005.19C458.668 1006.19 460.668 1006.89 460.668 1009.79C460.668 1012.69 457.568 1014.59 455.168 1014.59C452.768 1014.59 451.168 1013.79 449.568 1012.19H449.468Z" fill="black"/>
<path d="M461.374 1012.19L463.474 1009.59C464.674 1010.79 465.974 1011.39 467.074 1011.39C468.174 1011.39 468.774 1010.79 468.774 1010.19C468.774 1009.59 468.274 1008.99 466.474 1008.49C464.174 1007.69 461.874 1006.69 461.874 1003.69C461.874 1000.69 464.074 999.293 466.874 999.293C468.874 999.293 470.674 999.993 472.174 1001.19L470.174 1003.79C468.874 1002.79 467.874 1002.39 467.074 1002.39C466.274 1002.39 465.674 1002.79 465.674 1003.59C465.674 1004.29 466.174 1004.59 467.874 1005.19C470.574 1006.19 472.574 1006.89 472.574 1009.79C472.574 1012.69 469.474 1014.59 467.074 1014.59C464.674 1014.59 463.074 1013.79 461.474 1012.19H461.374Z" fill="black"/>
<path d="M361.068 1021H365.468C370.168 1021 373.168 1024.1 373.168 1028.5C373.168 1032.9 370.268 1035.9 365.468 1035.9H360.968V1021H361.068ZM365.468 1034.2C369.068 1034.2 371.368 1031.8 371.368 1028.4C371.368 1025 369.068 1022.6 365.568 1022.6H362.868V1034.2H365.468Z" fill="black"/>
<path d="M381.77 1036C378.37 1036 376.07 1033.7 376.07 1029.8V1021H377.87V1029.7C377.87 1032.4 379.37 1034.3 381.77 1034.3C384.17 1034.3 385.77 1032.6 385.77 1029.7V1021H387.57V1029.8C387.57 1033.6 385.37 1036 381.77 1036Z" fill="black"/>
<path d="M398.268 1027.99C399.968 1028.39 401.368 1029.59 401.368 1031.79C401.368 1033.99 399.768 1035.79 396.368 1035.79H390.968V1020.89H395.868C398.768 1020.89 400.668 1021.99 400.668 1024.49C400.668 1026.99 399.868 1027.29 398.268 1027.89V1027.99ZM392.868 1027.39H395.868C397.268 1027.39 398.768 1026.79 398.768 1024.99C398.768 1023.19 397.868 1022.69 395.468 1022.69H392.768V1027.39H392.868ZM395.968 1034.19C398.068 1034.19 399.568 1033.39 399.568 1031.69C399.568 1029.99 398.368 1028.99 396.068 1028.99H392.868V1034.19H395.968Z" fill="black"/>
<path d="M412.666 1032.19H406.066L404.766 1035.79H402.866L408.466 1020.89H410.266L415.966 1035.79H414.066L412.766 1032.19H412.666ZM412.166 1030.59L409.466 1023.19L406.766 1030.59H412.266H412.166Z" fill="black"/>
<path d="M418.366 1021H420.166V1035.9H418.366V1021Z" fill="black"/>
<path d="M437.468 1034.19V1035.79H428.468V1034.59L433.368 1029.59C434.568 1028.29 435.568 1027.19 435.568 1025.69C435.568 1024.19 434.468 1022.89 432.868 1022.89C431.268 1022.89 430.468 1023.59 429.768 1024.89L428.468 1023.99C429.268 1022.39 430.668 1021.29 432.968 1021.29C435.268 1021.29 437.368 1022.89 437.368 1025.49C437.368 1028.09 436.668 1028.49 434.868 1030.29L431.168 1034.09H437.568L437.468 1034.19Z" fill="black"/>
<path d="M439.468 1028.69C439.468 1024.39 441.468 1021.39 444.868 1021.39C448.268 1021.39 450.268 1023.99 450.268 1028.69C450.268 1033.39 448.268 1035.99 444.868 1035.99C441.468 1035.99 439.468 1033.39 439.468 1028.69ZM448.468 1028.69C448.468 1024.99 446.968 1022.99 444.868 1022.99C442.768 1022.99 441.268 1025.19 441.268 1028.69C441.268 1032.19 442.768 1034.39 444.868 1034.39C446.968 1034.39 448.468 1032.19 448.468 1028.69Z" fill="black"/>
<path d="M461.07 1034.19V1035.79H452.07V1034.59L456.97 1029.59C458.17 1028.29 459.17 1027.19 459.17 1025.69C459.17 1024.19 458.07 1022.89 456.47 1022.89C454.87 1022.89 454.07 1023.59 453.37 1024.89L452.07 1023.99C452.87 1022.39 454.27 1021.29 456.57 1021.29C458.87 1021.29 460.97 1022.89 460.97 1025.49C460.97 1028.09 460.27 1028.49 458.47 1030.29L454.77 1034.09H461.17L461.07 1034.19Z" fill="black"/>
<path d="M467.77 1026.7C470.27 1026.7 472.37 1028.4 472.37 1031.3C472.37 1034.2 470.17 1036 467.37 1036C464.57 1036 463.57 1035.1 462.57 1033.6L463.87 1032.6C464.57 1033.7 465.77 1034.4 467.17 1034.4C468.57 1034.4 470.57 1033.1 470.57 1031.3C470.57 1029.5 468.97 1028.3 467.27 1028.3C465.57 1028.3 465.37 1028.5 464.77 1029.1L463.77 1028.8L464.17 1021.5H471.77V1023.1H465.87L465.67 1027.1C466.47 1026.8 467.27 1026.7 467.87 1026.7H467.77Z" fill="black"/>
<path d="M333.274 1000.89C331.774 999.391 329.774 998.591 327.474 998.591C325.174 998.591 326.874 998.591 326.574 998.591C324.974 998.691 323.074 999.391 321.174 1001.39L311.074 1011.59L315.774 1016.29L325.874 1006.09C326.074 1005.89 326.174 1005.79 326.374 1005.69C326.774 1005.39 327.174 1005.19 327.674 1005.19C328.174 1005.19 328.574 1005.39 328.574 1005.39C328.574 1005.39 330.474 1005.79 334.374 1014.49L337.374 1009.29C337.374 1009.29 337.674 1008.69 337.874 1008.39C341.074 1002.09 340.674 994.791 336.874 989.791C334.774 986.991 316.174 968.691 306.874 959.691H297.374C309.574 971.691 329.674 991.491 331.574 993.891C333.074 995.891 333.674 998.491 333.274 1001.19C333.274 1001.19 333.274 1001.19 333.174 1001.19L333.274 1000.89Z" fill="url(#paint16_radial_50_110)"/>
<path d="M275.671 1006.49V1015.99L299.571 992.095L294.871 987.395L275.671 1006.49Z" fill="url(#paint17_radial_50_110)"/>
<path d="M275.671 937.691V944.391H342.971V976.291C347.171 980.591 347.871 981.591 348.471 982.291C348.871 982.791 349.271 983.391 349.671 983.991V937.691H275.671Z" fill="url(#paint18_radial_50_110)"/>
<path d="M282.771 1029.19L319.771 992.09L275.671 948.09V957.49L310.371 992.09L275.671 1026.79V1035.79V1035.89L349.671 1035.79V1029.19H282.771Z" fill="url(#paint19_radial_50_110)"/>
<path d="M1304.43 605.884C1284.11 585.565 1257.02 574.727 1225.86 574.727C1194.71 574.727 1217.74 574.727 1213.67 574.727C1192 576.082 1166.26 585.565 1140.52 612.658L1003.7 750.833L1067.37 814.502L1204.19 676.327C1206.9 673.617 1208.25 672.263 1210.96 670.908C1216.38 666.844 1221.8 664.135 1228.57 664.135C1235.35 664.135 1240.77 666.844 1240.77 666.844C1240.77 666.844 1266.5 672.263 1319.34 790.118L1359.97 719.676C1359.97 719.676 1364.04 711.548 1366.75 707.484C1410.1 622.14 1404.68 523.25 1353.2 455.517C1324.75 417.587 1072.79 169.689 946.804 47.7695H818.112C983.38 210.328 1255.67 478.547 1281.4 511.058C1301.72 538.152 1309.85 573.373 1304.43 609.948C1304.43 609.948 1304.43 609.948 1303.08 609.948L1304.43 605.884Z" fill="#9FD7F8" fill-opacity="0.11"/>
<path d="M524.11 681.784V810.476L847.874 486.713L784.205 423.044L524.11 681.784Z" fill="#9FD7F8" fill-opacity="0.11"/>
<path d="M620.291 989.238L1121.51 486.66L524.11 -109.393V17.9452L994.177 486.66L524.11 956.726V1078.65L620.291 989.238Z" fill="#9FD7F8" fill-opacity="0.11"/>
</g>
<defs>
<filter id="filter0_d_50_110" x="-4" y="0" width="1928" height="1088" filterUnits="userSpaceOnUse" color-interpolation-filters="sRGB">
<feFlood flood-opacity="0" result="BackgroundImageFix"/>
<feColorMatrix in="SourceAlpha" type="matrix" values="0 0 0 0 0 0 0 0 0 0 0 0 0 0 0 0 0 0 127 0" result="hardAlpha"/>
<feOffset dy="4"/>
<feGaussianBlur stdDeviation="2"/>
<feComposite in2="hardAlpha" operator="out"/>
<feColorMatrix type="matrix" values="0 0 0 0 0 0 0 0 0 0 0 0 0 0 0 0 0 0 0.25 0"/>
<feBlend mode="normal" in2="BackgroundImageFix" result="effect1_dropShadow_50_110"/>
<feBlend mode="normal" in="SourceGraphic" in2="effect1_dropShadow_50_110" result="shape"/>
</filter>
<radialGradient id="paint0_radial_50_110" cx="0" cy="0" r="1" gradientUnits="userSpaceOnUse" gradientTransform="translate(638.748 997.796) rotate(-90) scale(24.0172 26.8686)">
<stop stop-color="#0073C0"/>
<stop offset="0.3" stop-color="#005C97"/>
<stop offset="0.6" stop-color="#004774"/>
<stop offset="0.8" stop-color="#003B5E"/>
<stop offset="1" stop-color="#003757"/>
</radialGradient>
<radialGradient id="paint1_radial_50_110" cx="0" cy="0" r="1" gradientUnits="userSpaceOnUse" gradientTransform="translate(651.1 969.703) rotate(-90) scale(28.3169 14.337)">
<stop stop-color="#0073C0"/>
<stop offset="0.3" stop-color="#005C97"/>
<stop offset="0.6" stop-color="#004774"/>
<stop offset="0.8" stop-color="#003B5E"/>
<stop offset="1" stop-color="#003757"/>
</radialGradient>
<radialGradient id="paint2_radial_50_110" cx="0" cy="0" r="1" gradientUnits="userSpaceOnUse" gradientTransform="translate(648.014 953.451) rotate(-90) scale(28.9465 15.0804)">
<stop stop-color="#0073C0"/>
<stop offset="0.3" stop-color="#005C97"/>
<stop offset="0.6" stop-color="#004774"/>
<stop offset="0.8" stop-color="#003B5E"/>
<stop offset="1" stop-color="#003757"/>
</radialGradient>
<radialGradient id="paint3_radial_50_110" cx="0" cy="0" r="1" gradientUnits="userSpaceOnUse" gradientTransform="translate(642.375 944.88) rotate(-90) scale(22.3391 14.9742)">
<stop stop-color="#0073C0"/>
<stop offset="0.3" stop-color="#005C97"/>
<stop offset="0.6" stop-color="#004774"/>
<stop offset="0.8" stop-color="#003B5E"/>
<stop offset="1" stop-color="#003757"/>
</radialGradient>
<radialGradient id="paint4_radial_50_110" cx="0" cy="0" r="1" gradientUnits="userSpaceOnUse" gradientTransform="translate(636.729 938.772) rotate(-90) scale(15.2074 14.4432)">
<stop stop-color="#0073C0"/>
<stop offset="0.3" stop-color="#005C97"/>
<stop offset="0.6" stop-color="#004774"/>
<stop offset="0.8" stop-color="#003B5E"/>
<stop offset="1" stop-color="#003757"/>
</radialGradient>
<radialGradient id="paint5_radial_50_110" cx="0" cy="0" r="1" gradientUnits="userSpaceOnUse" gradientTransform="translate(558.529 939.185) rotate(-90) scale(15.4172 14.4432)">
<stop stop-color="#0073C0"/>
<stop offset="0.3" stop-color="#005C97"/>
<stop offset="0.6" stop-color="#004774"/>
<stop offset="0.8" stop-color="#003B5E"/>
<stop offset="1" stop-color="#003757"/>
</radialGradient>
<radialGradient id="paint6_radial_50_110" cx="0" cy="0" r="1" gradientUnits="userSpaceOnUse" gradientTransform="translate(553.088 945.662) rotate(-90) scale(22.1293 14.6557)">
<stop stop-color="#0073C0"/>
<stop offset="0.3" stop-color="#005C97"/>
<stop offset="0.6" stop-color="#004774"/>
<stop offset="0.8" stop-color="#003B5E"/>
<stop offset="1" stop-color="#003757"/>
</radialGradient>
<radialGradient id="paint7_radial_50_110" cx="0" cy="0" r="1" gradientUnits="userSpaceOnUse" gradientTransform="translate(547.517 955.196) rotate(-90) scale(28.2123 14.7619)">
<stop stop-color="#0073C0"/>
<stop offset="0.3" stop-color="#005C97"/>
<stop offset="0.6" stop-color="#004774"/>
<stop offset="0.8" stop-color="#003B5E"/>
<stop offset="1" stop-color="#003757"/>
</radialGradient>
<radialGradient id="paint8_radial_50_110" cx="0" cy="0" r="1" gradientUnits="userSpaceOnUse" gradientTransform="translate(544.6 969.771) rotate(-90) scale(29.487 14.337)">
<stop stop-color="#0073C0"/>
<stop offset="0.3" stop-color="#005C97"/>
<stop offset="0.6" stop-color="#004774"/>
<stop offset="0.8" stop-color="#003B5E"/>
<stop offset="1" stop-color="#003757"/>
</radialGradient>
<radialGradient id="paint9_radial_50_110" cx="0" cy="0" r="1" gradientUnits="userSpaceOnUse" gradientTransform="translate(546.238 987.01) rotate(-90) scale(25.5904 19.5409)">
<stop stop-color="#0073C0"/>
<stop offset="0.3" stop-color="#005C97"/>
<stop offset="0.6" stop-color="#004774"/>
<stop offset="0.8" stop-color="#003B5E"/>
<stop offset="1" stop-color="#003757"/>
</radialGradient>
<radialGradient id="paint10_radial_50_110" cx="0" cy="0" r="1" gradientUnits="userSpaceOnUse" gradientTransform="translate(552.525 998.578) rotate(-90) scale(23.7026 27.1872)">
<stop stop-color="#0073C0"/>
<stop offset="0.3" stop-color="#005C97"/>
<stop offset="0.6" stop-color="#004774"/>
<stop offset="0.8" stop-color="#003B5E"/>
<stop offset="1" stop-color="#003757"/>
</radialGradient>
<radialGradient id="paint11_radial_50_110" cx="0" cy="0" r="1" gradientUnits="userSpaceOnUse" gradientTransform="translate(563.814 1010.51) rotate(-90) scale(17.1924 33.3469)">
<stop stop-color="#0073C0"/>
<stop offset="0.3" stop-color="#005C97"/>
<stop offset="0.6" stop-color="#004774"/>
<stop offset="0.8" stop-color="#003B5E"/>
<stop offset="1" stop-color="#003757"/>
</radialGradient>
<radialGradient id="paint12_radial_50_110" cx="0" cy="0" r="1" gradientUnits="userSpaceOnUse" gradientTransform="translate(585.845 1023.51) rotate(-90) scale(14.0308 77.2076)">
<stop stop-color="#0073C0"/>
<stop offset="0.3" stop-color="#005C97"/>
<stop offset="0.6" stop-color="#004774"/>
<stop offset="0.8" stop-color="#003B5E"/>
<stop offset="1" stop-color="#003757"/>
</radialGradient>
<radialGradient id="paint13_radial_50_110" cx="0" cy="0" r="1" gradientUnits="userSpaceOnUse" gradientTransform="translate(625.214 1009.82) rotate(-90) scale(17.2651 33.3469)">
<stop stop-color="#0073C0"/>
<stop offset="0.3" stop-color="#005C97"/>
<stop offset="0.6" stop-color="#004774"/>
<stop offset="0.8" stop-color="#003B5E"/>
<stop offset="1" stop-color="#003757"/>
</radialGradient>
<radialGradient id="paint14_radial_50_110" cx="0" cy="0" r="1" gradientUnits="userSpaceOnUse" gradientTransform="translate(647.944 985.137) rotate(-90) scale(27.4903 19.9657)">
<stop stop-color="#0073C0"/>
<stop offset="0.3" stop-color="#005C97"/>
<stop offset="0.6" stop-color="#004774"/>
<stop offset="0.8" stop-color="#003B5E"/>
<stop offset="1" stop-color="#003757"/>
</radialGradient>
<radialGradient id="paint15_radial_50_110" cx="0" cy="0" r="1" gradientUnits="userSpaceOnUse" gradientTransform="translate(576.42 950.312) rotate(-90) scale(94.6007 105.882)">
<stop stop-color="#0073C0"/>
<stop offset="0.3" stop-color="#005C97"/>
<stop offset="0.6" stop-color="#004774"/>
<stop offset="0.8" stop-color="#003B5E"/>
<stop offset="1" stop-color="#003757"/>
</radialGradient>
<radialGradient id="paint16_radial_50_110" cx="0" cy="0" r="1" gradientUnits="userSpaceOnUse" gradientTransform="translate(309.798 963.909) rotate(-90) scale(59.361 45.2957)">
<stop stop-color="#0073C0"/>
<stop offset="0.3" stop-color="#005C97"/>
<stop offset="0.6" stop-color="#004774"/>
<stop offset="0.8" stop-color="#003B5E"/>
<stop offset="1" stop-color="#003757"/>
</radialGradient>
<radialGradient id="paint17_radial_50_110" cx="0" cy="0" r="1" gradientUnits="userSpaceOnUse" gradientTransform="translate(282.633 989.526) rotate(-90) scale(29.9953 25.3819)">
<stop stop-color="#0073C0"/>
<stop offset="0.3" stop-color="#005C97"/>
<stop offset="0.6" stop-color="#004774"/>
<stop offset="0.8" stop-color="#003B5E"/>
<stop offset="1" stop-color="#003757"/>
</radialGradient>
<radialGradient id="paint18_radial_50_110" cx="0" cy="0" r="1" gradientUnits="userSpaceOnUse" gradientTransform="translate(297.227 941.142) rotate(-90) scale(48.5585 78.5881)">
<stop stop-color="#0073C0"/>
<stop offset="0.3" stop-color="#005C97"/>
<stop offset="0.6" stop-color="#004774"/>
<stop offset="0.8" stop-color="#003B5E"/>
<stop offset="1" stop-color="#003757"/>
</radialGradient>
<radialGradient id="paint19_radial_50_110" cx="0" cy="0" r="1" gradientUnits="userSpaceOnUse" gradientTransform="translate(297.227 954.633) rotate(-90) scale(92.0836 78.5881)">
<stop stop-color="#0073C0"/>
<stop offset="0.3" stop-color="#005C97"/>
<stop offset="0.6" stop-color="#004774"/>
<stop offset="0.8" stop-color="#003B5E"/>
<stop offset="1" stop-color="#003757"/>
</radialGradient>
<clipPath id="clip0_50_110">
<rect width="1920" height="1080" fill="white"/>
</clipPath>
</defs>
</svg>
