<svg width="386" height="99" viewBox="0 0 386 99" fill="none" xmlns="http://www.w3.org/2000/svg">
<path d="M231.3 0.296875H231V98.5971H231.3V0.296875Z" fill="white"/>
<path d="M370.507 72.5971C367.507 74.0971 364.307 75.6971 361.707 78.2971L361.407 78.4971C361.407 78.4971 360.507 78.8971 360.207 79.0971H360.107L359.907 78.7971C361.607 77.2971 363.207 75.4971 364.207 73.5971C365.707 71.0971 366.107 68.0971 366.507 65.2971C366.807 63.0971 367.207 60.8971 368.007 58.7971C367.207 59.7971 366.207 61.0971 366.207 61.0971C366.207 61.0971 364.907 62.8971 365.007 62.8971C363.407 65.3971 362.407 68.1971 361.507 70.8971C360.307 74.6971 358.907 78.6971 355.707 81.6971C356.907 81.3971 361.407 80.3971 361.407 80.3971L366.207 79.3971C372.507 77.3971 379.107 71.3971 381.007 64.4971C380.107 65.9971 378.907 67.3971 377.307 68.6971C375.207 70.2971 372.807 71.4971 370.607 72.5971H370.507Z" fill="white"/>
<path d="M381.397 41.2984L380.797 42.6984C379.897 44.6984 379.397 46.9981 378.897 49.1981C378.897 49.1981 378.197 52.2981 378.097 52.3981L377.797 52.6981L377.097 53.2981L377.497 51.4981L377.897 48.0981C377.897 47.8981 377.897 47.6981 377.897 47.4981C377.897 43.9984 376.097 41.1984 374.397 38.3984C373.297 36.5984 372.197 34.6984 371.497 32.5984C371.497 33.0984 371.497 33.5984 371.497 33.5984C371.997 39.4984 373.597 44.8984 375.197 49.8981C375.697 51.1981 375.897 52.7981 375.897 54.2981C375.897 55.7981 375.897 56.3981 375.697 57.3981C376.397 56.3981 379.197 52.5981 379.197 52.5981L382.197 48.5981C384.097 45.0984 384.997 40.9984 384.997 36.9984C384.997 32.9984 384.597 32.4984 383.897 30.3984C383.897 30.4984 383.897 30.6984 383.897 30.8984C383.897 34.5984 382.397 37.8984 380.997 41.0984L381.397 41.2984Z" fill="white"/>
<path d="M378.007 34.2016L377.307 31.8016C376.407 29.2016 374.207 27.3016 372.107 25.4016C370.607 24.1016 369.207 22.8016 368.207 21.2016C368.707 22.8016 369.507 25.5016 369.507 25.5016C370.507 27.9016 372.207 30.1016 373.807 32.2016C375.807 34.8016 377.907 37.6016 378.707 40.8016C378.707 40.8016 378.907 41.6016 378.907 41.7016C379.307 39.2016 379.907 36.8016 380.807 34.6016C381.907 32.3016 382.407 29.6016 382.407 26.9016C382.407 22.8016 381.207 18.6016 379.007 15.6016L378.407 14.8016C378.407 14.8016 378.107 14.5016 377.807 14.1016C378.707 16.0016 379.107 18.2016 379.107 20.4016C378.707 23.4016 378.507 26.3016 378.507 29.1016C378.507 31.9016 378.607 33.6016 378.907 35.6016H378.507C378.507 35.7016 378.507 35.8016 378.507 35.8016H378.307L378.007 34.1016V34.2016Z" fill="white"/>
<path d="M365.897 16.9L370.397 20.8C372.797 22.7 375.197 24.6 376.697 27.3C376.597 26.3 376.397 25.3 376.397 24.4C376.397 23.5 376.397 22.4 376.497 21.3C376.497 20.3 376.597 19.3 376.597 18.3C376.597 17.3 376.597 15.8 376.197 14.6C375.497 11.3 372.497 7.4 368.797 6C369.997 7.1 370.997 8.4 371.597 10L372.797 14.5C373.497 17.2 374.097 20 375.297 22.5L374.997 22.7H374.797C374.797 22.8 374.197 21.6 374.197 21.6C374.197 21.6 372.797 19.4 372.697 19.4C371.397 17.6 369.597 16.4 367.797 15.2C366.097 14 364.397 12.6 363.097 10.9C363.097 10.9 362.997 10.7 362.897 10.6C362.897 10.5 362.697 10.3 362.597 10.2C363.197 13 364.197 15.2 365.697 16.9H365.897Z" fill="white"/>
<path d="M370.697 14.7984C370.697 14.6984 370.597 14.4984 370.597 14.4984C369.797 11.3984 368.497 7.39844 365.197 4.39844C363.197 2.59844 360.797 1.69844 358.497 0.898438C358.497 0.898438 357.797 0.598438 357.097 0.398438C358.097 1.39844 359.897 3.29844 359.897 3.29844C362.597 7.69844 366.497 11.6984 370.697 14.8984V14.7984Z" fill="white"/>
<path d="M281.097 13.7969C282.597 12.4969 284.197 11.1969 285.497 9.59687L286.697 7.89688C288.397 5.39688 290.297 2.89678 292.497 0.796875C288.397 2.39688 284.197 3.99687 281.797 8.09687C280.697 9.49687 280.297 11.1968 279.797 12.7969C279.797 12.7969 279.197 14.4969 278.897 15.4969C279.597 14.8969 280.997 13.6969 280.997 13.6969L281.097 13.7969Z" fill="white"/>
<path d="M274.897 23.2969H274.797L275.597 20.5969L276.297 18.4969L277.097 14.8968C277.697 11.8968 278.397 8.99688 280.697 6.79688C279.097 7.49677 277.497 8.49688 276.297 9.99688C273.997 12.3969 273.397 15.6969 273.397 19.1969C273.397 22.6969 273.497 22.4969 273.697 24.1969C273.697 24.1969 273.697 27.2968 273.697 27.8968C274.597 26.2968 275.997 24.6968 278.097 22.7969C283.897 18.6969 286.797 14.6969 287.197 10.4969C287.197 10.5969 286.997 10.7968 286.897 10.8968C286.897 10.8968 286.897 10.9969 286.797 11.0969C285.597 13.0969 283.797 14.5968 281.897 15.8968L278.797 18.2969C277.197 19.8969 275.997 21.5968 275.397 23.3968C275.397 23.3968 275.397 23.3968 275.197 23.3968C275.197 23.3968 275.097 23.3968 274.997 23.3968L274.897 23.2969Z" fill="white"/>
<path d="M271.697 36.4984C271.597 36.4984 271.497 36.4984 271.497 36.4984L271.897 30.7984L271.397 25.2984C271.197 23.5984 270.897 21.8984 270.897 20.1984C270.897 18.4984 271.197 17.2984 271.697 15.8984C269.197 19.4984 267.797 22.9984 267.797 26.6984V27.1984C267.797 27.4984 267.797 27.7984 267.797 27.9984C267.797 30.9984 268.797 33.6984 269.797 36.2984C270.597 38.3984 271.397 40.4984 271.697 42.7984C272.497 39.1984 274.497 36.0984 276.597 33.1984L280.097 27.6984C280.897 25.8984 281.297 24.0984 281.697 22.2984C281.197 22.9984 280.697 23.7984 280.697 23.8984L279.897 24.6984C276.597 27.6984 273.197 30.7984 272.497 34.9984V35.6984C272.397 35.6984 272.097 36.9984 272.097 36.9984C272.097 36.9984 272.097 36.9984 271.897 36.9984C271.897 36.9984 271.797 36.9984 271.697 36.9984V36.4984Z" fill="white"/>
<path d="M271.497 49.3982L270.897 46.8982L268.697 41.1977C267.397 38.2977 265.997 35.2977 265.997 31.8977C265.997 28.4977 265.997 31.8977 265.997 31.7977C265.797 32.5977 265.497 33.3977 265.497 33.3977L265.297 34.1977C265.097 35.2977 264.997 36.3977 264.997 37.6977C264.997 40.2977 265.497 43.1977 266.397 46.2982C267.197 48.9982 269.097 51.2982 270.997 53.5982C272.297 55.1982 273.597 56.7982 274.497 58.4982C274.397 57.4982 274.197 56.4982 274.197 55.3982C274.197 54.2982 274.297 52.9982 274.697 51.8982L275.597 48.7982L277.597 41.1977L277.897 39.3977C278.197 37.5977 278.497 35.6977 278.497 33.8977C278.497 32.0977 278.497 33.5977 278.497 33.3977C278.197 34.4977 277.897 35.6977 277.197 36.6977C274.597 40.5977 272.297 44.7977 272.297 49.0982C272.297 53.3982 272.497 51.7982 272.997 53.1982H272.797C272.797 53.3982 272.697 53.3982 272.597 53.3982H272.397L271.297 49.4982L271.497 49.3982Z" fill="white"/>
<path d="M283.407 72.2982C283.207 71.7982 282.907 71.1982 282.907 71.1982L281.707 68.3982C281.007 65.4982 280.707 62.3982 280.507 59.2982C280.207 55.3982 279.607 51.4982 278.407 47.8982C278.407 49.6982 278.007 51.2982 277.707 52.9982L277.007 56.7982C277.007 57.3982 277.007 57.9982 277.007 58.4982C277.007 60.8982 277.507 63.0982 278.507 64.9982L279.007 65.9982L279.607 67.1982L279.207 67.3982L277.107 64.6982L276.507 63.7982C275.207 61.5982 273.307 59.6982 271.507 57.8982C268.807 55.1982 266.107 52.2982 265.207 48.5982C265.207 48.8982 265.207 49.1982 265.207 49.4982C265.207 52.0982 265.607 54.3982 266.407 56.1982C268.707 62.5982 275.007 66.5982 280.607 70.1982C280.607 70.1982 282.707 71.5982 283.607 72.0982L283.407 72.2982Z" fill="white"/>
<path d="M286.997 77.3011C284.897 75.5011 282.297 74.3011 279.797 73.1011C275.897 71.2011 271.897 69.2011 269.397 65.1011C270.697 69.9011 274.397 74.7011 279.497 77.8011C282.397 79.8011 285.997 80.4011 289.497 81.0011C289.497 81.0011 293.897 81.9011 294.997 82.2011C291.697 79.2011 290.297 75.2011 288.997 71.4011L287.597 67.5011C286.497 65.1011 284.797 62.5011 282.497 59.6011C283.297 61.6011 283.697 63.8011 283.997 66.0011C284.497 69.2011 284.997 72.5011 286.897 75.1011C287.797 76.6011 289.297 78.0011 290.597 79.2011C290.597 79.2011 290.597 79.2011 290.597 79.3011C290.597 79.4011 290.597 79.5011 290.597 79.5011L287.097 77.1011L286.997 77.3011Z" fill="white"/>
<path d="M305.797 86.2L308.597 85.5L309.897 85.3C309.897 85.3 310.197 85.3 310.397 85.3C307.697 84.7 304.497 83.7 301.697 81.3L299.297 79C296.597 76.4 294.097 74 291.197 72C291.897 73.2 293.297 75.6 293.297 75.6C294.897 78.9 296.597 82.4 300.597 83.8L302.097 84.3L303.797 84.9V85.3L301.497 85.1L300.497 84.9L293.197 84.1C288.097 83.8 282.897 83.3 278.997 79.8C281.197 83.3 284.897 86.2 288.997 87.5C294.597 89.4 300.297 87.9 305.897 86.4L305.797 86.2Z" fill="white"/>
<path d="M311.797 98.5972C314.497 94.9972 318.197 91.6972 322.797 88.6972L323.197 88.4972C323.197 88.4972 325.597 87.4972 325.797 87.4972C331.197 90.0972 335.797 94.6972 338.897 98.3972C338.897 98.3972 340.997 96.4972 341.297 96.4972C337.197 92.5972 332.697 89.3972 327.897 87.1972L327.097 86.8972H327.897L330.597 86.4972C332.697 86.3972 334.297 87.4972 335.897 88.5972L337.197 89.4972C343.097 93.9972 349.697 95.3972 355.097 93.3972C357.697 92.4972 359.897 90.8972 361.697 88.9972C357.897 91.0972 352.597 91.5972 348.197 89.9972L343.197 87.9972C338.197 85.2972 331.797 84.4972 326.597 85.8972C325.797 86.5972 324.897 86.2972 324.197 86.0972L322.997 85.7972C316.297 84.2972 310.397 86.8972 304.697 89.4972L302.797 90.2972C298.297 92.0972 292.997 91.6972 288.997 89.5972C290.697 91.2972 292.697 92.6972 295.497 93.7972C300.197 95.6972 306.297 94.7972 311.097 91.4972L313.897 89.5972C316.597 87.5972 319.297 85.5972 323.097 86.7972L323.697 86.9972L323.197 87.1972C318.497 89.3972 314.197 92.3972 310.197 95.9972C309.997 96.1972 309.797 96.3972 309.597 96.4972C309.697 96.5972 311.797 98.3972 311.897 98.5972H311.797Z" fill="white"/>
<path d="M347.097 84.7971V84.3971L348.897 83.6971L351.297 82.6971C354.597 81.0971 355.897 78.1971 357.297 75.1971C357.897 73.8971 358.697 72.4971 359.497 71.2971C356.597 73.3971 354.097 75.7971 351.397 78.4971L348.697 81.0971C346.397 83.1971 343.597 84.1971 340.397 84.9971C340.597 84.9971 340.797 84.9971 340.797 84.9971L346.297 86.1971C351.497 87.3971 356.797 88.6971 361.997 86.7971C365.497 85.5971 369.597 82.6971 371.797 78.9971C367.997 82.5971 362.897 83.1971 357.797 83.4971L352.597 83.9971L350.397 84.3971L346.997 84.8971L347.097 84.7971Z" fill="white"/>
<path d="M373.597 59.0022V58.5022C373.597 56.5022 373.197 54.6022 372.897 52.7022C372.497 50.9022 372.197 49.0022 372.197 47.0022V46.8022C371.997 47.4022 371.697 48.0022 371.697 48.0022C370.597 51.2022 370.297 54.9022 370.097 58.4022C369.797 62.9022 369.397 67.5022 367.097 71.4022C366.997 71.6022 366.897 71.9022 366.797 72.1022L372.997 67.9022L375.197 66.5022C381.897 61.9022 385.597 55.7022 385.597 49.1022C385.597 42.5023 385.597 48.2022 385.497 47.7022C384.497 52.1022 381.197 55.5022 377.797 58.8022L373.897 63.9022L371.797 66.9022H371.497C371.497 66.8022 371.397 66.8022 371.397 66.8022H371.197C372.797 64.3022 373.597 61.8022 373.797 59.1022" fill="white"/>
<path d="M333.807 18.1969L334.107 17.3968L333.607 17.1969V16.3968C333.707 16.3968 334.907 16.8968 334.907 16.8968L335.207 16.0969L332.307 14.9969L332.007 15.7969L333.007 16.1969C333.007 16.3969 333.007 16.6969 332.907 16.9969C332.707 16.9969 332.407 16.8968 332.407 16.8968L332.107 17.6969L333.007 17.9969L333.807 18.2969V18.1969ZM363.207 33.4969L357.007 35.3968L358.107 39.0969C358.307 39.8969 357.807 40.7969 357.307 41.6969L356.707 42.8968L356.407 43.4969C356.407 43.4969 355.507 44.8968 355.307 45.2969C353.507 44.4968 352.107 44.6969 350.707 45.0969H350.507L350.207 46.5971L349.207 47.2971L348.807 47.0971H349.207L349.707 43.5969C349.707 43.5969 349.707 42.7969 349.907 42.2969H350.107C351.007 42.2969 352.007 42.3969 352.807 41.6969C352.507 41.7969 354.707 41.6969 354.707 41.6969C354.907 41.5969 355.607 40.8968 355.607 40.8968L356.907 39.4969C357.107 39.0969 357.307 38.4969 357.307 37.9969C357.307 37.4969 357.007 36.4968 356.407 35.8968L356.107 35.6969C355.607 35.2969 355.007 34.8969 354.207 34.7969C354.107 34.5968 353.907 34.2969 353.907 34.2969C353.107 33.7969 352.507 33.8969 351.807 34.0969C351.807 33.3969 351.507 30.5969 351.507 30.5969C351.507 30.3969 351.407 30.2969 351.407 30.1969C351.407 29.9969 351.507 29.7968 351.807 29.3968L352.207 28.3968H353.407V24.0969C353.407 24.0969 349.907 24.0969 348.907 24.0969C349.007 23.8969 349.207 23.7969 349.207 23.4969C349.207 23.1969 349.207 23.1969 349.207 23.0969C348.607 21.8969 347.707 21.9969 346.907 22.0969C346.907 22.0969 346.907 22.0969 346.807 22.0969C346.807 21.8969 347.007 20.2969 347.007 20.2969L346.307 20.7969C346.307 20.7969 342.507 23.1969 342.107 23.4969C341.807 23.2969 340.507 22.2969 340.507 22.2969C340.507 22.2969 338.307 20.6969 337.907 20.4969C337.907 19.7969 337.407 19.2969 336.907 18.6969C336.907 18.6969 336.907 18.5969 336.707 18.4969C337.507 18.0969 338.107 17.4969 338.407 16.9969C338.607 16.5969 338.807 15.9969 338.807 15.4969C338.807 14.9969 338.807 14.6968 338.507 14.3968C337.607 12.4968 335.607 11.3968 333.307 11.3968C332.307 11.5968 331.207 12.3968 330.507 13.3968C330.007 13.8968 329.907 14.3969 329.807 14.9969C329.507 14.9969 329.207 14.9969 329.207 14.9969C328.707 14.9969 328.507 14.9969 328.107 14.5969C328.107 14.5969 324.807 10.9969 324.507 10.5969C324.607 10.2969 324.807 9.89687 324.807 9.59687C324.807 9.09687 324.707 8.59688 324.507 8.29688L324.007 7.39688L323.307 6.69688L321.107 6.29688L321.407 6.89688C321.407 6.99688 319.407 7.09687 319.407 7.09687V12.6969H323.007C323.807 13.9969 325.507 16.5969 326.107 17.4969C322.907 17.6969 320.707 18.0969 318.007 18.9969L316.707 18.2969L315.707 19.6969C314.607 19.7969 313.607 20.3968 312.707 20.8968C312.707 20.8968 311.707 20.9969 310.907 21.1969C311.507 20.2969 312.707 18.3968 312.707 18.3968C312.707 18.3968 315.707 13.1969 315.807 13.1969L317.007 12.7969L318.107 11.1969C318.407 10.1969 318.207 8.99688 317.707 8.39688V8.19688C317.607 8.19688 316.907 8.29688 316.907 8.29688C316.907 8.29688 316.307 8.99688 316.007 9.39688C316.007 9.29688 315.307 8.69688 315.307 8.69688L314.607 10.6969C314.607 10.6969 311.307 14.7968 309.907 16.3968C309.907 16.1968 309.907 16.0969 309.907 15.9969C310.007 15.6969 310.407 14.4969 310.407 14.4969V14.2969C310.207 13.5969 309.407 12.4969 308.807 12.1969L308.307 11.9969V12.3968L308.107 13.1969C307.207 12.4969 306.007 11.9969 305.107 11.9969H304.607C304.607 11.9969 304.907 12.8969 305.007 13.1969C304.607 13.1969 303.607 12.9969 303.607 12.9969C303.607 12.9969 303.707 13.8969 303.807 14.1969C303.107 14.1969 301.307 13.8968 301.307 13.8968L301.607 14.4969C301.607 14.4969 301.807 15.0969 302.007 15.4969C301.507 15.4969 300.607 15.5969 300.607 15.5969V15.8968C300.607 15.8968 300.607 15.9969 300.607 16.0969C300.607 16.3969 300.807 16.5969 301.007 16.6969C300.507 16.6969 299.207 16.9969 299.207 16.9969L299.607 17.4969C299.607 17.4969 299.607 17.5969 299.707 17.6969C299.607 17.6969 299.407 17.6969 299.407 17.6969L297.807 18.0969L298.207 18.4969L298.507 19.0969C298.307 19.0969 296.907 19.8968 296.907 19.8968L297.307 20.1969C297.107 20.1969 296.907 20.1969 296.907 20.1969H296.507C295.907 20.1969 295.207 20.1969 294.907 20.6969L294.507 20.8968L294.107 21.1969V21.6969C294.107 21.6969 294.907 22.4968 295.307 22.7969C295.007 22.9969 294.607 23.3968 294.607 23.3968L294.407 23.6969L293.907 24.7969H294.607C295.407 24.6968 296.207 24.2969 296.907 23.6969L297.207 24.9969C297.207 25.0969 298.707 25.3968 298.707 25.3968L299.807 24.6969L299.407 24.4969C299.107 24.0969 299.007 23.6969 299.007 23.4969C299.007 23.2969 299.007 23.2969 299.107 23.1969L300.907 22.9969C300.907 22.9969 301.307 22.9969 301.707 22.9969C301.707 27.7969 301.607 31.3969 300.707 34.9969C300.207 34.9969 299.507 34.6969 299.507 34.6969L297.307 34.1969L295.507 33.7969C294.307 34.2969 294.207 34.9969 294.107 35.5969C294.107 35.5969 294.107 35.7969 294.007 35.9969C293.807 35.9969 293.607 35.9969 293.607 35.9969L291.807 35.5969C290.907 35.3969 290.007 36.1969 289.607 36.9969C289.607 37.1969 289.507 37.3969 289.507 37.4969C289.507 38.1969 290.107 38.6969 290.707 39.0969L291.707 40.0969C291.707 40.0969 291.707 40.2968 291.607 40.3968C291.207 40.2968 290.607 39.9969 290.607 39.9969C289.607 39.5969 288.607 39.0968 287.707 39.8968C287.607 40.1968 287.607 40.4968 287.607 40.7969C287.607 41.6968 288.107 42.2969 288.607 42.9969C288.607 42.9969 288.707 43.0969 288.807 43.1969C288.307 43.1969 287.807 43.1969 287.807 43.1969L286.707 42.9969V43.1969C286.607 43.1969 282.807 47.0971 282.807 47.0971L283.107 47.3971C284.107 48.3971 285.207 47.7971 286.107 47.1971C286.607 46.8971 287.107 46.6971 287.707 46.5971C287.607 46.7971 287.407 46.9971 287.407 46.9971C287.307 47.1971 287.207 47.2971 287.207 47.4971C287.207 47.6971 287.207 47.5971 287.207 47.6971C287.207 48.0971 287.607 48.3971 288.007 48.5971H288.207C288.207 48.6971 290.107 47.5971 290.107 47.5971L291.907 46.4971C291.607 46.4971 294.207 46.8971 294.207 46.8971L301.807 47.4971C301.907 47.4971 303.307 47.2971 303.807 47.2971C305.007 53.1971 309.407 58.9971 314.907 61.9971C314.807 62.2971 314.607 62.8971 314.607 62.8971C314.607 63.0971 314.607 63.2971 314.607 63.4971C314.607 64.2971 315.007 64.8971 315.707 65.3971C315.807 65.3971 318.107 65.5971 318.107 65.5971C318.107 65.5971 319.507 65.6971 320.407 65.7971C319.707 66.0971 318.407 66.3971 318.407 66.3971C317.207 66.5971 316.007 66.8971 314.907 67.7971C313.107 68.6971 311.807 71.1971 311.807 72.8971C311.807 74.5971 311.807 73.3971 311.807 73.3971H312.207C313.207 73.3971 314.507 72.6971 315.207 71.5971C317.107 68.9971 320.307 68.7971 323.107 68.6971C323.107 68.6971 324.107 68.5971 325.107 68.4971C324.407 68.9971 323.807 69.5971 323.807 69.5971L321.607 71.3971L319.007 72.6971L313.707 75.5971L314.007 75.8971C314.107 76.0971 314.407 76.0971 314.807 76.1971L319.407 76.6971V76.4971C321.407 74.2971 324.207 72.8971 327.007 72.6971C328.707 72.2971 330.307 70.9971 331.907 69.7971C331.907 69.7971 332.707 69.1971 333.107 68.8971C333.207 69.0971 333.307 69.2971 333.307 69.2971C333.307 69.2971 333.307 69.5971 333.307 69.7971V70.3971C333.307 70.5971 333.207 70.8971 333.207 71.1971C333.207 71.4971 333.307 71.9971 333.707 72.3971L333.907 72.5971H334.007L336.407 71.5971C336.407 71.5971 337.207 71.2971 337.707 71.0971C337.707 72.3971 337.807 73.4971 338.407 74.3971C339.407 74.7971 340.207 74.1971 340.807 73.6971C340.807 73.6971 341.007 73.4971 341.207 73.3971C341.507 73.6971 342.207 74.3971 342.207 74.3971C342.607 74.7971 343.507 74.9971 344.107 74.8971C344.607 74.7971 344.907 74.3971 345.007 73.9971C345.107 73.6971 345.207 73.4971 345.207 73.1971C345.207 72.6971 345.007 72.2971 344.707 71.8971L344.407 71.2971C344.407 71.0971 344.307 70.7971 344.307 70.5971C344.307 70.2971 344.507 70.0971 344.607 69.8971C345.407 70.1971 346.007 70.4971 346.507 71.2971C346.507 71.4971 346.507 72.0971 346.507 72.0971C346.507 72.7971 346.107 73.3971 345.607 74.0971C345.107 74.7971 344.507 75.5971 344.507 76.6971C344.507 77.7971 344.507 77.4971 344.507 77.4971L347.507 75.7971C349.007 75.2971 349.307 74.3971 349.307 73.4971C349.307 72.5971 349.307 72.8971 349.307 72.5971C349.307 72.5971 349.307 72.0971 349.307 71.7971C349.707 71.7971 350.407 71.5971 350.407 71.5971C351.007 71.0971 351.207 70.5971 351.207 70.0971C351.207 69.5971 351.207 69.3971 351.007 69.0971L350.807 68.1971L351.107 66.8971C351.407 65.4971 351.607 64.0971 351.607 62.7971C351.607 61.4971 351.507 61.0971 351.207 60.1971C351.207 60.3971 352.207 56.1971 352.207 56.0971L352.907 55.3971C352.907 55.3971 353.907 54.1971 354.107 53.7971C355.607 53.4971 356.707 52.1971 356.907 50.8971C356.907 49.4971 357.407 48.4971 358.007 47.3971L358.907 45.4969L359.407 43.8968C359.807 42.2968 360.107 41.5969 361.307 41.4969C362.607 40.6969 362.807 39.5969 362.807 38.7969V38.2969L364.807 37.6969L363.607 33.5969L363.207 33.4969ZM350.507 47.1971C350.707 47.5971 351.007 48.1971 351.207 48.4971C351.207 48.4971 351.207 48.4971 351.107 48.5971C350.907 48.3971 350.107 47.6971 349.907 47.5971C350.207 47.3971 350.307 47.2971 350.507 47.0971M349.307 48.9971C349.307 48.8971 349.507 48.5971 349.807 48.6971C349.807 48.6971 350.607 48.7971 350.907 48.7971C350.507 49.2971 350.207 49.7971 350.107 50.2971C349.807 50.0971 349.407 49.8971 349.307 49.8971C349.307 49.7971 349.207 49.5971 349.207 49.4971C349.207 49.3971 349.207 49.1971 349.307 48.9971ZM349.007 47.9971C349.107 47.9971 349.207 48.1971 349.307 48.1971C349.207 48.1971 349.007 48.2971 348.907 48.3971V47.9971H349.007ZM349.507 36.1969C349.307 35.2969 349.207 34.3968 349.207 34.3968C349.507 34.2968 349.707 27.9968 349.707 27.8968L350.007 25.3968C350.007 25.6968 350.207 25.8969 350.207 25.9969L350.307 27.8968V28.2969H351.707L351.507 28.7969C351.207 29.2969 350.707 29.9969 351.207 30.6969C351.207 30.4969 351.407 33.3969 351.407 34.2969L350.207 34.7969C349.807 35.2969 349.707 35.6969 349.607 36.1969H349.507ZM351.307 35.0969C350.907 35.9969 350.707 36.7968 350.607 37.8968V37.6969C350.407 37.1969 350.307 36.6969 350.307 36.2969C350.307 35.8968 350.307 35.6969 350.607 35.4969C350.607 35.4969 351.007 35.2969 351.407 35.1969L351.307 35.0969ZM350.107 38.0969H350.307C350.307 37.9969 350.007 38.5969 350.007 38.5969V38.4969L350.107 38.0969ZM350.407 41.3968C350.407 41.3968 350.207 41.2969 350.107 41.1969V40.8968V38.9969C350.307 38.9969 350.507 38.8969 350.607 38.6969C350.607 39.5969 351.007 40.4969 351.907 41.1969C351.407 41.3969 350.907 41.2969 350.407 41.2969V41.3968ZM354.307 35.3968C354.807 35.3968 355.307 35.7969 355.807 36.1969C356.807 37.0969 356.807 38.1969 356.307 38.9969L355.207 40.1969L355.007 40.3968L354.607 40.1969C353.907 39.9969 353.507 39.2969 353.407 38.4969V37.9969C353.407 36.9969 353.407 35.8968 354.207 35.3968H354.307ZM352.207 34.9969V34.7969V34.5969C352.807 34.3969 353.207 34.3969 353.707 34.6969C352.707 35.3969 352.707 36.6968 352.707 37.7969V38.2969C352.707 39.3969 353.407 40.2969 354.207 40.6969C353.807 40.6969 352.907 40.6969 352.807 40.6969C351.707 39.9969 351.507 39.1969 351.407 38.0969C351.507 36.7969 351.707 35.7969 352.307 34.7969L352.207 34.9969ZM352.807 24.7969V27.4969H351.007C351.007 26.9969 351.007 26.0969 351.007 26.0969C351.007 25.5969 350.807 25.1969 350.407 24.9969C350.107 24.7969 349.707 24.8969 349.407 25.0969C349.307 25.2969 349.107 26.7969 349.007 27.4969C348.807 27.4969 348.307 27.4969 347.907 27.4969C347.907 26.9969 347.907 25.2969 347.907 24.7969H348.407C348.407 24.7969 352.107 24.7969 352.807 24.7969ZM348.907 28.2969L348.707 33.0969C347.607 30.4969 346.307 28.1969 344.607 26.1969L345.507 25.1969C345.507 25.1969 345.907 24.5968 346.107 24.3968C346.307 24.3968 346.807 24.5969 347.007 24.5969V28.1969H348.807L348.907 28.2969ZM346.007 21.7969C346.007 22.0969 345.907 22.8968 345.907 22.8968H346.407C346.407 22.7968 347.107 22.6969 347.107 22.6969C347.907 22.5969 348.207 22.4969 348.507 23.0969C348.507 23.0969 348.507 23.0969 348.507 23.1969C348.507 23.3969 348.407 23.4968 348.107 23.7969C347.907 23.7969 347.707 23.7969 347.707 23.7969H347.407L345.707 23.2969V23.4969C345.607 23.4969 344.707 24.5969 344.707 24.5969L344.007 25.3968C343.507 24.8968 343.107 24.2969 342.607 23.7969C343.407 23.2969 345.207 22.1969 346.007 21.6969V21.7969ZM337.007 19.9969C336.307 19.6969 335.407 19.2969 334.707 18.9969C335.007 18.8969 335.307 18.6969 335.607 18.4969L336.307 19.2969C336.607 19.5969 336.807 19.7969 336.907 20.0969L337.007 19.9969ZM332.207 17.7969C332.107 17.6968 331.707 17.1969 331.707 16.4969C331.707 15.7969 331.707 15.7968 332.007 15.3968C332.007 15.2968 332.807 14.5969 332.907 14.4969C334.207 14.9969 335.707 15.7969 335.707 16.4969V16.8968V17.4969C335.207 17.9969 334.407 18.4969 333.607 18.5969L332.307 18.2969H332.407L332.207 17.9969V17.7969ZM333.507 12.0969C335.407 12.0969 337.107 12.9969 337.907 14.6969C338.107 14.9969 338.107 16.0969 337.907 16.4969C337.507 16.9969 337.107 17.4968 336.607 17.7969V16.8968V16.4969C336.607 15.0969 334.307 14.1969 332.507 13.4969L332.007 13.2969C332.507 12.7969 333.107 12.3968 333.607 12.3968L333.507 12.0969ZM331.207 13.8968C331.207 13.8968 331.207 13.7969 331.307 13.6969C331.507 13.6969 331.807 13.8969 332.107 13.9969C331.807 14.2969 331.407 14.5969 331.407 14.5969C331.107 15.0969 330.907 15.5969 330.907 15.9969L330.707 15.3968C330.707 14.6968 330.707 14.2969 331.207 13.7969V13.8968ZM322.607 11.7969H320.407V7.79688C320.807 7.79688 321.407 7.79688 321.807 7.79688C321.807 7.89688 321.807 8.09687 321.807 8.09687V8.59687C321.907 8.59687 321.107 7.99688 321.107 7.99688V8.69688C321.007 9.19688 320.907 10.0969 321.707 10.7969L322.207 11.1969C322.207 11.1969 322.407 11.4969 322.507 11.6969L322.607 11.7969ZM323.407 11.3968L322.907 10.6969L322.407 10.1969C322.207 10.0969 322.207 9.89688 322.207 9.69688C322.207 9.69688 322.407 9.49688 322.507 9.29688L322.807 9.59687C323.007 9.39687 323.107 9.19688 323.107 8.99688C323.107 8.69688 322.907 8.29688 322.807 7.89688L322.607 7.39688C322.907 7.39688 323.207 7.39688 323.207 7.39688L323.607 7.79688C323.607 7.89688 324.007 8.59687 324.007 8.59687C324.207 8.99687 324.207 9.39688 324.207 9.69688C324.207 9.99688 324.207 10.2969 323.907 10.5969L323.707 10.8968L327.707 15.2969C328.307 15.9968 328.907 15.9969 329.407 15.9969H330.007L330.507 17.4969L330.707 17.8968H330.307C330.307 17.7968 328.107 17.5969 327.307 17.5969L323.407 11.5969V11.3968ZM326.907 18.0969L330.107 18.3968L333.307 19.1969L337.307 20.9969L339.907 22.7969L341.707 24.0969C344.607 26.9969 346.807 30.3969 348.307 34.4969L349.107 38.6969V39.1969V41.4969L348.907 43.2969L348.407 46.7971V47.0971C348.307 47.0971 347.707 48.5971 347.607 49.0971C345.407 48.0971 343.107 49.3971 340.907 50.6971C340.907 50.6971 340.507 50.8971 340.107 51.1971C340.407 50.2971 340.707 48.8971 340.807 48.5971C341.007 48.5971 341.307 48.5971 341.307 48.5971C341.907 48.5971 342.707 48.5971 343.407 47.6971V47.4971C343.407 46.9971 343.207 45.3969 343.107 44.7969C343.507 44.5968 345.307 43.6969 345.307 43.6969L343.707 40.0969L342.107 40.9969C342.107 40.5969 342.307 40.0969 342.307 40.0969L341.607 40.2969C341.507 40.2969 330.607 43.4969 326.207 41.1969L325.607 40.8968C325.307 40.0968 324.607 39.6969 323.907 39.2969C324.407 39.2969 325.107 39.0968 325.507 38.3968C325.507 38.1968 326.007 36.6969 326.007 36.6969C326.207 36.0969 326.507 35.3969 326.507 34.6969C326.507 33.9969 326.207 33.2969 325.407 32.4969C324.507 31.6969 323.107 31.7968 322.207 31.8968C321.007 32.1968 320.507 33.2969 320.407 34.1969H320.207C319.707 34.1969 318.907 34.2969 318.507 35.1969C318.207 34.7969 317.007 32.6969 317.007 32.6969C316.607 32.2969 316.407 31.8969 316.407 31.5969C316.407 30.9969 316.807 30.3969 317.307 29.5969C317.307 29.5969 318.007 28.2968 318.207 27.8968C318.407 27.8968 318.607 27.8968 318.607 27.8968C320.107 27.3968 320.307 25.7969 320.507 24.7969V24.1969L320.007 23.9969L319.107 24.1969L316.507 25.0969C316.307 25.2969 313.307 30.3968 313.307 30.3968C313.307 30.8968 314.107 35.0969 314.307 36.4969C313.607 36.2969 309.807 35.3968 309.807 35.3968C308.807 35.3968 307.807 35.5968 307.207 36.3968C307.007 36.3968 304.407 35.7969 303.707 35.6969C304.707 31.2969 306.907 27.9969 309.207 25.0969C309.307 25.0969 310.707 24.6969 310.707 24.6969L311.507 24.3968C311.507 24.3968 313.507 23.1969 313.707 23.0969C313.707 23.0969 313.807 23.0969 314.007 23.0969L313.807 23.3968L316.707 25.0969L319.907 20.1969L318.807 19.5969C321.307 18.7969 323.407 18.3969 326.607 18.2969L326.907 18.0969ZM340.607 43.8968L340.007 43.0969C340.207 42.9969 340.407 42.8968 340.407 42.8968L339.107 42.3968C338.807 42.3968 336.607 43.4969 336.607 43.4969C334.107 44.7969 332.007 45.9971 328.607 45.2969C326.707 44.8968 324.807 43.8968 322.907 42.8968L323.307 42.6969L324.907 41.6969H325.507C325.707 41.7969 326.007 41.9969 326.007 41.9969C330.207 44.1969 339.207 41.8969 341.307 41.2969C341.307 41.4969 341.107 42.2969 341.107 42.2969H341.607C342.307 42.2969 342.407 42.7969 342.707 43.5969L342.907 44.1969C342.907 44.1969 342.707 44.1968 342.707 44.2969C342.707 44.2969 342.307 44.4969 341.907 44.6969C340.807 44.3969 340.707 44.0969 340.607 43.9969V43.8968ZM340.907 45.0969C340.707 45.0969 340.607 45.2969 340.407 45.2969C340.307 45.0968 340.107 44.6968 339.907 44.3968C340.107 44.6968 340.407 44.8969 340.807 45.0969M315.207 44.3968C315.607 44.1968 316.207 43.9969 316.207 43.9969C318.507 43.0969 320.607 42.3968 323.007 41.8968L322.107 42.4969L318.507 44.2969L315.707 45.6969V45.1969V45.0969C315.707 44.7969 315.407 44.4968 315.207 44.3968ZM311.307 44.9969L310.407 44.1969L307.507 41.7969L310.207 42.1969L309.707 42.6969V42.9969C310.407 44.2969 311.707 44.2969 312.707 44.2969L314.307 44.5969L314.607 45.0969C314.707 45.1969 314.607 45.9971 314.607 46.3971C314.307 46.5971 314.007 46.7971 313.607 46.8971L311.207 45.0969L311.307 44.9969ZM312.707 47.0971C312.407 47.0971 312.107 47.0971 311.907 47.0971C311.507 47.0971 311.007 46.3971 310.807 45.8971H311.107C311.107 45.7971 312.807 47.0971 312.807 47.0971H312.707ZM303.607 41.7969C303.607 41.7969 303.807 41.5969 304.007 41.5969C304.107 41.5969 304.307 41.3969 304.407 41.2969L305.907 41.4969L309.807 44.7969C309.807 44.7969 310.007 44.9969 310.307 45.1969L303.807 41.7969H303.607ZM314.507 43.7969L312.707 43.3968C311.707 43.3968 311.107 43.1969 310.707 42.6969C310.807 42.5969 311.007 42.3969 311.107 42.2969C311.407 42.2969 311.707 42.2969 312.007 42.1969L312.807 41.9969L313.007 41.7969C313.007 41.7969 313.007 41.7969 313.007 41.6969L317.107 40.9969L320.307 40.3968C320.507 40.3968 321.607 39.9969 321.607 39.9969L322.607 39.7969L322.407 39.3968H322.707L323.007 39.5969C323.707 39.8969 324.307 40.2968 324.807 40.8968H324.507H324.107C320.807 41.3968 318.407 42.2969 315.707 43.2969L314.307 43.7969H314.507ZM312.207 39.5969C311.507 39.4969 309.707 39.2969 309.707 39.2969V39.1969L310.307 38.6969L311.207 37.8968C311.507 37.8968 312.007 37.5969 311.907 36.9969C311.907 36.9969 311.907 36.7969 311.907 36.5969C312.207 36.5969 312.407 36.6969 312.407 36.6969L315.207 37.3968L315.807 37.5969C315.807 37.5969 317.807 37.9969 318.007 38.0969C318.407 38.2969 319.407 38.5969 319.407 38.5969H319.807L320.807 39.0969C319.507 39.0969 312.407 39.4969 312.407 39.4969L312.207 39.5969ZM301.507 36.1969C302.207 36.1969 303.407 36.4969 303.507 36.4969L307.507 37.3968C307.507 37.3968 309.007 37.8969 309.807 38.0969C309.807 38.0969 309.307 38.4969 309.107 38.6969C308.107 38.4969 301.907 37.4969 301.807 37.4969C301.807 37.2969 301.507 36.4969 301.507 36.4969V36.1969ZM308.307 36.5969C308.707 36.2969 309.307 36.1969 309.907 36.1969C309.907 36.1969 310.407 36.1968 310.907 36.3968L311.107 37.1969V37.4969H310.807L308.307 36.6969V36.5969ZM316.607 33.2969L318.207 35.9969L318.807 36.8968C318.507 37.0968 317.907 37.2968 317.807 37.3968L316.007 36.9969L315.607 36.7969C315.407 35.6968 314.507 30.5969 314.507 30.5969C314.507 30.5969 317.507 25.7969 317.507 25.6969L319.707 24.9969C319.707 24.9969 319.807 24.9969 319.907 24.9969C319.807 25.7969 319.507 26.8969 318.607 27.1969H318.207H318.007L317.907 27.4969L317.007 29.1969C316.207 30.3969 315.207 31.8969 316.707 33.2969H316.607ZM321.307 34.6969C321.307 33.8969 321.607 32.9969 322.607 32.7969C323.807 32.5968 324.607 32.7969 325.107 33.1969C326.207 34.2969 325.907 35.1968 325.507 36.3968L324.407 36.8968C322.607 37.6968 321.107 38.2969 319.507 37.0969L319.207 36.0969C319.207 35.3969 319.607 35.3968 320.407 35.3968H321.407V34.9969L321.307 34.6969ZM325.207 37.2969L325.007 38.1969C324.807 38.3969 324.507 38.4969 324.007 38.4969L323.407 38.6969V38.0969C323.807 37.8969 324.307 37.6969 324.807 37.4969L325.307 37.2969H325.207ZM320.907 38.2969C321.507 38.2969 322.007 38.2969 322.607 38.2969V38.8968H322.407C322.107 38.7968 321.507 38.4969 321.007 38.2969H320.907ZM319.307 37.6969C319.307 37.6969 319.307 37.7968 319.307 37.8968H318.907C318.907 37.7968 319.207 37.5969 319.207 37.5969C319.207 37.5969 319.207 37.5969 319.307 37.5969M318.007 39.9969C317.407 40.0969 316.907 40.1969 316.907 40.1969L313.107 40.8968C313.107 40.6968 313.107 40.4969 312.907 40.2969L317.907 39.9969H318.007ZM342.407 41.7969C342.807 41.5968 343.207 41.3969 343.507 41.1969C343.707 41.6969 344.207 42.7969 344.407 43.2969C344.207 43.2969 343.907 43.4969 343.607 43.6969L343.407 43.2969C343.207 42.6968 342.907 42.0969 342.307 41.7969M306.907 26.6969C306.907 26.6969 306.207 26.4968 305.807 26.3968C306.007 26.0968 306.507 25.3968 306.807 24.8968L308.607 25.0969C308.207 25.5969 307.707 26.1969 307.307 26.6969H306.907ZM315.607 23.1969L317.007 23.4969C316.907 23.6969 316.807 23.7968 316.707 23.8968C316.507 23.7968 316.007 23.4969 315.507 23.1969H315.607ZM317.207 19.2969C317.607 19.4969 318.607 20.0968 319.107 20.3968C319.107 20.4968 318.807 20.8969 318.607 21.1969C318.407 20.8969 318.407 20.4969 318.007 20.1969C317.607 19.8969 317.207 19.7969 316.807 19.7969C316.907 19.5968 317.007 19.4968 317.107 19.3968M310.107 17.7969V17.4969C310.207 17.4969 315.507 10.9969 315.507 10.9969C315.507 10.9969 315.707 10.4969 315.807 10.0969L316.107 10.7969L316.807 10.4969L316.507 9.89678L317.307 8.89688C317.407 9.09688 317.507 9.49688 317.507 9.99688C317.507 10.4969 317.507 10.5968 317.407 10.8968L316.707 11.9969L315.407 12.4969C315.207 12.6969 312.207 17.8968 312.207 17.8968L310.007 21.3968C309.607 21.5968 309.107 21.5968 308.707 21.3968H308.807C308.907 21.1968 309.107 20.6969 309.307 20.4969C309.607 20.4969 310.507 20.4969 310.507 20.4969L310.007 17.9969L310.107 17.7969ZM308.507 19.4969C309.007 19.4969 309.307 19.0969 309.307 18.6969C309.307 18.2969 309.107 18.0969 308.907 17.9969C309.007 17.9969 309.207 17.9969 309.307 17.9969C309.307 18.3969 309.507 19.0969 309.607 19.4969C309.307 19.4969 308.807 19.4969 308.807 19.4969C308.807 19.4969 308.407 20.4969 308.307 20.5969L307.607 20.8968C306.707 20.4968 305.907 20.1969 305.007 20.1969C305.007 20.0969 305.307 19.2969 305.307 19.2969C306.107 18.3969 307.007 17.9968 308.007 17.8968C307.807 17.9968 307.707 18.1968 307.607 18.3968C307.607 19.0968 307.907 19.3968 308.407 19.3968L308.507 19.4969ZM309.007 13.1969C309.307 13.4969 309.607 13.9968 309.707 14.2969C309.707 14.2969 309.507 14.8969 309.407 15.1969L309.107 14.7969L308.907 13.5969C308.907 13.3969 308.907 13.1969 309.007 13.0969V13.1969ZM308.107 13.8968V14.5969C307.407 14.5969 306.707 14.2968 306.107 13.3968C306.107 13.1968 305.907 12.8969 305.907 12.7969C306.707 12.8969 307.607 13.2968 308.107 13.8968ZM308.107 15.3968C307.807 15.3968 307.507 15.3968 307.107 15.3968C307.107 15.3968 307.107 15.1969 307.107 15.0969C307.407 15.1969 307.807 15.2969 308.107 15.2969M305.507 13.9969C305.707 14.1969 306.307 14.7968 306.307 14.8968C306.307 14.8968 306.307 14.8969 306.307 15.0969C306.307 15.2969 306.307 15.3969 306.307 15.4969C306.207 15.4969 306.107 15.4969 306.007 15.4969C305.707 15.1969 305.407 15.1969 305.207 15.1969L305.007 14.7969L304.707 14.3968C304.707 14.1968 304.707 13.9968 304.707 13.8968C304.907 13.8968 305.307 13.8969 305.607 13.9969H305.507ZM304.107 14.9969L304.307 15.2969L304.707 16.1969H304.507H304.107C303.907 16.1969 303.907 16.1969 303.707 16.0969C303.607 16.0969 303.507 15.9968 303.307 15.8968L302.907 15.5969C302.807 15.2969 302.707 14.9969 302.607 14.7969C303.007 14.7969 303.607 14.8969 304.107 14.9969ZM302.607 16.2969L303.107 16.5969C303.507 16.7969 303.707 16.8969 303.807 17.1969C303.707 17.1969 303.107 17.1969 302.907 17.1969C302.607 16.9969 302.207 16.7969 302.007 16.6969C302.007 16.4969 301.807 16.3969 301.707 16.2969C301.907 16.2969 302.307 16.2969 302.607 16.2969ZM303.007 18.5969C303.007 18.5969 303.007 18.5969 303.007 18.6969H302.907C302.907 18.6969 303.007 18.5969 303.107 18.4969L303.007 18.5969ZM301.507 17.3968C301.807 17.4968 302.407 17.8969 302.507 17.9969C302.307 17.9969 302.007 18.1969 302.007 18.1969C302.007 18.1969 301.807 18.1969 301.707 18.1969L300.607 17.6969C300.607 17.6969 300.607 17.6969 300.607 17.5969C300.907 17.5969 301.307 17.4968 301.607 17.3968H301.507ZM302.707 19.0969C302.407 19.5969 302.107 19.9968 301.707 20.2969L301.307 19.6969L302.807 19.0969H302.707ZM300.207 18.3968C300.407 18.3968 300.807 18.6968 301.207 18.8968C301.007 18.8968 300.707 19.0969 300.707 19.0969L299.607 18.9969C299.507 18.7969 299.307 18.6969 299.207 18.6969C299.207 18.6969 299.707 18.5969 300.207 18.4969V18.3968ZM298.907 19.8968L299.407 19.6969C299.607 19.6969 300.207 19.7968 300.407 19.8968C300.407 19.9968 300.607 20.1968 300.707 20.3968C300.007 20.6968 299.107 20.3969 298.407 20.2969L299.007 19.9969L298.907 19.8968ZM300.007 21.2969C299.607 21.4969 299.207 21.6968 298.807 21.7969V21.0969C299.107 21.0969 299.507 21.1969 300.007 21.1969V21.2969ZM295.607 23.8968C295.707 23.7968 295.907 23.5968 296.107 23.3968C296.107 23.3968 296.307 23.3968 296.407 23.3968C296.207 23.5968 295.907 23.6968 295.607 23.7969V23.8968ZM297.007 22.6969C297.007 22.6969 296.407 22.6969 296.107 22.5969C295.807 22.2969 295.407 21.8969 295.207 21.5969C295.207 21.5969 295.207 21.5969 295.307 21.5969C295.807 22.1969 296.407 22.5968 297.007 22.7969V22.6969ZM296.207 21.1969C296.407 21.1969 296.707 21.1969 296.707 21.1969H297.207C297.507 21.1969 297.707 21.1969 297.907 21.1969V21.9969C297.907 21.9969 297.907 21.9969 297.807 21.9969C297.207 21.9969 296.707 21.5969 296.207 21.1969ZM301.707 22.2969H301.007L298.907 22.6969C298.607 22.9969 298.407 23.3968 298.407 23.7969C298.407 24.1969 298.607 24.4968 298.807 24.7969L298.107 24.6969C298.107 24.4969 298.007 23.9969 298.007 23.9969L297.807 23.3968L298.107 22.9969C299.007 22.8969 300.107 22.2969 301.207 21.6969L302.307 21.0969C303.307 20.2969 303.807 19.3969 304.207 18.4969L305.107 16.8968C305.607 16.8968 306.007 16.6969 306.207 16.2969C306.207 16.2969 308.607 16.1969 309.407 16.0969V16.4969L309.507 17.1969C309.507 17.1969 309.507 17.1968 309.507 17.2969C307.807 16.8968 306.107 17.4968 304.907 18.8968L304.507 19.9969V20.3968C303.807 20.4968 303.207 20.6969 302.507 21.0969C302.207 21.3969 301.907 21.7968 301.907 22.3968L301.707 22.2969ZM302.607 22.6969V22.1969C302.607 21.9969 302.707 21.7969 302.907 21.5969C304.707 20.5969 305.807 20.8969 307.607 21.5969H307.807C308.407 21.8969 309.507 22.4968 310.607 21.8968L313.407 21.3968C314.107 20.9968 314.807 20.5968 315.507 20.3968H315.407C315.407 20.4968 316.507 20.1969 316.507 20.1969C316.807 20.1969 317.307 20.1969 317.707 20.5969C318.107 20.8969 318.307 21.2969 318.307 21.5969C318.107 21.9969 317.907 22.2969 317.707 22.5969L315.907 22.2969H315.007L314.007 22.0969C313.707 22.0969 311.607 23.3969 311.607 23.4969L310.807 23.7969L309.307 24.2969L306.707 23.9969H306.307C306.307 23.8969 305.007 23.5969 305.007 23.5969V24.3968C305.007 24.3968 305.907 24.5969 306.007 24.5969C305.607 25.1969 304.607 26.7969 304.607 26.7969H305.007L306.907 27.3968C305.307 29.6968 304.007 32.2968 303.307 35.3968L301.607 35.1969C302.507 31.3969 302.607 27.6969 302.607 22.5969V22.6969ZM297.107 35.1969L298.607 35.5969L298.407 35.7969L297.907 36.2969C297.507 36.2969 297.207 36.0969 297.007 35.4969V35.2969L297.107 35.1969ZM294.607 36.6969L294.807 35.9969C294.807 35.4969 295.007 35.0968 295.507 34.8968C295.507 34.8968 295.807 34.8969 296.107 35.0969L296.307 35.6969C296.407 36.0969 296.807 37.0969 298.007 37.0969L299.107 36.2969L299.607 35.7969C299.907 35.7969 300.407 35.9969 300.707 35.9969V36.3968L301.507 37.9969C301.707 38.0969 308.407 39.1968 309.007 39.2969C309.007 39.4969 309.207 39.6968 309.307 39.7969L309.607 40.0969L312.107 40.3968C312.307 40.5968 312.407 40.8969 312.407 41.0969C312.407 41.2969 312.407 41.2968 312.407 41.3968C312.107 41.3968 311.807 41.4969 311.807 41.4969C311.507 41.5969 311.407 41.5969 311.307 41.4969C311.307 41.4969 305.407 40.5969 304.607 40.4969L297.707 39.0969L294.507 38.4969C294.707 37.9969 294.807 37.3969 294.707 36.6969H294.607ZM298.907 40.3968C298.907 40.3968 298.407 40.0969 298.207 40.0969C299.607 40.3969 302.607 40.9969 303.507 41.1969C303.207 41.1969 303.007 41.4968 302.807 41.7969L301.707 42.3968C301.707 42.3968 301.307 42.3968 300.607 42.3968L299.907 41.5969L298.907 40.3968ZM299.707 42.4969C298.507 42.5969 297.107 42.6968 296.407 42.7969L296.907 41.7969L297.507 41.2969L298.107 40.7969L298.507 41.0969L299.207 41.9969L299.707 42.4969ZM293.407 36.8968H293.807C293.807 37.4968 293.807 37.9968 293.407 38.3968C293.307 38.3968 293.207 38.3968 293.107 38.3968C292.907 38.3968 292.807 38.0968 292.707 37.8968C292.707 37.8968 292.507 37.1969 292.407 36.6969C292.807 36.6969 293.307 36.8968 293.307 36.8968M291.107 38.5969C290.407 38.0969 290.107 37.7968 290.307 37.3968C290.507 36.8968 291.207 36.3969 291.507 36.4969C291.507 36.4969 291.507 36.4969 291.707 36.4969L292.107 38.0969C292.207 38.5969 292.507 38.9969 293.007 39.1969C293.407 39.2969 293.807 39.1969 294.107 39.0969C294.107 39.1969 297.607 39.8968 297.607 39.8968C297.607 39.8968 297.907 39.8969 298.307 39.9969L297.107 40.6969L296.607 41.0969L294.307 40.8968H292.307C292.307 40.6968 292.307 40.5969 292.307 40.5969V40.3968C292.407 40.3968 292.307 40.0969 292.307 40.0969L291.007 38.5969H291.107ZM288.107 40.4969C288.507 40.2969 289.107 40.4968 290.007 40.8968L291.507 41.4969C291.507 41.4969 295.307 41.7969 295.907 41.7969C295.707 42.0969 295.507 42.5968 295.407 42.7969L289.407 43.2969L288.807 42.4969C288.207 41.5969 287.807 41.0968 288.007 40.3968L288.107 40.4969ZM289.307 46.8971C289.307 46.8971 288.207 47.4971 287.807 47.7971C287.807 47.7971 287.607 47.6971 287.607 47.5971C287.607 47.5971 288.007 46.8971 288.307 46.4971L289.807 46.6971C289.607 46.7971 289.407 46.8971 289.407 46.8971H289.307ZM304.107 46.3971L301.307 46.6971C301.507 46.6971 294.007 46.0971 294.007 46.0971L291.407 45.7971C291.407 45.7971 291.207 45.7971 291.007 45.9971H290.207C290.207 45.8971 288.907 45.6969 288.907 45.6969H288.307C287.207 45.3969 286.207 45.9971 285.407 46.4971C284.607 46.9971 284.207 47.0971 283.807 46.9971C284.407 46.3971 286.507 44.1968 286.807 43.8968C287.007 43.8968 287.407 43.9969 287.407 43.9969L289.507 44.1969H289.707H290.407L296.407 43.6969L300.707 43.2969H302.207C302.307 43.0968 303.107 42.6969 303.407 42.4969C303.707 42.6969 307.307 44.4969 309.107 45.4969C307.807 45.6969 305.307 46.1971 304.307 46.3971H304.107ZM304.207 47.1971L309.707 46.1971C309.707 46.1971 309.907 46.1971 310.007 46.1971C310.307 47.0971 311.007 47.9971 311.807 47.9971C312.707 47.9971 314.407 47.7971 315.407 46.8971C315.307 46.8971 318.807 45.1969 318.807 45.1969C318.807 45.1969 321.807 43.6969 322.107 43.4969C324.207 44.5969 326.407 45.6969 328.507 46.1971C332.207 46.8971 334.607 45.6968 337.107 44.3968C337.107 44.3968 338.107 43.8969 338.707 43.5969C338.707 43.6969 339.707 45.5969 340.107 46.2971C338.307 48.0971 337.107 50.2971 336.407 51.9971C336.107 52.6971 336.107 53.3971 336.407 53.9971L328.707 54.2971H322.907L323.207 54.7971L323.607 55.4971C323.307 55.4971 323.107 55.4971 323.107 55.4971C321.607 55.4971 320.107 55.4971 318.707 56.1971H318.507V56.5971C318.507 57.5971 319.207 58.0971 319.807 58.5971L320.707 59.5971C320.707 59.8971 320.807 60.1971 320.807 60.4971C320.807 60.7971 320.807 60.9971 320.607 61.2971C319.607 61.2971 318.807 61.4971 318.707 61.4971C318.407 61.2971 317.907 60.8971 317.907 60.8971C317.107 60.5971 316.107 60.8971 315.507 61.0971C315.507 61.0971 315.307 61.2971 315.107 61.3971C309.707 58.4971 305.407 52.8971 304.207 47.1971ZM338.207 54.5971C338.907 54.5971 339.807 54.3971 339.807 54.3971C339.807 54.3971 341.407 54.1971 342.507 53.9971C342.107 54.2971 341.607 54.6971 341.007 55.0971C338.407 55.0971 335.707 56.9971 333.007 58.8971L331.007 60.2971L324.107 60.8971C324.107 60.8971 322.807 60.9971 321.507 61.1971C321.507 60.8971 321.607 60.6971 321.607 60.4971C321.607 60.0971 321.607 59.6971 321.407 59.2971L320.207 57.9971C319.807 57.6971 319.507 57.2971 319.307 56.8971C319.807 56.6971 320.407 56.4971 321.007 56.4971L321.207 56.7971C321.807 57.7971 322.307 58.5971 322.907 58.8971C323.507 58.8971 324.107 58.8971 324.607 58.7971L327.207 58.5971C331.107 57.8971 334.407 56.8971 338.307 54.9971V54.7971L338.207 54.5971ZM321.907 56.2971C322.307 56.2971 322.607 56.2971 323.007 56.2971H323.907C324.407 56.9971 324.507 57.4971 324.307 57.8971C323.907 57.8971 323.407 57.8971 323.007 57.9971C322.807 57.8971 322.207 56.6971 321.907 56.2971ZM325.107 57.7971C325.207 57.0971 324.907 56.4971 324.507 55.7971C324.507 55.3971 324.307 55.1971 324.207 54.9971C325.207 54.9971 328.707 54.9971 328.707 54.9971L336.507 54.6971C332.707 56.3971 329.307 57.2971 325.207 57.7971H325.107ZM317.707 64.6971L315.607 64.4971C315.207 64.1971 315.007 63.8971 315.007 63.3971C315.007 62.8971 315.007 63.0971 315.007 62.9971C315.007 62.9971 315.207 62.3971 315.307 62.0971L315.807 61.7971C316.207 61.5971 316.907 61.4971 317.507 61.5971L318.207 62.0971H318.507C318.507 62.1971 320.007 62.0971 320.007 62.0971H321.007L324.007 61.6971L330.307 61.0971C329.607 62.1971 328.807 62.1971 327.807 62.0971L325.407 62.4971C325.007 62.4971 324.607 62.5971 324.207 62.7971L323.507 62.5971C323.407 62.5971 319.607 62.5971 319.607 62.5971H319.407L319.207 62.8971L318.307 63.9971L317.707 64.4971V64.6971ZM318.807 64.7971C318.807 64.7971 319.407 63.8971 319.807 63.4971C320.007 63.4971 322.107 63.4971 323.007 63.4971C322.307 63.8971 321.507 64.3971 320.807 65.0971L318.807 64.8971V64.7971ZM332.607 67.6971L332.207 67.9971L330.707 69.1971C329.207 70.3971 327.707 71.5971 326.207 71.9971C323.307 72.1971 320.507 73.6971 318.507 75.8971C318.207 75.8971 315.507 75.5971 315.007 75.4971C316.207 74.7971 318.807 73.3971 318.807 73.3971L321.607 71.9971L323.807 70.2971L326.207 68.2971L326.607 68.0971C329.707 66.0971 332.807 64.0971 335.807 62.5971C336.007 63.5971 336.507 64.4971 337.207 65.1971L332.607 67.7971V67.6971ZM340.207 61.3971V60.9971L340.507 61.2971L341.207 60.8971L343.507 59.7971L346.007 58.5971C346.307 58.5971 346.607 58.4971 346.907 58.3971L346.307 59.0971L341.707 61.6971C341.507 61.8971 340.907 63.9971 340.907 63.9971H341.107L340.907 64.2971C340.907 64.2971 340.407 64.7971 339.707 65.4971L338.307 64.8971C337.707 64.2971 336.707 63.1971 336.707 61.9971C336.807 61.1971 337.107 60.1971 337.807 59.7971C337.807 59.7971 338.007 59.7971 338.107 59.7971L338.407 60.0971C339.007 60.6971 339.607 61.3971 340.507 61.4971L340.207 61.3971ZM339.007 59.6971C339.307 59.6971 340.207 59.4971 340.907 59.3971C340.807 59.6971 340.607 60.0971 340.607 60.2971L340.207 60.4971C339.807 60.3971 339.407 59.9971 339.007 59.5971M341.607 59.7971C341.607 59.5971 341.707 59.3971 341.807 59.2971C341.907 59.2971 342.007 59.2971 342.007 59.2971C342.407 59.2971 342.807 59.1971 343.207 59.0971L341.707 59.7971H341.607ZM344.707 60.6971C344.707 60.6971 344.707 60.7971 344.607 60.8971L342.107 62.9971L341.807 63.1971C341.907 62.6971 342.107 62.0971 342.107 62.0971C342.107 62.0971 343.507 61.3971 344.707 60.6971ZM333.507 71.5971C333.507 71.4971 333.307 71.3971 333.307 71.1971C333.307 70.9971 333.307 70.7971 333.307 70.5971V69.1971C333.307 69.1971 333.007 68.6971 332.907 68.3971C332.907 68.3971 337.407 65.7971 337.807 65.6971C338.007 65.6971 338.507 65.9971 338.807 66.1971C337.807 67.1971 336.607 68.3971 336.007 68.9971C335.107 69.3971 334.407 70.2971 334.107 71.4971C333.807 71.5971 333.607 71.6971 333.407 71.7971L333.507 71.5971ZM335.507 70.8971C335.507 70.8971 335.407 70.8971 335.207 70.9971C335.507 70.3971 335.907 69.8971 336.407 69.6971H336.507C336.807 69.9971 337.007 70.0971 337.107 70.2971L335.507 70.9971V70.8971ZM338.807 71.0971V71.6971C338.807 71.6971 339.007 72.9971 339.007 73.4971C338.707 73.6971 338.507 73.6971 338.307 73.6971C338.007 73.1971 338.007 72.1971 337.907 71.1971V70.4971V70.3971C337.907 70.3971 337.907 70.3971 337.907 70.2971V69.8971C337.707 69.4971 337.407 69.2971 337.107 69.0971C337.707 68.4971 341.407 64.7971 341.407 64.7971L342.807 63.4971L343.907 62.5971C342.907 64.0971 339.807 68.9971 339.407 69.5971C338.707 69.9971 338.907 70.6971 339.007 71.0971H338.807ZM339.807 72.9971V71.7971C339.807 71.8971 339.607 70.8971 339.607 70.8971C339.607 70.5971 339.607 70.4971 339.607 70.3971C340.007 70.6971 340.107 71.2971 340.207 72.1971V72.5971L339.807 72.8971V72.9971ZM344.107 68.2971L343.807 68.9971C343.107 69.5971 343.007 70.3971 343.307 71.3971L343.707 72.0971C344.007 72.6971 344.207 72.9971 343.907 73.4971C343.907 73.7971 343.707 73.8971 343.507 73.9971C343.107 74.0971 342.507 73.9971 342.307 73.6971C342.307 73.6971 341.407 72.8971 341.107 72.5971V72.0971C340.907 71.1971 340.707 70.3971 340.007 69.8971C340.307 69.3971 344.807 62.4971 344.807 62.4971C345.107 61.3971 345.707 60.6971 346.407 59.9971L347.307 59.0971L348.707 57.5971C348.707 57.5971 348.707 57.7971 348.707 57.8971C346.607 61.8971 345.207 65.0971 344.007 68.2971H344.107ZM346.907 74.8971C346.907 74.8971 346.107 75.3971 345.407 75.7971C345.607 75.2971 345.707 74.8971 346.007 74.3971C346.507 73.6971 347.007 72.8971 347.007 71.9971C347.007 71.9971 347.007 71.6971 347.007 71.4971L348.207 71.6971V72.5971C348.207 72.8971 348.207 73.0971 348.207 73.3971C348.207 74.0971 348.007 74.5971 346.907 74.9971V74.8971ZM350.007 66.4971L349.707 67.8971C349.707 67.9971 349.907 68.9971 349.907 68.9971C349.907 69.3971 350.007 69.6971 350.007 69.8971C350.007 70.0971 350.007 70.3971 349.707 70.5971L348.407 70.7971L346.607 70.4971C346.107 69.6971 345.407 69.1971 344.607 68.8971V68.5971C345.207 68.4971 345.407 68.0971 345.607 67.6971L346.007 67.1971C346.107 67.0971 348.007 64.7971 348.007 64.7971C348.907 63.7971 349.807 62.7971 350.407 61.6971C350.407 61.8971 350.407 62.1971 350.407 62.3971C350.407 63.6971 350.107 65.0971 349.907 66.3971L350.007 66.4971ZM350.107 59.9971C350.107 60.0971 350.107 60.2971 350.207 60.3971C349.607 61.7971 348.507 63.0971 347.407 64.2971C347.407 64.2971 345.807 66.2971 345.607 66.5971C346.607 63.9971 347.807 61.3971 349.507 58.1971L349.007 57.9971H349.507V57.6971V57.2971L350.507 56.7971H350.907C350.607 57.9971 350.107 60.1971 350.107 60.1971V59.9971ZM352.107 54.5971L351.207 55.4971L350.307 55.8971L349.707 56.2971L349.107 56.5971L348.207 56.9971C346.207 57.8971 344.107 58.1971 341.807 58.3971L338.807 58.8971H338.307H337.507C336.207 59.3971 335.807 60.6971 335.707 61.5971C332.607 63.0971 329.307 65.1971 326.107 67.2971L325.807 67.4971L322.607 67.8971C319.807 68.0971 316.207 68.2971 314.107 71.1971C313.607 71.8971 313.007 72.2971 312.407 72.4971C312.607 71.0971 313.607 69.2971 315.007 68.5971C316.107 67.6971 317.107 67.4971 318.307 67.2971L320.807 66.5971L321.007 66.3971C321.107 66.3971 321.407 66.0971 321.407 65.7971C322.907 64.4971 324.607 63.5971 325.807 63.4971C325.907 63.4971 328.007 63.1971 328.007 63.1971C329.207 63.1971 330.607 63.2971 331.507 60.9971C331.307 61.1971 333.507 59.6971 333.507 59.6971C336.107 57.8971 338.707 55.9971 341.307 55.9971C342.707 55.1971 343.507 54.5971 344.007 53.8971C344.307 53.7971 344.707 53.5971 344.707 53.5971L344.307 52.8971L343.507 53.2971L339.707 53.7971C339.707 53.7971 337.707 54.0971 337.607 54.0971L337.307 53.7971C337.207 53.5971 337.107 53.3971 337.107 53.0971C337.107 52.7971 337.107 52.5971 337.207 52.3971C338.107 50.1971 339.707 47.1971 342.607 45.3968L342.907 47.6971C342.507 47.9971 342.107 47.9971 341.507 47.9971H340.307V48.2971L339.307 52.0971L339.107 52.3971L338.907 53.0971L339.607 52.6971H339.707L339.907 52.4971L341.507 51.5971C343.707 50.2971 345.907 48.8971 347.807 50.0971H348.007C348.007 50.1971 348.007 50.1971 348.007 50.1971L348.207 50.3971C348.407 50.3971 348.807 50.5971 348.907 50.5971L350.107 51.2971C350.607 52.3971 351.607 53.4971 352.907 53.7971L352.107 54.6971V54.5971ZM355.807 50.6971C355.607 51.5971 354.807 52.7971 353.607 52.8971C352.407 52.8971 351.407 51.7971 351.007 50.7971V50.5971C351.207 49.9971 351.507 49.1971 352.007 48.8971L352.307 48.6971L351.207 46.4971C351.207 46.2971 351.307 45.7971 351.407 45.5969C352.807 45.1969 353.907 45.0969 355.407 45.7971L356.507 48.2971C356.207 48.9971 356.007 49.6971 356.007 50.4971M360.807 40.5969C359.007 40.5969 358.707 42.0969 358.307 43.5969L357.907 45.0969L357.107 46.8971C357.107 46.9971 357.007 47.1971 356.907 47.3971L356.207 45.6969L357.407 43.7969L357.807 43.1969L358.407 41.9969C358.907 40.9969 359.507 39.9969 359.307 39.0969C359.407 38.7969 359.807 37.9969 359.807 37.9969C359.807 37.9969 360.007 37.9969 360.107 37.7969V37.8968L359.907 38.5969H360.307L360.407 39.0969L361.807 38.5969V38.8968C361.807 39.5968 361.707 40.2969 360.907 40.7969L360.807 40.5969ZM362.107 37.8968V37.4969C362.007 37.4969 360.707 37.9969 360.707 37.9969V37.7969C360.707 37.5968 360.507 36.8968 360.507 36.8968L360.307 36.2969L358.907 37.2969C358.907 37.2969 358.807 37.4968 358.607 37.7969C358.407 37.0969 358.107 36.1969 358.007 35.7969C358.607 35.5968 362.007 34.5968 362.607 34.3968C362.807 34.8968 363.207 36.3968 363.407 36.8968C362.907 36.9968 361.907 37.3968 361.907 37.3968V37.7969H362.007L362.107 37.8968ZM309.607 96.4971C309.807 96.2971 310.007 96.0971 310.207 95.9971C310.007 96.1971 309.807 96.2971 309.607 96.4971ZM273.007 53.1971H272.807C272.807 53.2971 272.907 53.1971 273.007 53.1971ZM290.607 79.3971V79.2971C290.607 79.2971 290.607 79.2971 290.607 79.3971ZM271.907 36.5969C271.907 36.5969 271.807 36.5969 271.707 36.5969C271.707 36.5969 271.707 36.6969 271.907 36.5969ZM366.807 72.0971C366.907 71.8971 367.007 71.5971 367.107 71.3971C366.907 71.6971 366.807 71.8971 366.607 72.1971H366.707L366.807 72.0971Z" fill="white"/>
<path d="M94.5 12.9V14.5H85.5V13.3L90.4 8.3C91.6 7 92.6 5.9 92.6 4.4C92.6 2.9 91.5 1.6 89.9 1.6C88.3 1.6 87.5 2.3 86.8 3.6L85.5 2.7C86.3 1.1 87.7 0 90 0C92.3 0 94.4 1.6 94.4 4.2C94.4 6.8 93.7 7.2 91.9 9L88.2 12.8H94.6L94.5 12.9Z" fill="white"/>
<path d="M103.603 6.8C105.203 7.3 106.303 8.69999 106.303 10.6C106.303 12.5 104.103 14.7 101.203 14.7C98.303 14.7 96.203 13 96.203 10.6C96.203 8.19999 97.403 7.3 98.903 6.8C97.903 6.4 96.903 5.3 96.903 3.7C96.903 1.4 98.803 0 101.203 0C103.603 0 105.603 1.5 105.603 3.7C105.603 5.9 104.603 6.4 103.603 6.7V6.8ZM104.503 10.4C104.503 8.8 103.203 7.6 101.203 7.6C99.203 7.6 98.003 8.7 98.003 10.4C98.003 12.1 99.403 13.1 101.203 13.1C103.003 13.1 104.503 11.9 104.503 10.4ZM101.303 1.6C99.703 1.6 98.703 2.6 98.703 3.8C98.703 5 99.803 6 101.303 6C102.803 6 104.003 5.2 104.003 3.8C104.003 2.4 102.903 1.6 101.303 1.6Z" fill="white"/>
<path d="M92.8 77.1982C88.6 77.1982 85 74.5982 85 69.5982C85 64.5982 87.8 61.8982 92.8 61.8982C97.8 61.8982 97.2 62.7982 98.9 64.7982L96.3 66.9982C95.6 66.0982 94.3 65.2982 92.8 65.2982C90.6 65.2982 88.7 66.8982 88.7 69.5982C88.7 72.2982 90.3 73.7982 92.8 73.7982C95.3 73.7982 95.5 73.0982 96.3 72.0982L98.9 74.2982C97.6 75.8982 95.5 77.0982 92.8 77.0982V77.1982Z" fill="white"/>
<path d="M111.502 1.99688H107.102V0.296875H117.902V1.99688H113.402V14.4969H111.602V1.99688H111.502Z" fill="white"/>
<path d="M120.297 0.398438H122.097V6.69844H129.897V0.398438H131.697V14.5984H129.897V8.39844H122.097V14.5984H120.297V0.398438Z" fill="white"/>
<path d="M85.399 29.9031V21.2031H88.899V29.6031C88.899 31.4031 89.7991 33.0031 91.4991 33.0031C93.1991 33.0031 94.199 31.8031 94.199 29.6031V21.2031H97.699V29.9031C97.699 33.8031 95.4991 36.3031 91.4991 36.3031C87.4991 36.3031 85.399 34.0031 85.399 29.9031Z" fill="white"/>
<path d="M112.802 21.2031V36.1031H109.202L103.602 27.2031V36.1031H100.102V21.2031H103.602L109.302 30.3031V21.2031H112.802Z" fill="white"/>
<path d="M115.399 21.2031H118.899V36.1031H115.399V21.2031Z" fill="white"/>
<path d="M134.397 21.2031L128.897 36.1031H125.797L120.297 21.2031H124.097L127.297 31.1031L130.497 21.2031H134.297H134.397Z" fill="white"/>
<path d="M135.695 21.2016H145.395V24.3016H139.095V27.1016H144.095V30.2016H139.095V32.9016H145.795V36.0016H135.695V21.1016V21.2016Z" fill="white"/>
<path d="M155.499 36.1031L152.499 31.3031H151.299V36.1031H147.899V21.2031H153.699C157.399 21.2031 158.999 23.4031 158.999 26.3031C158.999 29.2031 157.999 30.0031 156.199 30.8031L159.699 36.1031H155.599H155.499ZM151.199 28.2031H152.799C154.299 28.2031 155.199 27.5031 155.199 26.2031C155.199 24.9031 154.399 24.2031 152.799 24.2031H151.099V28.1031L151.199 28.2031Z" fill="white"/>
<path d="M160.195 33.9L162.295 31.3C163.395 32.5 164.795 33.1 165.795 33.1C166.795 33.1 167.495 32.5 167.495 31.9C167.495 31.3 166.995 30.7 165.295 30.2C162.995 29.4 160.795 28.4 160.795 25.4C160.795 22.4 162.995 21 165.695 21C167.595 21 169.395 21.7 170.895 22.9L168.895 25.5C167.595 24.5 166.695 24.1 165.795 24.1C164.895 24.1 164.495 24.5 164.395 25.3C164.395 26 164.895 26.3 166.595 26.9C169.195 27.9 171.195 28.6 171.195 31.5C171.195 34.4 168.195 36.3 165.795 36.3C163.395 36.3 161.895 35.5 160.295 33.9H160.195Z" fill="white"/>
<path d="M181.199 33.4031H175.999L175.099 36.1031H171.399L176.799 21.2031H180.199L185.699 36.1031H181.999L181.099 33.4031H181.199ZM180.299 30.5031L178.699 25.5031L177.099 30.5031H180.399H180.299Z" fill="white"/>
<path d="M187.102 21.2016H190.602V32.9016H196.802V36.0016H187.102V21.1016V21.2016Z" fill="white"/>
<path d="M85.399 41.6H90.9991C94.6991 41.6 96.2991 43.8 96.2991 46.7001C96.2991 49.6001 94.099 51.6001 90.699 51.6001H88.7991V56.4001H85.399V41.5V41.6ZM90.2991 48.6001C91.7991 48.6001 92.699 47.9001 92.699 46.6001C92.699 45.3 91.899 44.6 90.399 44.6H88.899V48.5001H90.399L90.2991 48.6001Z" fill="white"/>
<path d="M97.5 49.1001C97.5 44.6 100.6 41.5 105.2 41.5C109.8 41.5 112.8 44.6 112.8 49.1001C112.8 53.6001 109.6 56.7001 105.2 56.7001C100.8 56.7001 97.5 53.5001 97.5 49.1001ZM109.1 49.1001C109.1 46.6001 107.4 44.7 105.1 44.7C102.8 44.7 101.1 46.6001 101.1 49.1001C101.1 51.6001 102.7 53.5001 105.1 53.5001C107.5 53.5001 109.1 51.6001 109.1 49.1001Z" fill="white"/>
<path d="M113.797 54.4001L115.897 51.8001C116.997 53.0001 118.397 53.6001 119.397 53.6001C120.397 53.6001 121.097 53.0001 121.097 52.4001C121.097 51.8001 120.597 51.2001 118.897 50.7001C116.597 49.9001 114.397 48.9001 114.397 45.9001C114.397 42.9 116.597 41.5 119.297 41.5C121.197 41.5 122.997 42.2 124.497 43.4L122.497 46.0001C121.197 45 120.297 44.6 119.397 44.6C118.497 44.6 118.097 45 117.997 45.8001C117.997 46.5001 118.497 46.8001 120.197 47.4001C122.797 48.4001 124.797 49.1001 124.797 52.0001C124.797 54.9001 121.797 56.8001 119.397 56.8001C116.997 56.8001 115.497 56.0001 113.897 54.4001H113.797Z" fill="white"/>
<path d="M129.4 44.8031H125.5V41.7031H136.8V44.8031H132.9V56.5031H129.4V44.8031Z" fill="white"/>
<path d="M145.3 53.9031H140.1L139.2 56.6031H135.5L140.9 41.7031H144.3L149.8 56.6031H146.1L145.2 53.9031H145.3ZM144.3 50.9031L142.7 45.9031L141.1 50.9031H144.4H144.3Z" fill="white"/>
<path d="M151.102 41.7016H154.602V53.4012H160.802V56.5012H151.102V41.6016V41.7016Z" fill="white"/>
<path d="M99.5 69.6C99.5 65.1 102.7 62 107.3 62C111.9 62 115.1 65.1 115.1 69.6C115.1 74.1 111.8 77.2 107.3 77.2C102.8 77.2 99.5 74 99.5 69.6ZM111.4 69.6C111.4 67.1 109.7 65.2 107.3 65.2C104.9 65.2 103.2 67.1 103.2 69.6C103.2 72.1 104.9 74 107.3 74C109.7 74 111.4 72.1 111.4 69.6Z" fill="white"/>
<path d="M129.999 62.2031V77.1031H126.299L120.499 68.2031V77.1031H116.899V62.2031H120.499L126.299 71.3031V62.2031H129.899H129.999Z" fill="white"/>
<path d="M132.102 69.5982C132.102 65.2982 134.902 61.8982 139.802 61.8982C144.702 61.8982 144.402 62.7982 145.902 64.5982L143.402 66.6982C142.602 65.8982 141.402 65.1982 139.802 65.1982C138.202 65.1982 135.902 66.7982 135.902 69.5982C135.902 72.3982 137.402 73.9982 140.002 73.9982C142.602 73.9982 141.702 73.7982 142.602 73.2982V71.5982H139.702V68.5982H146.002V75.2982C144.602 76.2982 142.302 77.0982 140.002 77.0982C135.602 77.0982 132.202 74.3982 132.202 69.4982L132.102 69.5982Z" fill="white"/>
<path d="M156.103 77.0011L153.003 72.2011H151.703V77.0011H148.203V62.1011H154.103C157.803 62.1011 159.503 64.3011 159.503 67.2011C159.503 70.1011 158.403 70.9011 156.703 71.7011L160.303 77.0011H156.103ZM151.703 69.2011H153.303C154.803 69.2011 155.803 68.5011 155.803 67.2011C155.803 65.9011 155.003 65.2011 153.403 65.2011H151.703V69.1011V69.2011Z" fill="white"/>
<path d="M161.797 62.2011H171.697V65.3011H165.297V68.1011H170.397V71.2011H165.297V73.9011H172.197V77.0011H161.797V62.1011V62.2011Z" fill="white"/>
<path d="M173.797 74.9L175.897 72.3C177.097 73.5 178.397 74.1 179.497 74.1C180.597 74.1 181.197 73.5 181.197 72.9C181.197 72.3 180.697 71.7 178.897 71.2C176.597 70.4 174.297 69.4 174.297 66.4C174.297 63.4 176.497 62 179.297 62C181.297 62 183.097 62.7 184.597 63.9L182.597 66.5C181.297 65.5 180.297 65.1 179.497 65.1C178.697 65.1 178.097 65.5 178.097 66.3C178.097 67 178.597 67.3 180.297 67.9C182.997 68.9 184.997 69.6 184.997 72.5C184.997 75.4 181.897 77.3 179.497 77.3C177.097 77.3 175.497 76.5 173.897 74.9H173.797Z" fill="white"/>
<path d="M185.703 74.9L187.803 72.3C189.003 73.5 190.303 74.1 191.403 74.1C192.503 74.1 193.103 73.5 193.103 72.9C193.103 72.3 192.603 71.7 190.803 71.2C188.503 70.4 186.203 69.4 186.203 66.4C186.203 63.4 188.403 62 191.203 62C193.203 62 195.003 62.7 196.503 63.9L194.503 66.5C193.203 65.5 192.203 65.1 191.403 65.1C190.603 65.1 190.003 65.5 190.003 66.3C190.003 67 190.503 67.3 192.203 67.9C194.903 68.9 196.903 69.6 196.903 72.5C196.903 75.4 193.803 77.3 191.403 77.3C189.003 77.3 187.403 76.5 185.803 74.9H185.703Z" fill="white"/>
<path d="M85.397 83.7031H89.797C94.497 83.7031 97.497 86.8031 97.497 91.2031C97.497 95.6031 94.597 98.6031 89.797 98.6031H85.297V83.7031H85.397ZM89.797 96.9031C93.397 96.9031 95.697 94.5031 95.697 91.1031C95.697 87.7031 93.397 85.3031 89.897 85.3031H87.197V96.9031H89.797Z" fill="white"/>
<path d="M106.099 98.7031C102.699 98.7031 100.399 96.4031 100.399 92.5031V83.7031H102.199V92.4031C102.199 95.1031 103.699 97.0031 106.099 97.0031C108.499 97.0031 110.099 95.3031 110.099 92.4031V83.7031H111.899V92.5031C111.899 96.3031 109.699 98.7031 106.099 98.7031Z" fill="white"/>
<path d="M122.597 90.7011C124.297 91.1011 125.697 92.3011 125.697 94.5011C125.697 96.7011 124.097 98.5011 120.697 98.5011H115.297V83.6011H120.197C123.097 83.6011 124.997 84.7011 124.997 87.2011C124.997 89.7011 124.197 90.0011 122.597 90.6011V90.7011ZM117.197 90.1011H120.197C121.597 90.1011 123.097 89.5011 123.097 87.7011C123.097 85.9011 122.197 85.4011 119.797 85.4011H117.097V90.1011H117.197ZM120.297 96.9011C122.397 96.9011 123.897 96.1011 123.897 94.4011C123.897 92.7011 122.697 91.7011 120.397 91.7011H117.197V96.9011H120.297Z" fill="white"/>
<path d="M136.995 94.9011H130.395L129.095 98.5011H127.195L132.795 83.6011H134.595L140.295 98.5011H138.395L137.095 94.9011H136.995ZM136.495 93.3011L133.795 85.9011L131.095 93.3011H136.595H136.495Z" fill="white"/>
<path d="M142.695 83.7031H144.495V98.6031H142.695V83.7031Z" fill="white"/>
<path d="M161.797 96.9V98.5H152.797V97.3L157.697 92.3C158.897 91 159.897 89.9 159.897 88.4C159.897 86.9 158.797 85.6 157.197 85.6C155.597 85.6 154.797 86.3 154.097 87.6L152.797 86.7C153.597 85.1 154.997 84 157.297 84C159.597 84 161.697 85.6 161.697 88.2C161.697 90.8 160.997 91.2 159.197 93L155.497 96.8H161.897L161.797 96.9Z" fill="white"/>
<path d="M163.797 91.4011C163.797 87.1011 165.797 84.1011 169.197 84.1011C172.597 84.1011 174.597 86.7011 174.597 91.4011C174.597 96.1011 172.597 98.7011 169.197 98.7011C165.797 98.7011 163.797 96.1011 163.797 91.4011ZM172.797 91.4011C172.797 87.7011 171.297 85.7011 169.197 85.7011C167.097 85.7011 165.597 87.9011 165.597 91.4011C165.597 94.9011 167.097 97.1011 169.197 97.1011C171.297 97.1011 172.797 94.9011 172.797 91.4011Z" fill="white"/>
<path d="M185.399 96.9V98.5H176.399V97.3L181.299 92.3C182.499 91 183.499 89.9 183.499 88.4C183.499 86.9 182.399 85.6 180.799 85.6C179.199 85.6 178.399 86.3 177.699 87.6L176.399 86.7C177.199 85.1 178.599 84 180.899 84C183.199 84 185.299 85.6 185.299 88.2C185.299 90.8 184.599 91.2 182.799 93L179.099 96.8H185.499L185.399 96.9Z" fill="white"/>
<path d="M192.099 89.4031C194.599 89.4031 196.699 91.1031 196.699 94.0031C196.699 96.9031 194.499 98.7031 191.699 98.7031C188.899 98.7031 187.899 97.8031 186.899 96.3031L188.199 95.3031C188.899 96.4031 190.099 97.1031 191.499 97.1031C192.899 97.1031 194.899 95.8031 194.899 94.0031C194.899 92.2031 193.299 91.0031 191.599 91.0031C189.899 91.0031 189.699 91.2031 189.099 91.8031L188.099 91.5031L188.499 84.2031H196.099V85.8031H190.199L189.999 89.8031C190.799 89.5031 191.599 89.4031 192.199 89.4031H192.099Z" fill="white"/>
<path d="M57.603 63.5981C56.103 62.0981 54.103 61.2981 51.803 61.2981C49.503 61.2981 51.203 61.2981 50.903 61.2981C49.303 61.3981 47.403 62.0981 45.503 64.0981L35.403 74.2981L40.103 78.9981L50.203 68.7981C50.403 68.5981 50.503 68.4981 50.703 68.3981C51.103 68.0981 51.503 67.8981 52.003 67.8981C52.503 67.8981 52.903 68.0981 52.903 68.0981C52.903 68.0981 54.803 68.4981 58.703 77.1981L61.703 71.9981C61.703 71.9981 62.003 71.3981 62.203 71.0981C65.403 64.7981 65.003 57.4981 61.203 52.4981C59.103 49.6981 40.503 31.3984 31.203 22.3984H21.703C33.903 34.3984 54.003 54.1981 55.903 56.5981C57.403 58.5981 58.003 61.1981 57.603 63.8981C57.603 63.8981 57.603 63.8981 57.503 63.8981L57.603 63.5981Z" fill="white"/>
<path d="M0 69.2011V78.7011L23.9 54.8011L19.2 50.1011L0 69.2011Z" fill="white"/>
<path d="M0 0.398438V7.09844H67.3V38.9984C71.5 43.2984 72.2 44.2984 72.8 44.9984C73.2 45.4984 73.6 46.0981 74 46.6981V0.398438H0Z" fill="white"/>
<path d="M7.09998 91.8971L44.1 54.7971L0 10.7969V20.1969L34.7 54.7971L0 89.4971V98.4971V98.5971L74 98.4971V91.8971H7.09998Z" fill="white"/>
</svg>
