<svg width="793" height="156" viewBox="0 0 793 156" fill="none" xmlns="http://www.w3.org/2000/svg">
<path d="M114.302 20.7031H16.6021V118.403H114.302V20.7031Z" fill="white"/>
<path d="M69.352 67.4C73.452 68.4 76.352 71.6 76.352 76.5C76.352 81.4 72.552 86.3 64.652 86.3H50.552V50.5H62.952C70.352 50.5 74.552 53.4 74.552 59.2C74.552 65 72.952 65.8 69.352 67.3V67.4ZM56.652 65.4H62.452C65.452 65.4 68.452 64 68.452 60.7C68.452 57.4 66.552 56.1 61.852 56.1H56.652V65.5V65.4ZM62.852 80.9C67.152 80.9 70.052 79.3 70.052 75.9C70.052 72.5 67.652 70.7 62.952 70.7H56.552V80.9H62.852Z" fill="#00178E"/>
<path d="M775.6 1H1V139.2H775.6V1Z" stroke="white" stroke-miterlimit="10"/>
<path d="M775.6 17.2031H792.1V155.303H17.5V118.303" stroke="white" stroke-miterlimit="10"/>
</svg>
